<svg width="30" height="30" viewBox="0 0 30 30" fill="none" xmlns="http://www.w3.org/2000/svg">
<path d="M15 28.8756C22.6632 28.8756 28.8755 22.6633 28.8755 15.0001C28.8755 7.33681 22.6632 1.12451 15 1.12451C7.33669 1.12451 1.12439 7.33681 1.12439 15.0001C1.12439 22.6633 7.33669 28.8756 15 28.8756Z" stroke="#DE98C3" stroke-miterlimit="10"/>
<path d="M21.2371 17.7944C23.0505 14.6536 22.4715 10.9245 19.9438 9.46516C17.4162 8.00579 13.8971 9.36879 12.0838 12.5095C10.2704 15.6502 10.8495 19.3793 13.3771 20.8387C15.9047 22.2981 19.4238 20.9351 21.2371 17.7944Z" fill="#DE98C3"/>
<path d="M9.26854 18.5211C10.4128 18.2332 11.0678 16.916 10.7314 15.579C10.395 14.242 9.19465 13.3915 8.05037 13.6794C6.90608 13.9673 6.25115 15.2845 6.58754 16.6215C6.92393 17.9586 8.12425 18.809 9.26854 18.5211Z" fill="#DE98C3"/>
</svg>
