<svg width="43" height="20" viewBox="0 0 43 20" fill="none" xmlns="http://www.w3.org/2000/svg">
<path d="M10 19.2503C15.1089 19.2503 19.2504 15.1087 19.2504 9.99989C19.2504 4.89105 15.1089 0.749512 10 0.749512C4.89117 0.749512 0.749634 4.89105 0.749634 9.99989C0.749634 15.1087 4.89117 19.2503 10 19.2503Z" stroke="#DE98C3" stroke-miterlimit="10"/>
<path d="M14.1581 11.8629C15.367 9.7691 14.981 7.28302 13.2959 6.31011C11.6108 5.33719 9.26475 6.24586 8.05585 8.33967C6.84695 10.4335 7.23298 12.9196 8.91807 13.8925C10.6032 14.8654 12.9492 13.9567 14.1581 11.8629Z" fill="#DE98C3"/>
<path d="M6.17904 12.3476C6.9419 12.1556 7.37852 11.2775 7.15426 10.3861C6.93 9.4948 6.12979 8.92783 5.36693 9.11976C4.60407 9.31169 4.16745 10.1899 4.39171 11.0812C4.61597 11.9725 5.41619 12.5395 6.17904 12.3476Z" fill="#DE98C3"/>
<path d="M16.2954 17.4599L5.72247 2.49731L4.2409 3.54423L14.8139 18.5069L16.2954 17.4599Z" fill="#D090BF"/>
<path d="M33 19.2505C38.1088 19.2505 42.2504 15.109 42.2504 10.0001C42.2504 4.89129 38.1088 0.749756 33 0.749756C27.8912 0.749756 23.7496 4.89129 23.7496 10.0001C23.7496 15.109 27.8912 19.2505 33 19.2505Z" stroke="#84D5F7" stroke-miterlimit="10"/>
<path d="M37.9175 13.973H34.994L34.964 13.7031H37.9625L37.9175 13.973Z" fill="#84D5F7"/>
<path d="M28.997 13.5082V7.88604H30.901V13.868H31.0209H31.1409H34.0194V7.79608L32.895 6.17689C32.91 6.17689 32.91 6.17689 32.925 6.1619C32.94 6.14691 32.955 6.11692 32.955 6.08694V5.60718C32.955 5.5622 32.91 5.51722 32.85 5.51722L29.9265 5.27734C29.8965 5.27734 29.8665 5.27734 29.8365 5.30733C29.8066 5.32232 29.7916 5.33731 29.7916 5.3673V5.83207L28.7721 7.75111C28.7721 7.7661 28.7571 7.78109 28.7571 7.78109V13.5232L28.862 13.4932L28.997 13.5082ZM32.7151 5.98199L30.0165 5.7571V5.47225L32.7151 5.69713V5.98199ZM29.9115 6.07195L30.841 7.69114H29.0569L29.9115 6.07195ZM32.97 6.94151L32.6251 7.31632C32.5802 7.3613 32.4902 7.39129 32.3853 7.39129C32.3403 7.39129 32.3103 7.39129 32.2653 7.37629C32.1904 7.37629 32.1154 7.34631 32.0404 7.31632C31.9805 7.28634 31.9205 7.25635 31.8605 7.22637C31.8305 7.21138 31.8156 7.18139 31.7856 7.1664C31.7556 7.15141 31.7256 7.12142 31.6956 7.10643C31.6356 7.04646 31.5907 7.00148 31.5457 6.9565C31.5007 6.91153 31.4707 6.86655 31.4407 6.80658C31.4407 6.80658 31.4407 6.79159 31.4257 6.79159V6.77659L31.4557 6.7616L31.4407 6.77659C31.3808 6.65665 31.3958 6.55171 31.4557 6.49174L31.8006 6.11692L31.8305 6.13192L31.7856 6.11692C31.7856 6.11692 31.8006 6.11692 31.8006 6.10193C31.8455 6.05695 31.9055 6.02697 31.9805 6.02697C31.9955 6.02697 32.0254 6.02697 32.0404 6.02697C32.0554 6.02697 32.0854 6.02697 32.1004 6.02697C32.2203 6.04196 32.3403 6.08694 32.4752 6.14691C32.5202 6.17689 32.5802 6.20688 32.6251 6.23686C32.955 6.47674 33.1049 6.77659 32.97 6.94151Z" fill="#84D5F7"/>
<path d="M32.2353 6.86646L31.9355 7.19629C31.9805 7.22628 32.0104 7.24127 32.0554 7.25626L32.3553 6.92643C32.3103 6.89644 32.2653 6.88145 32.2353 6.86646Z" fill="#84D5F7"/>
<path d="M32.6251 7.0166L32.3403 7.33144C32.4152 7.33144 32.5052 7.33144 32.5652 7.27147L32.805 7.0166C32.79 7.0166 32.7601 7.0166 32.7301 7.0166C32.7001 7.0166 32.6551 7.0166 32.6251 7.0166Z" fill="#84D5F7"/>
<path d="M32.4152 6.95654L32.1304 7.27139L32.2653 7.31636L32.5502 6.98653C32.5052 6.98653 32.4602 6.97154 32.4152 6.95654Z" fill="#84D5F7"/>
<path d="M32.1304 6.79156C32.1004 6.77657 32.0854 6.76157 32.0704 6.74658L31.7706 7.07642L31.8755 7.15138L32.1754 6.82154C32.1604 6.80655 32.1454 6.80655 32.1304 6.79156Z" fill="#84D5F7"/>
<path d="M31.8155 6.46167C31.8155 6.46167 31.8005 6.46167 31.8155 6.46167L31.5157 6.76152L31.5906 6.86647L31.8755 6.55162C31.8605 6.53663 31.8305 6.50665 31.8155 6.46167Z" fill="#84D5F7"/>
<path d="M32.5802 6.29681C32.4902 6.23684 32.3853 6.17687 32.2803 6.14688C32.1754 6.10191 32.0704 6.08691 31.9955 6.08691C31.9655 6.08691 31.9355 6.10191 31.9055 6.10191C31.8905 6.1169 31.8755 6.13189 31.8605 6.14688C31.8156 6.19186 31.8156 6.28182 31.8605 6.38676H31.8156H31.8455C31.8605 6.40176 31.8755 6.41675 31.8755 6.44673C31.8905 6.47672 31.9205 6.5217 31.9505 6.55168L32.0854 6.68661C32.1154 6.70161 32.1454 6.73159 32.1754 6.74658C32.1904 6.76158 32.2203 6.77657 32.2353 6.79156L32.4153 6.88152C32.4902 6.9115 32.5502 6.92649 32.6102 6.94149V6.97147L32.6251 6.94149C32.7001 6.95648 32.835 6.97147 32.895 6.89651C33.015 6.77657 32.865 6.5067 32.5802 6.29681Z" fill="#84D5F7"/>
<path d="M31.9205 6.61182L31.6357 6.94165C31.6657 6.97164 31.6957 7.00162 31.7256 7.03161L32.0255 6.70177C31.9805 6.67179 31.9505 6.6418 31.9205 6.61182Z" fill="#84D5F7"/>
<path d="M31.7406 6.26685L31.5157 6.52172C31.4857 6.5667 31.4707 6.62667 31.4857 6.70163L31.7705 6.38679C31.7555 6.34181 31.7555 6.31182 31.7406 6.26685Z" fill="#84D5F7"/>
<path d="M35.2488 13.8681L34.7691 10.7197C34.7691 10.7197 35.1589 10.6747 36.4632 10.6448C37.7826 10.6747 38.1574 10.7197 38.1574 10.7197L37.6776 13.8681H37.9325L38.4722 10.18C38.4722 10.15 37.5727 10.135 36.4632 10.135C35.3538 10.135 34.4542 10.15 34.4542 10.18L34.994 13.8681H35.2488ZM35.1739 10.2849C35.3538 10.2999 35.5487 10.2999 35.7586 10.2999C35.9685 10.2999 36.2083 10.3149 36.4332 10.3149C36.6581 10.3149 36.898 10.3149 37.1079 10.3149C37.3178 10.3149 37.5277 10.2999 37.6926 10.2999C37.8725 10.2849 38.0074 10.2849 38.1124 10.2699C38.2173 10.2699 38.2773 10.2549 38.2773 10.2549C38.2773 10.2549 38.2173 10.2699 38.1274 10.2699C38.0224 10.2849 37.8875 10.2999 37.7076 10.3149C37.6326 10.3449 37.5427 10.3449 37.4377 10.3599C37.3328 10.3599 37.2278 10.3749 37.1229 10.3749C36.913 10.3899 36.6731 10.3899 36.4482 10.3899C36.2233 10.3899 35.9835 10.3749 35.7736 10.3749C35.5487 10.3599 35.3538 10.3449 35.1739 10.3299C34.829 10.2999 34.6041 10.2549 34.6041 10.2549C34.6041 10.2549 34.829 10.2699 35.1739 10.2849Z" fill="#84D5F7"/>
<path d="M37.8425 10.7796C37.7525 10.7796 37.6326 10.7946 37.4977 10.8096C37.3477 10.8246 37.1828 10.8246 37.0029 10.8396C36.823 10.8396 36.6281 10.8546 36.4332 10.8546C36.2383 10.8546 36.0434 10.8546 35.8635 10.8546C35.6836 10.8546 35.5187 10.8396 35.3687 10.8396C35.0839 10.7946 34.889 10.7796 34.889 10.7796C34.889 10.7796 35.0839 10.8246 35.3687 10.8546C35.5187 10.8696 35.6836 10.8846 35.8635 10.8996C36.0434 10.8996 36.2383 10.9146 36.4332 10.9146C36.6281 10.9146 36.823 10.8996 37.0029 10.8996C37.0929 10.8996 37.1828 10.8846 37.2578 10.8846C37.3477 10.8846 37.4227 10.8696 37.4977 10.8546C37.6476 10.8396 37.7675 10.8096 37.8425 10.7796C37.9325 10.7796 37.9774 10.7646 37.9774 10.7646C37.9774 10.7646 37.9325 10.7796 37.8425 10.7796Z" fill="#84D5F7"/>
<path d="M30.901 13.8682L28.7571 13.5233V13.1335L30.901 13.4934V13.8682Z" fill="#84D5F7"/>
<path d="M38.0253 17.1666L26.9699 3.27808L25.9728 4.07175L37.0282 17.9602L38.0253 17.1666Z" fill="#84D5F7"/>
</svg>
