<svg width="30" height="30" viewBox="0 0 30 30" fill="none" xmlns="http://www.w3.org/2000/svg">
<path d="M15 28.8756C22.6632 28.8756 28.8755 22.6633 28.8755 15.0001C28.8755 7.33681 22.6632 1.12451 15 1.12451C7.33669 1.12451 1.12439 7.33681 1.12439 15.0001C1.12439 22.6633 7.33669 28.8756 15 28.8756Z" stroke="#84D5F7" stroke-miterlimit="10"/>
<path d="M22.3762 20.9595H17.9909L17.9459 20.5547H22.4437L22.3762 20.9595Z" fill="#84D5F7"/>
<path d="M8.99544 20.2623V11.8291H11.8515V20.8021H12.0314H12.2113H16.5292V11.6941L14.8425 9.26534C14.865 9.26534 14.865 9.26534 14.8875 9.24285C14.91 9.22036 14.9325 9.17539 14.9325 9.13041V8.41077C14.9325 8.3433 14.865 8.27584 14.7751 8.27584L10.3897 7.91602C10.3448 7.91602 10.2998 7.91602 10.2548 7.96099C10.2098 7.98348 10.1873 8.00597 10.1873 8.05095V8.7481L8.65811 11.6267C8.65811 11.6491 8.63562 11.6716 8.63562 11.6716V20.2848L8.79304 20.2399L8.99544 20.2623ZM14.5727 8.97299L10.5247 8.63566V8.20837L14.5727 8.5457V8.97299ZM10.3673 9.10792L11.7616 11.5367H9.0854L10.3673 9.10792ZM14.955 10.4123L14.4377 10.9745C14.3703 11.042 14.2353 11.0869 14.0779 11.0869C14.0104 11.0869 13.9655 11.0869 13.898 11.0644C13.7855 11.0644 13.6731 11.0195 13.5607 10.9745C13.4707 10.9295 13.3807 10.8845 13.2908 10.8396C13.2458 10.8171 13.2233 10.7721 13.1783 10.7496C13.1334 10.7271 13.0884 10.6821 13.0434 10.6596C12.9535 10.5697 12.886 10.5022 12.8185 10.4348C12.7511 10.3673 12.7061 10.2998 12.6611 10.2099C12.6611 10.2099 12.6611 10.1874 12.6386 10.1874V10.1649L12.6836 10.1424L12.6611 10.1649C12.5712 9.98498 12.5936 9.82756 12.6836 9.7376L13.2008 9.17539L13.2458 9.19788L13.1783 9.17539C13.1783 9.17539 13.2008 9.17539 13.2008 9.1529C13.2683 9.08543 13.3583 9.04045 13.4707 9.04045C13.4932 9.04045 13.5382 9.04045 13.5607 9.04045C13.5831 9.04045 13.6281 9.04045 13.6506 9.04045C13.8305 9.06294 14.0104 9.13041 14.2128 9.22036C14.2803 9.26534 14.3703 9.31032 14.4377 9.3553C14.9325 9.71512 15.1574 10.1649 14.955 10.4123Z" fill="#84D5F7"/>
<path d="M13.853 10.2996L13.4033 10.7943C13.4707 10.8393 13.5157 10.8618 13.5832 10.8843L14.0329 10.3895C13.9655 10.3445 13.898 10.322 13.853 10.2996Z" fill="#84D5F7"/>
<path d="M14.4377 10.5249L14.0104 10.9972C14.1229 10.9972 14.2578 10.9972 14.3478 10.9072L14.7076 10.5249C14.6851 10.5249 14.6401 10.5249 14.5951 10.5249C14.5502 10.5249 14.4827 10.5249 14.4377 10.5249Z" fill="#84D5F7"/>
<path d="M14.1228 10.4351L13.6956 10.9073L13.898 10.9748L14.3252 10.48C14.2578 10.48 14.1903 10.4575 14.1228 10.4351Z" fill="#84D5F7"/>
<path d="M13.6956 10.1876C13.6506 10.1651 13.6281 10.1426 13.6056 10.1201L13.1558 10.6149L13.3132 10.7273L13.763 10.2326C13.7405 10.2101 13.718 10.2101 13.6956 10.1876Z" fill="#84D5F7"/>
<path d="M13.2233 9.69263C13.2233 9.69263 13.2008 9.69263 13.2233 9.69263L12.7735 10.1424L12.8859 10.2998L13.3132 9.82756C13.2907 9.80507 13.2458 9.76009 13.2233 9.69263Z" fill="#84D5F7"/>
<path d="M14.3703 9.44521C14.2354 9.35526 14.078 9.2653 13.9205 9.22033C13.7631 9.15286 13.6057 9.13037 13.4933 9.13037C13.4483 9.13037 13.4033 9.15286 13.3583 9.15286C13.3358 9.17535 13.3133 9.19784 13.2909 9.22033C13.2234 9.28779 13.2234 9.42273 13.2909 9.58015H13.2234H13.2684C13.2909 9.60264 13.3133 9.62512 13.3133 9.6701C13.3358 9.71508 13.3808 9.78255 13.4258 9.82752L13.6282 10.0299C13.6732 10.0524 13.7181 10.0974 13.7631 10.1199C13.7856 10.1424 13.8306 10.1649 13.8531 10.1873L14.1229 10.3223C14.2354 10.3673 14.3253 10.3897 14.4153 10.4122V10.4572L14.4378 10.4122C14.5502 10.4347 14.7526 10.4572 14.8426 10.3448C15.0225 10.1649 14.7976 9.76006 14.3703 9.44521Z" fill="#84D5F7"/>
<path d="M13.3808 9.91748L12.9535 10.4122C12.9985 10.4572 13.0434 10.5022 13.0884 10.5472L13.5382 10.0524C13.4707 10.0074 13.4258 9.96246 13.3808 9.91748Z" fill="#84D5F7"/>
<path d="M13.1109 9.40015L12.7735 9.78245C12.7285 9.84992 12.7061 9.93988 12.7285 10.0523L13.1558 9.58006C13.1333 9.51259 13.1333 9.46761 13.1109 9.40015Z" fill="#84D5F7"/>
<path d="M18.3733 20.8021L17.6537 16.0795C17.6537 16.0795 18.2384 16.012 20.1949 15.967C22.1739 16.012 22.7361 16.0795 22.7361 16.0795L22.0165 20.8021H22.3988L23.2084 15.2699C23.2084 15.2249 21.8591 15.2024 20.1949 15.2024C18.5307 15.2024 17.1814 15.2249 17.1814 15.2699L17.991 20.8021H18.3733ZM18.2609 15.4273C18.5307 15.4498 18.8231 15.4498 19.1379 15.4498C19.4528 15.4498 19.8126 15.4723 20.1499 15.4723C20.4872 15.4723 20.8471 15.4723 21.1619 15.4723C21.4767 15.4723 21.7916 15.4498 22.039 15.4498C22.3088 15.4273 22.5112 15.4273 22.6687 15.4048C22.8261 15.4048 22.916 15.3823 22.916 15.3823C22.916 15.3823 22.8261 15.4048 22.6911 15.4048C22.5337 15.4273 22.3313 15.4498 22.0615 15.4723C21.949 15.5172 21.8141 15.5172 21.6567 15.5397C21.4992 15.5397 21.3418 15.5622 21.1844 15.5622C20.8696 15.5847 20.5097 15.5847 20.1724 15.5847C19.8351 15.5847 19.4753 15.5622 19.1604 15.5622C18.8231 15.5397 18.5307 15.5172 18.2609 15.4947C17.7436 15.4498 17.4063 15.3823 17.4063 15.3823C17.4063 15.3823 17.7436 15.4048 18.2609 15.4273Z" fill="#84D5F7"/>
<path d="M22.2637 16.1695C22.1288 16.1695 21.9489 16.192 21.7465 16.2144C21.5216 16.2369 21.2742 16.2369 21.0043 16.2594C20.7345 16.2594 20.4421 16.2819 20.1498 16.2819C19.8574 16.2819 19.5651 16.2819 19.2952 16.2819C19.0253 16.2819 18.778 16.2594 18.5531 16.2594C18.1258 16.192 17.8334 16.1695 17.8334 16.1695C17.8334 16.1695 18.1258 16.2369 18.5531 16.2819C18.778 16.3044 19.0253 16.3269 19.2952 16.3494C19.5651 16.3494 19.8574 16.3719 20.1498 16.3719C20.4421 16.3719 20.7345 16.3494 21.0043 16.3494C21.1393 16.3494 21.2742 16.3269 21.3867 16.3269C21.5216 16.3269 21.634 16.3044 21.7465 16.2819C21.9714 16.2594 22.1513 16.2144 22.2637 16.1695C22.3987 16.1695 22.4661 16.147 22.4661 16.147C22.4661 16.147 22.3987 16.1695 22.2637 16.1695Z" fill="#84D5F7"/>
<path d="M11.8515 20.8021L8.63562 20.2849V19.7002L11.8515 20.2399V20.8021Z" fill="#84D5F7"/>
</svg>
