<svg width="37" height="36" viewBox="0 0 37 36" fill="none" xmlns="http://www.w3.org/2000/svg">
<g clip-path="url(#clip0_1:4674)">
<path d="M0.400024 22.0502C0.400024 23.1402 1.31002 24.0102 2.44002 24.0102H15.31L8.66002 20.1702H1.83002C1.00002 20.4202 0.400024 21.1702 0.400024 22.0502Z" fill="#F6F5F4"/>
<path d="M36.5 22.0502C36.5 21.1702 35.9 20.4302 35.07 20.1702H28.25L21.6 24.0102H34.46C35.59 24.0102 36.5 23.1302 36.5 22.0502Z" fill="#F6F5F4"/>
<path d="M26.4201 20.1702H10.4901C13.0001 21.6202 18.1101 24.5702 18.4501 24.7702C18.8001 24.5702 23.9101 21.6202 26.4201 20.1702Z" fill="#F6F5F4"/>
<path d="M33.76 25.82C28.6 25.81 23.45 25.82 18.29 25.82C13.09 25.82 7.88004 25.84 2.68004 25.81C1.35004 25.8 0.830041 26.25 0.850041 27.49C0.910041 32.08 5.13004 35.98 10.16 36C15.55 36.02 20.95 36.01 26.34 36C31.38 35.99 35.56 32.3 35.74 27.73C35.8 26.09 35.54 25.83 33.76 25.82Z" fill="#F6F5F4"/>
<path d="M9.51002 33.9002C6.64002 33.8302 4.47002 31.9602 3.54002 29.2502C3.29002 28.5302 3.87002 27.9202 4.70002 27.9202C13.78 27.9202 22.77 27.9202 31.75 27.9202C32.58 27.9202 33.3 28.5402 33.1 29.2702C32.46 31.5902 29.94 33.8102 27.12 33.8802C21.25 34.0402 15.37 34.0402 9.51002 33.9002Z" fill="#F6F5F4"/>
<path d="M34.61 14.42C29.21 14.42 23.82 14.42 18.43 14.42C12.94 14.42 7.45003 14.41 1.96003 14.42C0.540028 14.42 -0.0199725 15.13 2.75339e-05 16.83C0.0200275 18.47 0.640027 19.26 2.01003 19.26C12.89 19.27 23.78 19.27 34.66 19.25C35.96 19.25 36.65 18.33 36.65 16.76C36.65 15.15 36.02 14.42 34.61 14.42Z" fill="#F6F5F4"/>
<path d="M35.74 9.03008C35.59 4.01008 31.43 0.0200781 26.29 0.0100781C20.98 -0.00992186 15.68 0.0200781 10.37 7.81363e-05C7.72 -0.00992186 5.5 0.940078 3.65 2.77008C1.79 4.60008 0.889998 6.84008 0.869998 9.39008C0.839998 13.5401 0.489999 13.1701 4.63 13.1701C9.18 13.1701 13.72 13.1701 18.27 13.1701C23.53 13.1701 28.78 13.1501 34.04 13.1901C35.26 13.2001 35.79 12.7201 35.74 11.5401C35.71 10.7001 35.76 9.86008 35.74 9.03008ZM9.88 9.47008C9.88 9.68008 9.73 9.86008 9.54 9.86008H9.47C9.28 9.86008 9.13 9.69008 9.13 9.47008V8.55008C9.13 8.34008 9.28 8.16008 9.47 8.16008H9.53C9.72 8.16008 9.87 8.33008 9.87 8.55008V9.47008H9.88ZM9.88 5.23008C9.88 5.45008 9.73 5.62008 9.54 5.62008H9.47C9.28 5.62008 9.13 5.45008 9.13 5.23008V4.31008C9.13 4.10008 9.28 3.92008 9.47 3.92008H9.53C9.72 3.92008 9.87 4.09008 9.87 4.31008V5.23008H9.88ZM13.62 6.92008C13.62 7.13008 13.47 7.31008 13.28 7.31008H13.22C13.03 7.31008 12.88 7.14008 12.88 6.92008V6.00008C12.88 5.79008 13.03 5.61008 13.22 5.61008H13.28C13.47 5.61008 13.62 5.78008 13.62 6.00008V6.92008ZM18.87 9.47008C18.87 9.68008 18.72 9.86008 18.53 9.86008H18.47C18.28 9.86008 18.13 9.69008 18.13 9.47008V8.55008C18.13 8.34008 18.28 8.16008 18.47 8.16008H18.53C18.72 8.16008 18.87 8.33008 18.87 8.55008V9.47008ZM18.87 5.23008C18.87 5.45008 18.72 5.62008 18.53 5.62008H18.47C18.28 5.62008 18.13 5.45008 18.13 5.23008V4.31008C18.13 4.10008 18.28 3.92008 18.47 3.92008H18.53C18.72 3.92008 18.87 4.09008 18.87 4.31008V5.23008ZM23.37 6.92008C23.37 7.13008 23.22 7.31008 23.03 7.31008H22.97C22.78 7.31008 22.63 7.14008 22.63 6.92008V6.00008C22.63 5.79008 22.78 5.61008 22.97 5.61008H23.03C23.22 5.61008 23.37 5.78008 23.37 6.00008V6.92008ZM27.12 9.47008C27.12 9.68008 26.97 9.86008 26.78 9.86008H26.72C26.53 9.86008 26.38 9.69008 26.38 9.47008V8.55008C26.38 8.34008 26.53 8.16008 26.72 8.16008H26.78C26.97 8.16008 27.12 8.33008 27.12 8.55008V9.47008ZM27.12 5.23008C27.12 5.45008 26.97 5.62008 26.78 5.62008H26.72C26.53 5.62008 26.38 5.45008 26.38 5.23008V4.31008C26.38 4.10008 26.53 3.92008 26.72 3.92008H26.78C26.97 3.92008 27.12 4.09008 27.12 4.31008V5.23008Z" fill="#F6F5F4"/>
</g>
<defs>
<clipPath id="clip0_1:4674">
<rect width="36.65" height="36" fill="white"/>
</clipPath>
</defs>
</svg>
