<svg width="64" height="64" viewBox="0 0 64 64" fill="none" xmlns="http://www.w3.org/2000/svg">
<path d="M64 32C64 14.3269 49.6731 1.53758e-06 32 2.34809e-06C14.3269 3.1586e-06 -2.0695e-06 14.3269 -1.3332e-06 32C-5.96893e-07 49.6731 14.3269 64 32 64C49.6731 64 64 49.6731 64 32Z" fill="#C59B82"/>
<path d="M32.0018 45.1519C38.8751 45.1519 44.447 37.4318 44.447 27.9086C44.447 18.3854 38.8751 10.6653 32.0018 10.6653C25.1285 10.6653 19.5566 18.3854 19.5566 27.9086C19.5566 37.4318 25.1285 45.1519 32.0018 45.1519Z" fill="white"/>
<path d="M31.8144 44.0403C21.3935 44.0403 12.0721 46.5393 5.88696 50.4628C11.6847 58.6471 21.2185 63.9951 32.0144 63.9951C42.7352 63.9951 52.2066 58.7221 58.0168 50.6377C51.8192 46.6143 42.3853 44.0403 31.8144 44.0403Z" fill="white"/>
<path d="M32.0018 52.324C28.3407 52.324 25.3544 49.3251 25.3544 45.6765V38.6543C25.3544 34.9932 28.3532 32.0068 32.0018 32.0068C35.6629 32.0068 38.6492 35.0057 38.6492 38.6543V45.6765C38.6617 49.3251 35.6629 52.324 32.0018 52.324Z" fill="white"/>
<path d="M21.5184 28.8833C21.8932 31.6448 21.281 34.0438 20.1439 34.2313C19.0194 34.4187 17.7948 32.332 17.42 29.5706C17.0451 26.8091 17.6574 24.4101 18.7944 24.2226C19.9315 24.0352 21.1435 26.1219 21.5184 28.8833Z" fill="white"/>
<path d="M42.4853 28.8833C42.1104 31.6448 42.7227 34.0438 43.8597 34.2313C44.9843 34.4187 46.2088 32.332 46.5837 29.5706C46.9585 26.8091 46.3463 24.4101 45.2092 24.2226C44.0847 24.0352 42.8601 26.1219 42.4853 28.8833Z" fill="white"/>
<path d="M19.994 27.2218C19.5692 24.4604 19.1568 21.699 18.732 18.9375C18.5821 17.9379 18.4321 16.8758 18.7945 15.9387C19.1568 14.9891 20.2314 14.2394 21.1811 14.6017C20.8062 12.6775 22.9304 11.2655 24.7797 10.6283C27.8785 9.56616 31.2022 9.01637 34.4634 9.44121C37.7122 9.86604 40.8984 11.303 43.0851 13.7395C43.7848 14.5142 44.3721 15.3889 44.7095 16.376C45.3467 18.2753 44.9469 20.337 44.5345 22.2862C44.2096 23.8356 43.8848 25.3975 43.5599 26.9469C43.4849 27.2968 43.3975 27.6717 43.1601 27.9466C42.7727 28.3714 42.123 28.4089 41.5482 28.4089C35.3756 28.4214 29.203 28.4339 23.0303 28.4464C21.8683 28.4464 20.3564 28.159 20.2064 27.0094" fill="white"/>
</svg>
