<svg width="16" height="16" viewBox="0 0 16 16" fill="none" xmlns="http://www.w3.org/2000/svg">
<path d="M3.33332 1.33325H12.6667C12.8435 1.33325 13.013 1.40349 13.1381 1.52851C13.2631 1.65354 13.3333 1.82311 13.3333 1.99992V14.7619C13.3334 14.8215 13.3175 14.8801 13.2873 14.9314C13.257 14.9828 13.2136 15.0251 13.1614 15.054C13.1093 15.0828 13.0503 15.0972 12.9908 15.0955C12.9312 15.0939 12.8731 15.0763 12.8227 15.0446L7.99999 12.0199L3.17732 15.0439C3.1269 15.0756 3.06891 15.0932 3.00939 15.0949C2.94987 15.0965 2.89098 15.0823 2.83885 15.0535C2.78673 15.0247 2.74326 14.9825 2.71298 14.9312C2.6827 14.8799 2.6667 14.8215 2.66666 14.7619V1.99992C2.66666 1.82311 2.73689 1.65354 2.86192 1.52851C2.98694 1.40349 3.15651 1.33325 3.33332 1.33325Z" fill="#F8CD7D"/>
</svg>
