<svg width="16" height="16" viewBox="0 0 16 16" fill="none" xmlns="http://www.w3.org/2000/svg">
<path d="M3.33332 1.3335H12.6667C12.8435 1.3335 13.013 1.40373 13.1381 1.52876C13.2631 1.65378 13.3333 1.82335 13.3333 2.00016V14.7622C13.3334 14.8218 13.3175 14.8803 13.2873 14.9317C13.257 14.983 13.2136 15.0254 13.1614 15.0542C13.1093 15.0831 13.0503 15.0974 12.9908 15.0958C12.9312 15.0941 12.8731 15.0765 12.8227 15.0448L7.99999 12.0202L3.17732 15.0442C3.1269 15.0758 3.06891 15.0934 3.00939 15.0951C2.94987 15.0968 2.89098 15.0825 2.83885 15.0537C2.78673 15.0249 2.74326 14.9827 2.71298 14.9314C2.6827 14.8802 2.6667 14.8217 2.66666 14.7622V2.00016C2.66666 1.82335 2.73689 1.65378 2.86192 1.52876C2.98694 1.40373 3.15651 1.3335 3.33332 1.3335ZM12 2.66683H3.99999V12.9548L7.99999 10.4475L12 12.9548V2.66683Z" fill="black"/>
</svg>
