<svg width="53" height="24" viewBox="0 0 53 24" fill="none" xmlns="http://www.w3.org/2000/svg">
<g clip-path="url(#clip0_88:217)">
<path d="M18.2737 21H5.72635C3.65939 21 2 19.4261 2 17.5087V8.2655C2 6.34817 3.65939 4.77424 5.72635 4.77424H7.24017C7.47307 4.77424 7.67686 4.65978 7.7933 4.48808L8.40466 3.71542C8.754 3.25755 9.30713 3 9.88937 3H14.1106C14.6929 3 15.246 3.25755 15.5953 3.71542L16.2067 4.51669C16.3523 4.68839 16.556 4.80286 16.7889 4.80286H18.3028C20.3406 4.80286 22.0291 6.37679 22.0291 8.29412V17.5374C22 19.4261 20.3406 21 18.2737 21ZM5.72635 5.46105C4.06696 5.46105 2.7278 6.72019 2.7278 8.2655V17.5087C2.7278 19.0541 4.06696 20.3132 5.72635 20.3132H18.3028C19.9622 20.3132 21.3013 19.0541 21.3013 17.5087V8.2655C21.3013 6.72019 19.9622 5.46105 18.3028 5.46105H16.7889C16.3231 5.46105 15.9156 5.26073 15.6536 4.91733L15.0131 4.11606C14.8093 3.82989 14.46 3.65819 14.1106 3.65819H9.88937C9.54003 3.65819 9.19068 3.82989 8.9869 4.08744L8.37555 4.91733C8.11354 5.26073 7.67686 5.46105 7.21106 5.46105H5.72635Z" fill="#927C70"/>
<path d="M12.0146 17.2226C9.3363 17.2226 7.15289 15.1622 7.15289 12.6439C7.15289 10.1256 9.3363 8.06519 12.0146 8.06519C14.6929 8.06519 16.8763 10.1256 16.8763 12.6439C16.8763 15.1908 14.6929 17.2226 12.0146 17.2226ZM12.0146 8.78061C9.71476 8.78061 7.85158 10.5262 7.85158 12.6725C7.85158 14.8188 9.71476 16.5644 12.0146 16.5644C14.3145 16.5644 16.1776 14.8188 16.1776 12.6725C16.1485 10.5262 14.2854 8.78061 12.0146 8.78061Z" fill="#927C70"/>
</g>
<g clip-path="url(#clip1_88:217)">
<path d="M45.6811 21.9997H36.3189C33.9314 21.9997 32 20.1583 32 17.8821V8.95627C32 6.68006 33.9314 4.83862 36.3189 4.83862H45.6811C48.0686 4.83862 50 6.68006 50 8.95627V17.8821C50 20.1583 48.0686 21.9997 45.6811 21.9997ZM36.3189 5.55474C34.3607 5.55474 32.7511 7.08926 32.7511 8.95627V17.8821C32.7511 19.7491 34.3607 21.2836 36.3189 21.2836H45.6811C47.6393 21.2836 49.2489 19.7491 49.2489 17.8821V8.95627C49.2489 7.08926 47.6393 5.55474 45.6811 5.55474H36.3189Z" fill="#927C70"/>
<path d="M38.1823 1.99852L37.6512 2.50488L40.743 5.45264L41.2741 4.94628L38.1823 1.99852Z" fill="#927C70"/>
<path d="M43.8279 1.97998L40.736 4.92773L41.2671 5.4341L44.359 2.48634L43.8279 1.97998Z" fill="#927C70"/>
<path d="M40.9061 16.2197C42.5358 16.2197 43.8569 14.9945 43.8569 13.4832C43.8569 11.9718 42.5358 10.7466 40.9061 10.7466C39.2764 10.7466 37.9553 11.9718 37.9553 13.4832C37.9553 14.9945 39.2764 16.2197 40.9061 16.2197Z" stroke="#927C70" stroke-width="0.65" stroke-miterlimit="10"/>
</g>
<defs>
<clipPath id="clip0_88:217">
<rect width="20" height="18" fill="white" transform="translate(2 3)"/>
</clipPath>
<clipPath id="clip1_88:217">
<rect width="18" height="20" fill="white" transform="translate(32 2)"/>
</clipPath>
</defs>
</svg>
