<svg width="36" height="36" viewBox="0 0 36 36" fill="none" xmlns="http://www.w3.org/2000/svg">
<g clip-path="url(#clip0_1:4689)">
<path d="M28.9395 9.38499C28.8232 9.21065 28.707 9.03632 28.5908 8.89104L35.2445 8.04843L30.7409 5.08475L28.4455 0L27.3414 7.69976C23.7676 5.02663 17.6368 5.8983 12.4358 10.1404C6.47942 15.0218 4.00968 22.5182 6.74092 27.109L0 27.4867L4.35835 30.7409L6.3632 35.9709L7.84504 28.5036C11.2736 31.8741 17.8983 31.1768 23.4479 26.6441C29.4915 21.6465 31.9613 13.9177 28.9395 9.38499ZM14.0048 12.7845C11.4479 14.9927 9.67554 17.6659 9.03632 19.9322C9.1816 17.6949 10.8959 14.7312 13.6562 12.3777C16.3002 10.0823 19.2058 8.97821 21.2107 9.23971C19.0896 9.4431 16.4455 10.6925 14.0048 12.7845Z" fill="#F6F6F6"/>
</g>
<defs>
<clipPath id="clip0_1:4689">
<rect width="35.2155" height="36" fill="white"/>
</clipPath>
</defs>
</svg>
