<svg width="230" height="63" viewBox="0 0 230 63" fill="none" xmlns="http://www.w3.org/2000/svg">
<circle cx="25" cy="25" r="24.5" stroke="#91D0D0"/>
<g clip-path="url(#clip0_115:3186)">
<path d="M36.9084 37.0001H28.937L28.8541 36.2595H37.0078L36.9084 37.0001Z" fill="#91D0D0"/>
<path d="M12.6298 35.7209V20.2034H17.8169V36.7307H18.1318H18.4633H26.2855V19.9509L23.2196 15.4909C23.2527 15.4741 23.2693 15.4741 23.2859 15.4572C23.3522 15.4067 23.3853 15.3394 23.3853 15.2721V13.9425C23.3853 13.8079 23.2693 13.7069 23.1036 13.69L15.1488 13C15.0659 13 14.9665 13.0168 14.9002 13.0673C14.8339 13.1178 14.8008 13.1851 14.8008 13.2525V14.5316L12.0331 19.8499C12.0166 19.8836 12 19.9173 12 19.9509V35.7882L12.2817 35.6704L12.6298 35.7209ZM22.7556 14.9691L15.4305 14.3464V13.5386L22.7556 14.1781V14.9691ZM15.1322 15.2216L17.6512 19.6985H12.7955L15.1322 15.2216ZM23.4185 17.5778L22.4904 18.6213C22.3578 18.7896 22.1424 18.8569 21.8606 18.8569C21.7612 18.8569 21.6452 18.8401 21.5126 18.8233C21.3137 18.7896 21.1149 18.7223 20.916 18.6381C20.7503 18.5708 20.5846 18.4867 20.4188 18.3689C20.3525 18.3352 20.2863 18.2847 20.22 18.2342C20.1371 18.1837 20.0542 18.1164 19.9879 18.0491C19.8222 17.9144 19.6896 17.7798 19.5902 17.6452C19.4742 17.5105 19.3748 17.3759 19.3085 17.2412C19.2919 17.2244 19.2919 17.2076 19.2753 17.1739V17.1571L19.3748 17.1234L19.2753 17.1571C19.1262 16.8205 19.1427 16.5512 19.3085 16.3492L20.2365 15.3058L20.3194 15.3562L20.2365 15.3058C20.2531 15.2889 20.2531 15.2889 20.2697 15.2721C20.3857 15.1543 20.5514 15.087 20.7669 15.0701C20.8166 15.0701 20.8829 15.0701 20.9326 15.0701C20.9823 15.0701 21.032 15.0701 21.0983 15.087C21.4132 15.1206 21.7612 15.2384 22.1092 15.4404C22.2418 15.5245 22.391 15.6087 22.5235 15.6928C23.3853 16.3324 23.7996 17.1571 23.4185 17.5778Z" fill="#91D0D0"/>
<path d="M21.4298 17.3757L20.6343 18.2846C20.7337 18.3519 20.8497 18.4024 20.9492 18.4529L21.7446 17.544C21.6286 17.4935 21.5292 17.4431 21.4298 17.3757Z" fill="#91D0D0"/>
<path d="M22.507 17.7966L21.7115 18.6886C21.9104 18.7055 22.1756 18.6886 22.3247 18.5372L22.9711 17.8135C22.9048 17.8135 22.8385 17.8135 22.7722 17.8135C22.6893 17.8135 22.6065 17.8135 22.507 17.7966Z" fill="#91D0D0"/>
<path d="M21.9269 17.6284L21.1315 18.5204L21.4961 18.6382L22.2915 17.7462C22.1755 17.7126 22.0595 17.6789 21.9269 17.6284Z" fill="#91D0D0"/>
<path d="M21.148 17.2075C21.0983 17.1739 21.032 17.1234 20.9822 17.0729L20.1868 17.9649L20.4685 18.1668L21.264 17.2748C21.2308 17.258 21.1811 17.2243 21.148 17.2075Z" fill="#91D0D0"/>
<path d="M20.2863 16.2989C20.2863 16.2821 20.2698 16.2653 20.2698 16.2653L19.4908 17.1404L19.6897 17.4434L20.4686 16.5682C20.4023 16.4672 20.336 16.3831 20.2863 16.2989Z" fill="#91D0D0"/>
<path d="M22.3744 15.8276C22.1093 15.6425 21.8275 15.491 21.5624 15.39C21.2806 15.289 20.9989 15.2386 20.7835 15.2554C20.7006 15.2554 20.6177 15.289 20.5514 15.3059C20.5017 15.3395 20.452 15.3732 20.4023 15.4069C20.2863 15.5415 20.2863 15.794 20.4023 16.0632L20.3029 16.0801L20.4023 16.0464C20.4189 16.0969 20.452 16.1642 20.4852 16.2147C20.5349 16.2989 20.6012 16.3998 20.684 16.5008L21.0486 16.8711C21.1315 16.9552 21.1978 17.0057 21.2806 17.0731C21.3469 17.1235 21.3966 17.1572 21.4629 17.1909L21.9435 17.4433C22.1258 17.5275 22.3081 17.578 22.4739 17.6116L22.4573 17.6958L22.4739 17.6116C22.6893 17.6453 23.0539 17.6789 23.2362 17.477C23.5511 17.1404 23.1368 16.383 22.3744 15.8276Z" fill="#91D0D0"/>
<path d="M20.601 16.7025L19.8055 17.5945C19.8718 17.6787 19.9547 17.7628 20.0541 17.847L20.8496 16.955C20.7502 16.8708 20.6673 16.7867 20.601 16.7025Z" fill="#91D0D0"/>
<path d="M20.104 15.7433L19.4908 16.4502C19.3914 16.568 19.3583 16.7363 19.408 16.9382L20.1703 16.0631C20.1372 15.9452 20.1206 15.8443 20.104 15.7433Z" fill="#91D0D0"/>
<path d="M29.6166 36.7306L28.3074 28.0293C28.3074 28.0293 29.368 27.8947 32.9311 27.8105C36.4942 27.8947 37.5548 28.0293 37.5548 28.0293L36.2456 36.7306H36.9416L38.4 26.5651C38.4 26.4977 35.9473 26.4304 32.9311 26.4304C29.9149 26.4304 27.4622 26.4809 27.4622 26.5651L28.9205 36.7306H29.6166ZM29.4509 26.8512C29.9149 26.8848 30.4618 26.8848 31.0584 26.9017C31.6384 26.9185 32.2682 26.9353 32.8979 26.9185C33.5277 26.9185 34.1574 26.9185 34.7375 26.9017C35.3175 26.8848 35.881 26.868 36.345 26.8512C36.809 26.8343 37.2068 26.8007 37.4885 26.7839C37.7703 26.767 37.9194 26.767 37.9194 26.767C37.9194 26.767 37.7703 26.7839 37.4885 26.8343C37.2234 26.868 36.8256 26.9353 36.3616 26.969C36.1296 26.9858 35.8644 27.0195 35.5993 27.0363C35.3341 27.0531 35.0524 27.0868 34.7541 27.0868C34.1574 27.1205 33.5277 27.1373 32.8979 27.1373C32.2682 27.1373 31.6384 27.1205 31.0418 27.0868C30.4452 27.0531 29.8983 27.0195 29.4343 26.969C28.4897 26.868 27.8765 26.767 27.8765 26.767C27.8765 26.767 28.5062 26.8007 29.4509 26.8512Z" fill="#91D0D0"/>
<path d="M36.6931 28.2145C36.4611 28.2313 36.1296 28.2481 35.7485 28.2818C35.3507 28.3154 34.8867 28.3154 34.4061 28.3491C33.9089 28.3659 33.3952 28.3828 32.8648 28.3828C32.3345 28.3828 31.8208 28.3828 31.3236 28.3659C30.8264 28.3491 30.379 28.3323 29.9812 28.2986C29.1857 28.2481 28.672 28.1976 28.672 28.1976C28.672 28.1976 29.1857 28.3154 29.9647 28.3996C30.3624 28.4501 30.8098 28.5006 31.307 28.5174C31.8042 28.5511 32.3345 28.5511 32.8648 28.5679C33.3952 28.5679 33.9255 28.5511 34.4227 28.5174C34.6712 28.5006 34.9033 28.4837 35.1353 28.4669C35.3673 28.4501 35.5662 28.4164 35.765 28.3996C36.1628 28.3659 36.4776 28.2986 36.7097 28.265C36.9417 28.2313 37.0577 28.1976 37.0577 28.1976C37.0577 28.1976 36.9251 28.1976 36.6931 28.2145Z" fill="#91D0D0"/>
<path d="M17.8335 36.7308L12 35.7883V34.7112L17.8169 35.7042L17.8335 36.7308Z" fill="#91D0D0"/>
</g>
<path d="M8.90384 61H10.7398C12.1018 61 13.0318 60.16 13.0318 58.9C13.0318 57.64 12.1018 56.8 10.7398 56.8H8.90384V61ZM9.68384 60.34V57.46H10.7038C11.6398 57.46 12.2458 58.03 12.2458 58.9C12.2458 59.77 11.6398 60.34 10.7038 60.34H9.68384ZM15.0129 57.76C14.4969 57.76 13.9989 57.892 13.6569 58.156L13.9509 58.702C14.1909 58.504 14.5629 58.384 14.9229 58.384C15.4569 58.384 15.7209 58.642 15.7209 59.08V59.128H14.8929C13.9209 59.128 13.5609 59.548 13.5609 60.082C13.5609 60.64 14.0229 61.042 14.7549 61.042C15.2349 61.042 15.5829 60.886 15.7629 60.61V61H16.4709V59.122C16.4709 58.198 15.9369 57.76 15.0129 57.76ZM14.9109 60.496C14.5269 60.496 14.2989 60.322 14.2989 60.052C14.2989 59.818 14.4369 59.626 14.9469 59.626H15.7209V59.998C15.5949 60.328 15.2769 60.496 14.9109 60.496ZM17.8114 57.268C18.0934 57.268 18.2914 57.064 18.2914 56.8C18.2914 56.554 18.0874 56.368 17.8114 56.368C17.5354 56.368 17.3314 56.566 17.3314 56.818C17.3314 57.07 17.5354 57.268 17.8114 57.268ZM17.4334 61H18.1834V57.796H17.4334V61ZM19.8818 58.264V57.796H19.1678V61H19.9178V59.446C19.9178 58.792 20.2778 58.456 20.8478 58.456C20.9018 58.456 20.9558 58.462 21.0218 58.474V57.76C20.4878 57.76 20.0978 57.928 19.8818 58.264ZM24.0552 57.796L23.0412 60.166L22.0332 57.796H21.2532L22.6512 61.012L22.5972 61.138C22.4532 61.456 22.2972 61.582 22.0332 61.582C21.8292 61.582 21.6252 61.498 21.4812 61.36L21.1812 61.912C21.3852 62.098 21.7212 62.206 22.0392 62.206C22.5732 62.206 22.9812 61.984 23.2752 61.258L24.7752 57.796H24.0552ZM24.9941 59.644H26.6441V59.02H24.9941V59.644ZM30.6027 57.454V56.8H27.5367V61H28.3167V59.392H30.3447V58.732H28.3167V57.454H30.6027ZM31.9404 58.264V57.796H31.2264V61H31.9764V59.446C31.9764 58.792 32.3364 58.456 32.9064 58.456C32.9604 58.456 33.0144 58.462 33.0804 58.474V57.76C32.5464 57.76 32.1564 57.928 31.9404 58.264ZM36.6993 59.416C36.6993 58.414 36.0153 57.76 35.0793 57.76C34.1253 57.76 33.4233 58.444 33.4233 59.398C33.4233 60.352 34.1193 61.042 35.1933 61.042C35.7453 61.042 36.1953 60.862 36.4833 60.52L36.0813 60.058C35.8533 60.292 35.5713 60.406 35.2113 60.406C34.6533 60.406 34.2633 60.106 34.1733 59.638H36.6873C36.6933 59.566 36.6993 59.476 36.6993 59.416ZM35.0793 58.36C35.5713 58.36 35.9253 58.678 35.9853 59.14H34.1673C34.2393 58.672 34.5933 58.36 35.0793 58.36ZM40.4317 59.416C40.4317 58.414 39.7477 57.76 38.8117 57.76C37.8577 57.76 37.1557 58.444 37.1557 59.398C37.1557 60.352 37.8517 61.042 38.9257 61.042C39.4777 61.042 39.9277 60.862 40.2157 60.52L39.8137 60.058C39.5857 60.292 39.3037 60.406 38.9437 60.406C38.3857 60.406 37.9957 60.106 37.9057 59.638H40.4197C40.4257 59.566 40.4317 59.476 40.4317 59.416ZM38.8117 58.36C39.3037 58.36 39.6577 58.678 39.7177 59.14H37.8997C37.9717 58.672 38.3257 58.36 38.8117 58.36Z" fill="#91D0D0"/>
<circle cx="85" cy="25" r="24.5" stroke="#DE98C3"/>
<path d="M71.6848 60.346V59.188H73.7128V58.546H71.6848V57.454H73.9708V56.8H70.9048V61H74.0548V60.346H71.6848ZM77.2891 57.796V58.222C77.0251 57.904 76.6291 57.76 76.1791 57.76C75.2611 57.76 74.5591 58.372 74.5591 59.302C74.5591 60.232 75.2611 60.856 76.1791 60.856C76.6111 60.856 76.9891 60.718 77.2531 60.43V60.598C77.2531 61.246 76.9411 61.57 76.2331 61.57C75.7891 61.57 75.3331 61.42 75.0511 61.186L74.7151 61.75C75.0811 62.05 75.6751 62.206 76.2751 62.206C77.3971 62.206 78.0031 61.678 78.0031 60.514V57.796H77.2891ZM76.2931 60.22C75.7231 60.22 75.3151 59.848 75.3151 59.302C75.3151 58.762 75.7231 58.396 76.2931 58.396C76.8571 58.396 77.2651 58.762 77.2651 59.302C77.2651 59.848 76.8571 60.22 76.2931 60.22ZM81.4551 57.796V58.222C81.1911 57.904 80.7951 57.76 80.3451 57.76C79.4271 57.76 78.7251 58.372 78.7251 59.302C78.7251 60.232 79.4271 60.856 80.3451 60.856C80.7771 60.856 81.1551 60.718 81.4191 60.43V60.598C81.4191 61.246 81.1071 61.57 80.3991 61.57C79.9551 61.57 79.4991 61.42 79.2171 61.186L78.8811 61.75C79.2471 62.05 79.8411 62.206 80.4411 62.206C81.5631 62.206 82.1691 61.678 82.1691 60.514V57.796H81.4551ZM80.4591 60.22C79.8891 60.22 79.4811 59.848 79.4811 59.302C79.4811 58.762 79.8891 58.396 80.4591 58.396C81.0231 58.396 81.4311 58.762 81.4311 59.302C81.4311 59.848 81.0231 60.22 80.4591 60.22ZM82.9931 59.644H84.6431V59.02H82.9931V59.644ZM88.6017 57.454V56.8H85.5357V61H86.3157V59.392H88.3437V58.732H86.3157V57.454H88.6017ZM89.9394 58.264V57.796H89.2254V61H89.9754V59.446C89.9754 58.792 90.3354 58.456 90.9054 58.456C90.9594 58.456 91.0134 58.462 91.0794 58.474V57.76C90.5454 57.76 90.1554 57.928 89.9394 58.264ZM94.6983 59.416C94.6983 58.414 94.0143 57.76 93.0783 57.76C92.1243 57.76 91.4223 58.444 91.4223 59.398C91.4223 60.352 92.1183 61.042 93.1923 61.042C93.7443 61.042 94.1943 60.862 94.4823 60.52L94.0803 60.058C93.8523 60.292 93.5703 60.406 93.2103 60.406C92.6523 60.406 92.2623 60.106 92.1723 59.638H94.6863C94.6923 59.566 94.6983 59.476 94.6983 59.416ZM93.0783 58.36C93.5703 58.36 93.9243 58.678 93.9843 59.14H92.1663C92.2383 58.672 92.5923 58.36 93.0783 58.36ZM98.4308 59.416C98.4308 58.414 97.7468 57.76 96.8108 57.76C95.8568 57.76 95.1548 58.444 95.1548 59.398C95.1548 60.352 95.8508 61.042 96.9248 61.042C97.4768 61.042 97.9268 60.862 98.2148 60.52L97.8128 60.058C97.5848 60.292 97.3028 60.406 96.9428 60.406C96.3848 60.406 95.9948 60.106 95.9048 59.638H98.4188C98.4248 59.566 98.4308 59.476 98.4308 59.416ZM96.8108 58.36C97.3028 58.36 97.6568 58.678 97.7168 59.14H95.8988C95.9708 58.672 96.3248 58.36 96.8108 58.36Z" fill="#DE98C3"/>
<g clip-path="url(#clip1_115:3186)">
<path d="M94.1243 30.3862C97.6002 26.4009 97.9841 20.759 94.9819 17.7846C91.9796 14.8103 86.7281 15.6299 83.2522 19.6152C79.7764 23.6006 79.3924 29.2425 82.3947 32.2168C85.3969 35.1911 90.6484 34.3715 94.1243 30.3862Z" fill="#DE98C3"/>
<path fill-rule="evenodd" clip-rule="evenodd" d="M94.9258 21.1788C94.8666 25.1262 93.6073 26.1683 91.6073 27.5578C93.0888 25.9946 94.348 24.1157 94.9258 21.1788Z" fill="#F6F6F6"/>
<path d="M78.0117 31.2407C79.5921 30.4375 80.1139 28.0891 79.1772 25.9955C78.2405 23.9018 76.1999 22.8557 74.6195 23.6589C73.0391 24.462 72.5173 26.8104 73.454 28.9041C74.3908 30.9977 76.4313 32.0439 78.0117 31.2407Z" fill="#DE98C3"/>
<path fill-rule="evenodd" clip-rule="evenodd" d="M75.874 24.2104C77.3407 24.8578 77.5333 25.5526 77.7407 26.6262C77.3851 25.7578 76.8814 24.921 75.874 24.2104Z" fill="#F6F6F6"/>
</g>
<circle cx="145" cy="25" r="24.5" stroke="#23ABB5"/>
<g clip-path="url(#clip2_115:3186)">
<path d="M156.908 37.0001H148.937L148.854 36.2595H157.008L156.908 37.0001Z" fill="#23ABB5"/>
<path d="M132.63 35.7209V20.2034H137.817V36.7307H138.132H138.463H146.285V19.9509L143.22 15.4909C143.253 15.4741 143.269 15.4741 143.286 15.4572C143.352 15.4067 143.385 15.3394 143.385 15.2721V13.9425C143.385 13.8079 143.269 13.7069 143.104 13.69L135.149 13C135.066 13 134.966 13.0168 134.9 13.0673C134.834 13.1178 134.801 13.1851 134.801 13.2525V14.5316L132.033 19.8499C132.017 19.8836 132 19.9173 132 19.9509V35.7882L132.282 35.6704L132.63 35.7209ZM142.756 14.9691L135.431 14.3464V13.5386L142.756 14.1781V14.9691ZM135.132 15.2216L137.651 19.6985H132.795L135.132 15.2216ZM143.418 17.5778L142.49 18.6213C142.358 18.7896 142.142 18.8569 141.861 18.8569C141.761 18.8569 141.645 18.8401 141.513 18.8233C141.314 18.7896 141.115 18.7223 140.916 18.6381C140.75 18.5708 140.585 18.4867 140.419 18.3689C140.353 18.3352 140.286 18.2847 140.22 18.2342C140.137 18.1837 140.054 18.1164 139.988 18.0491C139.822 17.9144 139.69 17.7798 139.59 17.6452C139.474 17.5105 139.375 17.3759 139.308 17.2412C139.292 17.2244 139.292 17.2076 139.275 17.1739V17.1571L139.375 17.1234L139.275 17.1571C139.126 16.8205 139.143 16.5512 139.308 16.3492L140.237 15.3058L140.319 15.3562L140.237 15.3058C140.253 15.2889 140.253 15.2889 140.27 15.2721C140.386 15.1543 140.551 15.087 140.767 15.0701C140.817 15.0701 140.883 15.0701 140.933 15.0701C140.982 15.0701 141.032 15.0701 141.098 15.087C141.413 15.1206 141.761 15.2384 142.109 15.4404C142.242 15.5245 142.391 15.6087 142.524 15.6928C143.385 16.3324 143.8 17.1571 143.418 17.5778Z" fill="#23ABB5"/>
<path d="M141.43 17.3757L140.634 18.2846C140.734 18.3519 140.85 18.4024 140.949 18.4529L141.745 17.544C141.629 17.4935 141.529 17.4431 141.43 17.3757Z" fill="#23ABB5"/>
<path d="M142.507 17.7966L141.712 18.6886C141.91 18.7055 142.176 18.6886 142.325 18.5372L142.971 17.8135C142.905 17.8135 142.839 17.8135 142.772 17.8135C142.689 17.8135 142.607 17.8135 142.507 17.7966Z" fill="#23ABB5"/>
<path d="M141.927 17.6284L141.131 18.5204L141.496 18.6382L142.292 17.7462C142.176 17.7126 142.06 17.6789 141.927 17.6284Z" fill="#23ABB5"/>
<path d="M141.148 17.2075C141.098 17.1739 141.032 17.1234 140.982 17.0729L140.187 17.9649L140.469 18.1668L141.264 17.2748C141.231 17.258 141.181 17.2243 141.148 17.2075Z" fill="#23ABB5"/>
<path d="M140.286 16.2989C140.286 16.2821 140.27 16.2653 140.27 16.2653L139.491 17.1404L139.69 17.4434L140.469 16.5682C140.402 16.4672 140.336 16.3831 140.286 16.2989Z" fill="#23ABB5"/>
<path d="M142.374 15.8276C142.109 15.6425 141.827 15.491 141.562 15.39C141.281 15.289 140.999 15.2386 140.783 15.2554C140.701 15.2554 140.618 15.289 140.551 15.3059C140.502 15.3395 140.452 15.3732 140.402 15.4069C140.286 15.5415 140.286 15.794 140.402 16.0632L140.303 16.0801L140.402 16.0464C140.419 16.0969 140.452 16.1642 140.485 16.2147C140.535 16.2989 140.601 16.3998 140.684 16.5008L141.049 16.8711C141.131 16.9552 141.198 17.0057 141.281 17.0731C141.347 17.1235 141.397 17.1572 141.463 17.1909L141.943 17.4433C142.126 17.5275 142.308 17.578 142.474 17.6116L142.457 17.6958L142.474 17.6116C142.689 17.6453 143.054 17.6789 143.236 17.477C143.551 17.1404 143.137 16.383 142.374 15.8276Z" fill="#23ABB5"/>
<path d="M140.601 16.7025L139.806 17.5945C139.872 17.6787 139.955 17.7628 140.054 17.847L140.85 16.955C140.75 16.8708 140.667 16.7867 140.601 16.7025Z" fill="#23ABB5"/>
<path d="M140.104 15.7433L139.491 16.4502C139.391 16.568 139.358 16.7363 139.408 16.9382L140.17 16.0631C140.137 15.9452 140.121 15.8443 140.104 15.7433Z" fill="#23ABB5"/>
<path d="M149.617 36.7306L148.307 28.0293C148.307 28.0293 149.368 27.8947 152.931 27.8105C156.494 27.8947 157.555 28.0293 157.555 28.0293L156.246 36.7306H156.942L158.4 26.5651C158.4 26.4977 155.947 26.4304 152.931 26.4304C149.915 26.4304 147.462 26.4809 147.462 26.5651L148.921 36.7306H149.617ZM149.451 26.8512C149.915 26.8848 150.462 26.8848 151.058 26.9017C151.638 26.9185 152.268 26.9353 152.898 26.9185C153.528 26.9185 154.158 26.9185 154.738 26.9017C155.318 26.8848 155.881 26.868 156.345 26.8512C156.809 26.8343 157.207 26.8007 157.489 26.7839C157.77 26.767 157.919 26.767 157.919 26.767C157.919 26.767 157.77 26.7839 157.489 26.8343C157.223 26.868 156.826 26.9353 156.362 26.969C156.13 26.9858 155.864 27.0195 155.599 27.0363C155.334 27.0531 155.052 27.0868 154.754 27.0868C154.158 27.1205 153.528 27.1373 152.898 27.1373C152.268 27.1373 151.638 27.1205 151.042 27.0868C150.445 27.0531 149.898 27.0195 149.434 26.969C148.49 26.868 147.877 26.767 147.877 26.767C147.877 26.767 148.506 26.8007 149.451 26.8512Z" fill="#23ABB5"/>
<path d="M156.693 28.2145C156.461 28.2313 156.13 28.2481 155.748 28.2818C155.351 28.3154 154.887 28.3154 154.406 28.3491C153.909 28.3659 153.395 28.3828 152.865 28.3828C152.335 28.3828 151.821 28.3828 151.324 28.3659C150.826 28.3491 150.379 28.3323 149.981 28.2986C149.186 28.2481 148.672 28.1976 148.672 28.1976C148.672 28.1976 149.186 28.3154 149.965 28.3996C150.362 28.4501 150.81 28.5006 151.307 28.5174C151.804 28.5511 152.335 28.5511 152.865 28.5679C153.395 28.5679 153.925 28.5511 154.423 28.5174C154.671 28.5006 154.903 28.4837 155.135 28.4669C155.367 28.4501 155.566 28.4164 155.765 28.3996C156.163 28.3659 156.478 28.2986 156.71 28.265C156.942 28.2313 157.058 28.1976 157.058 28.1976C157.058 28.1976 156.925 28.1976 156.693 28.2145Z" fill="#23ABB5"/>
<path d="M137.834 36.7308L132 35.7883V34.7112L137.817 35.7042L137.834 36.7308Z" fill="#23ABB5"/>
</g>
<path d="M120.619 61H123.595V60.34H121.399V56.8H120.619V61ZM125.392 57.76C124.876 57.76 124.378 57.892 124.036 58.156L124.33 58.702C124.57 58.504 124.942 58.384 125.302 58.384C125.836 58.384 126.1 58.642 126.1 59.08V59.128H125.272C124.3 59.128 123.94 59.548 123.94 60.082C123.94 60.64 124.402 61.042 125.134 61.042C125.614 61.042 125.962 60.886 126.142 60.61V61H126.85V59.122C126.85 58.198 126.316 57.76 125.392 57.76ZM125.29 60.496C124.906 60.496 124.678 60.322 124.678 60.052C124.678 59.818 124.816 59.626 125.326 59.626H126.1V59.998C125.974 60.328 125.656 60.496 125.29 60.496ZM129.312 61.042C129.936 61.042 130.434 60.772 130.68 60.292L130.104 59.956C129.912 60.262 129.624 60.4 129.306 60.4C128.754 60.4 128.334 60.022 128.334 59.398C128.334 58.78 128.754 58.396 129.306 58.396C129.624 58.396 129.912 58.534 130.104 58.84L130.68 58.504C130.434 58.018 129.936 57.76 129.312 57.76C128.298 57.76 127.578 58.438 127.578 59.398C127.578 60.358 128.298 61.042 129.312 61.042ZM133.085 60.292C132.971 60.382 132.821 60.424 132.665 60.424C132.377 60.424 132.221 60.256 132.221 59.944V58.42H133.079V57.82H132.221V57.088H131.471V57.82H130.943V58.42H131.471V59.962C131.471 60.67 131.873 61.042 132.575 61.042C132.845 61.042 133.115 60.97 133.295 60.826L133.085 60.292ZM135.246 61.042C136.242 61.042 136.956 60.358 136.956 59.398C136.956 58.438 136.242 57.76 135.246 57.76C134.262 57.76 133.542 58.438 133.542 59.398C133.542 60.358 134.262 61.042 135.246 61.042ZM135.246 60.4C134.706 60.4 134.298 60.01 134.298 59.398C134.298 58.786 134.706 58.396 135.246 58.396C135.792 58.396 136.2 58.786 136.2 59.398C136.2 60.01 135.792 60.4 135.246 60.4ZM142.464 56.8L141.054 60.04L139.656 56.8H138.81L140.646 61H141.414L143.244 56.8H142.464ZM146.387 59.416C146.387 58.414 145.703 57.76 144.767 57.76C143.813 57.76 143.111 58.444 143.111 59.398C143.111 60.352 143.807 61.042 144.881 61.042C145.433 61.042 145.883 60.862 146.171 60.52L145.769 60.058C145.541 60.292 145.259 60.406 144.899 60.406C144.341 60.406 143.951 60.106 143.861 59.638H146.375C146.381 59.566 146.387 59.476 146.387 59.416ZM144.767 58.36C145.259 58.36 145.613 58.678 145.673 59.14H143.855C143.927 58.672 144.281 58.36 144.767 58.36ZM149.573 57.796V58.222C149.309 57.904 148.913 57.76 148.463 57.76C147.545 57.76 146.843 58.372 146.843 59.302C146.843 60.232 147.545 60.856 148.463 60.856C148.895 60.856 149.273 60.718 149.537 60.43V60.598C149.537 61.246 149.225 61.57 148.517 61.57C148.073 61.57 147.617 61.42 147.335 61.186L146.999 61.75C147.365 62.05 147.959 62.206 148.559 62.206C149.681 62.206 150.287 61.678 150.287 60.514V57.796H149.573ZM148.577 60.22C148.007 60.22 147.599 59.848 147.599 59.302C147.599 58.762 148.007 58.396 148.577 58.396C149.141 58.396 149.549 58.762 149.549 59.302C149.549 59.848 149.141 60.22 148.577 60.22ZM152.989 60.292C152.875 60.382 152.725 60.424 152.569 60.424C152.281 60.424 152.125 60.256 152.125 59.944V58.42H152.983V57.82H152.125V57.088H151.375V57.82H150.847V58.42H151.375V59.962C151.375 60.67 151.777 61.042 152.479 61.042C152.749 61.042 153.019 60.97 153.199 60.826L152.989 60.292ZM155.04 57.76C154.524 57.76 154.026 57.892 153.684 58.156L153.978 58.702C154.218 58.504 154.59 58.384 154.95 58.384C155.484 58.384 155.748 58.642 155.748 59.08V59.128H154.92C153.948 59.128 153.588 59.548 153.588 60.082C153.588 60.64 154.05 61.042 154.782 61.042C155.262 61.042 155.61 60.886 155.79 60.61V61H156.498V59.122C156.498 58.198 155.964 57.76 155.04 57.76ZM154.938 60.496C154.554 60.496 154.326 60.322 154.326 60.052C154.326 59.818 154.464 59.626 154.974 59.626H155.748V59.998C155.622 60.328 155.304 60.496 154.938 60.496ZM158.175 58.264V57.796H157.461V61H158.211V59.446C158.211 58.792 158.571 58.456 159.141 58.456C159.195 58.456 159.249 58.462 159.315 58.474V57.76C158.781 57.76 158.391 57.928 158.175 58.264ZM160.329 57.268C160.611 57.268 160.809 57.064 160.809 56.8C160.809 56.554 160.605 56.368 160.329 56.368C160.053 56.368 159.849 56.566 159.849 56.818C159.849 57.07 160.053 57.268 160.329 57.268ZM159.951 61H160.701V57.796H159.951V61ZM162.909 57.76C162.393 57.76 161.895 57.892 161.553 58.156L161.847 58.702C162.087 58.504 162.459 58.384 162.819 58.384C163.353 58.384 163.617 58.642 163.617 59.08V59.128H162.789C161.817 59.128 161.457 59.548 161.457 60.082C161.457 60.64 161.919 61.042 162.651 61.042C163.131 61.042 163.479 60.886 163.659 60.61V61H164.367V59.122C164.367 58.198 163.833 57.76 162.909 57.76ZM162.807 60.496C162.423 60.496 162.195 60.322 162.195 60.052C162.195 59.818 162.333 59.626 162.843 59.626H163.617V59.998C163.491 60.328 163.173 60.496 162.807 60.496ZM167.148 57.76C166.68 57.76 166.29 57.916 166.044 58.21V57.796H165.33V61H166.08V59.38C166.08 58.738 166.44 58.414 166.974 58.414C167.454 58.414 167.736 58.69 167.736 59.26V61H168.486V59.164C168.486 58.198 167.916 57.76 167.148 57.76Z" fill="#23ABB5"/>
<circle cx="205" cy="25" r="24.5" stroke="#F8CD7E"/>
<path d="M196.684 58.816C197.008 58.642 197.224 58.324 197.224 57.892C197.224 57.226 196.684 56.8 195.676 56.8H193.708V61H195.796C196.876 61 197.44 60.58 197.44 59.86C197.44 59.314 197.134 58.96 196.684 58.816ZM195.592 57.412C196.132 57.412 196.438 57.604 196.438 57.994C196.438 58.378 196.132 58.57 195.592 58.57H194.488V57.412H195.592ZM195.748 60.388H194.488V59.176H195.748C196.336 59.176 196.654 59.362 196.654 59.782C196.654 60.202 196.336 60.388 195.748 60.388ZM199.424 57.76C198.908 57.76 198.41 57.892 198.068 58.156L198.362 58.702C198.602 58.504 198.974 58.384 199.334 58.384C199.868 58.384 200.132 58.642 200.132 59.08V59.128H199.304C198.332 59.128 197.972 59.548 197.972 60.082C197.972 60.64 198.434 61.042 199.166 61.042C199.646 61.042 199.994 60.886 200.174 60.61V61H200.882V59.122C200.882 58.198 200.348 57.76 199.424 57.76ZM199.322 60.496C198.938 60.496 198.71 60.322 198.71 60.052C198.71 59.818 198.848 59.626 199.358 59.626H200.132V59.998C200.006 60.328 199.688 60.496 199.322 60.496ZM203.663 57.76C203.195 57.76 202.805 57.916 202.559 58.21V57.796H201.845V61H202.595V59.38C202.595 58.738 202.955 58.414 203.489 58.414C203.969 58.414 204.251 58.69 204.251 59.26V61H205.001V59.164C205.001 58.198 204.431 57.76 203.663 57.76ZM207.176 57.76C206.66 57.76 206.162 57.892 205.82 58.156L206.114 58.702C206.354 58.504 206.726 58.384 207.086 58.384C207.62 58.384 207.884 58.642 207.884 59.08V59.128H207.056C206.084 59.128 205.724 59.548 205.724 60.082C205.724 60.64 206.186 61.042 206.918 61.042C207.398 61.042 207.746 60.886 207.926 60.61V61H208.634V59.122C208.634 58.198 208.1 57.76 207.176 57.76ZM207.074 60.496C206.69 60.496 206.462 60.322 206.462 60.052C206.462 59.818 206.6 59.626 207.11 59.626H207.884V59.998C207.758 60.328 207.44 60.496 207.074 60.496ZM211.414 57.76C210.946 57.76 210.556 57.916 210.31 58.21V57.796H209.596V61H210.346V59.38C210.346 58.738 210.706 58.414 211.24 58.414C211.72 58.414 212.002 58.69 212.002 59.26V61H212.752V59.164C212.752 58.198 212.182 57.76 211.414 57.76ZM214.928 57.76C214.412 57.76 213.914 57.892 213.572 58.156L213.866 58.702C214.106 58.504 214.478 58.384 214.838 58.384C215.372 58.384 215.636 58.642 215.636 59.08V59.128H214.808C213.836 59.128 213.476 59.548 213.476 60.082C213.476 60.64 213.938 61.042 214.67 61.042C215.15 61.042 215.498 60.886 215.678 60.61V61H216.386V59.122C216.386 58.198 215.852 57.76 214.928 57.76ZM214.826 60.496C214.442 60.496 214.214 60.322 214.214 60.052C214.214 59.818 214.352 59.626 214.862 59.626H215.636V59.998C215.51 60.328 215.192 60.496 214.826 60.496Z" fill="#F8CD7E"/>
<path d="M213.837 18.0576L213.744 18.0761C213.706 17.2264 213.576 14.6771 213.053 13.5133C212.399 12.1093 211.577 14.0305 211.577 14.0305C211.577 14.0305 212.343 16.1734 212.399 18.2793L212.138 18.3163C210.046 32.8729 195.386 33.9813 195.386 33.9813C194.844 34.4062 194.303 34.2954 194.303 34.2954C193.724 34.8311 194.153 35.5515 194.153 35.5515L194.919 35.8102C194.994 36.1796 195.367 36.2904 195.367 36.2904C199.065 37.7129 203.08 36.9185 203.08 36.9185C217.815 33.187 215.873 23.1008 213.837 18.0576Z" fill="#F8CD7D"/>
<path d="M210.98 19.8307L210.924 19.8123C211.148 19.332 211.802 17.9095 211.839 17.1337C211.877 16.1916 210.887 17.0044 210.887 17.0044C210.887 17.0044 210.7 18.3898 210.14 19.5536L209.991 19.4982C204.724 26.8689 196.414 23.4145 196.414 23.4145C195.984 23.4884 195.723 23.2852 195.723 23.2852C195.274 23.4145 195.293 23.9317 195.293 23.9317L195.629 24.2827C195.573 24.5044 195.741 24.6706 195.741 24.6706C197.366 26.4625 199.775 27.146 199.775 27.146C208.87 29.1781 210.663 23.1374 210.98 19.8307Z" fill="#F8CD7D"/>
<defs>
<clipPath id="clip0_115:3186">
<rect width="26.4" height="24" fill="white" transform="translate(12 13)"/>
</clipPath>
<clipPath id="clip1_115:3186">
<rect width="24" height="18" fill="white" transform="translate(73 16)"/>
</clipPath>
<clipPath id="clip2_115:3186">
<rect width="26.4" height="24" fill="white" transform="translate(132 13)"/>
</clipPath>
</defs>
</svg>
