<svg width="30" height="30" viewBox="0 0 30 30" fill="none" xmlns="http://www.w3.org/2000/svg">
<path d="M21.7431 9.73023C21.7431 9.63462 21.7017 9.55266 21.6189 9.49803C21.5361 9.44339 21.4258 9.41608 21.3292 9.44339L21.2326 9.45705L9.63023 8.25507C9.63023 8.25507 7.69881 8.03653 7.28493 10.4678C7.28493 10.4678 6.82966 15.8767 7.0366 17.3928C7.0366 17.3928 7.10558 20.0017 9.4233 21.3129C9.65783 21.4905 9.96134 21.6271 10.32 21.709C10.3476 21.7227 10.389 21.7363 10.4166 21.7363C10.4166 21.7363 10.4028 21.7227 10.3752 21.709C10.5132 21.7363 10.6787 21.75 10.8443 21.75C11.0236 21.75 11.2168 21.7363 11.4375 21.6954L21.5637 19.346C21.7155 19.3051 21.8258 19.1821 21.8258 19.0456L21.7431 9.73023ZM11.2857 21.0944C11.134 21.1217 10.9822 21.1354 10.8443 21.1354C9.7406 21.1354 9.36811 20.2748 9.31293 20.1246C9.11979 18.4309 9.31293 14.7977 9.31293 14.743C9.38191 12.2844 11.5203 11.9976 11.6031 11.9839C11.6168 11.9839 11.6168 11.9839 11.6306 11.9839L21.0533 10.1127L21.136 18.7997L11.2857 21.0944Z" fill="#C7C4C4"/>
<path d="M13.1619 13.6912C12.5825 13.6912 12.1134 14.1146 12.1134 14.62C12.1134 15.139 12.5825 15.5488 13.1619 15.5488C13.7413 15.5488 14.2104 15.1253 14.2104 14.62C14.2104 14.1146 13.7413 13.6912 13.1619 13.6912Z" fill="#C7C4C4"/>
<path d="M12.3618 17.53C12.0031 17.53 11.7134 17.7895 11.7134 18.1174C11.7134 18.4452 12.0031 18.7047 12.3618 18.7047C12.7205 18.7047 13.0102 18.4452 13.0102 18.1174C13.024 17.7895 12.7205 17.53 12.3618 17.53Z" fill="#C7C4C4"/>
<path d="M19.1493 11.8748C18.7906 11.8748 18.5009 12.1343 18.5009 12.4621C18.5009 12.7899 18.7906 13.0494 19.1493 13.0494C19.508 13.0494 19.7977 12.7899 19.7977 12.4621C19.7977 12.1343 19.508 11.8748 19.1493 11.8748Z" fill="#C7C4C4"/>
<path d="M17.5076 15.563C16.6108 15.563 15.8934 16.205 15.8934 17.0108C15.8934 17.803 16.6108 18.4587 17.5076 18.4587C18.4043 18.4587 19.1217 17.803 19.1217 16.9972C19.1217 16.205 18.4043 15.563 17.5076 15.563Z" fill="#C7C4C4"/>
<circle cx="15" cy="15" r="14" stroke="#C7C4C4" stroke-width="2"/>
</svg>
