<svg width="32" height="36" viewBox="0 0 32 36" fill="none" xmlns="http://www.w3.org/2000/svg">
<g clip-path="url(#clip0_1:4692)">
<path d="M28.962 33.2911C28.962 34.0253 28.4304 34.6076 27.7975 34.6076L23.1646 36H5.34177L1.16456 34.6076C0.531646 34.6076 0 34 0 33.2911C0 32.5823 0.531646 31.9747 1.16456 31.9747H27.7975C28.4304 31.9747 28.962 32.557 28.962 33.2911ZM31.1392 19.1139C31.1392 23.1139 29.1646 26.2532 26.6582 26.2532C26.4557 26.2532 26.2532 26.2278 26.0759 26.2025C24.9367 29.2405 22.2532 31.3671 19.1392 31.3671H9.26582C5.11392 31.3671 1.72152 27.5949 1.72152 22.9114V12.5823C1.72152 12.1266 1.74684 11.6962 1.82278 11.2658H26.5823C26.6076 11.4937 26.6329 11.7215 26.6582 11.9747H26.6835C29.1646 11.9747 31.1392 15.1139 31.1392 19.1139ZM9.62025 28.6582L9.56962 27.8228C8.07595 27.9494 6.91139 27.4937 6.02532 26.4304C3.18987 22.9114 4.53165 14.1772 4.55696 14.0759L3.79747 13.9494C3.74684 14.3291 2.35443 23.1899 5.44304 26.9873C6.35443 28.1266 7.56962 28.6835 9.03797 28.6835C9.24051 28.6835 9.41772 28.6835 9.62025 28.6582ZM29.6203 19.1139C29.6203 16.1519 28.2532 13.6709 26.6582 13.6709V22.9114C26.6582 23.4684 26.6076 24.0253 26.5063 24.5316C26.557 24.5316 26.6076 24.557 26.6582 24.557C28.2785 24.557 29.6203 22.0506 29.6203 19.1139ZM12.7089 7.97468C12.7342 8.07595 12.7595 8.17721 12.7848 8.27848C12.8608 8.4557 12.9367 8.60759 13.038 8.75949C13.1139 8.88608 13.2152 8.98734 13.2658 9.08861C13.4177 9.24051 13.519 9.31646 13.519 9.31646C13.519 9.31646 13.4937 9.16456 13.4937 8.96202C13.4937 8.75949 13.4937 8.4557 13.519 8.1519C13.5443 8 13.5696 7.82278 13.5949 7.67089C13.6456 7.49367 13.6962 7.34177 13.7468 7.16456C13.7975 7.01266 13.8734 6.83544 13.9747 6.68354L14.0253 6.58228L14.0759 6.48101L14.1013 6.40506C14.1772 6.27848 14.2278 6.20253 14.2785 6.05063C14.3797 5.74684 14.4304 5.46835 14.4557 5.18987C14.481 4.91139 14.481 4.65823 14.4557 4.40506C14.4304 4.17722 14.4051 3.94937 14.3544 3.72152C14.3038 3.51899 14.2278 3.31646 14.1519 3.13924C14.0759 2.98734 14 2.83544 13.9494 2.68354C13.8734 2.55696 13.7975 2.4557 13.7215 2.37975C13.6709 2.27848 13.6203 2.22785 13.5696 2.17722C13.5443 2.12658 13.519 2.10127 13.519 2.10127C13.519 2.10127 13.519 2.22785 13.4937 2.4557C13.4937 2.65823 13.4684 2.96203 13.443 3.31646C13.4177 3.64557 13.3924 4.02532 13.3418 4.40506C13.3165 4.60759 13.2911 4.78481 13.2405 4.98734C13.2152 5.16456 13.1646 5.34177 13.1139 5.49367C13.1139 5.5443 13.038 5.67089 13.0127 5.77215L12.9873 5.8481V5.87342C12.9873 5.87342 13.0127 5.79747 13.0127 5.8481L12.962 5.89873L12.8861 6.07595C12.8354 6.20253 12.7848 6.32911 12.7595 6.4557C12.7089 6.58228 12.7089 6.70886 12.6835 6.86076C12.6329 7.11392 12.6329 7.39241 12.6582 7.62025C12.6835 7.74684 12.6835 7.8481 12.7089 7.97468ZM15.6203 5.8481C15.6456 5.94937 15.6709 6.07595 15.7215 6.1519C15.7722 6.35443 15.8481 6.50633 15.9494 6.63291C16.0253 6.75949 16.1266 6.86076 16.1772 6.96203C16.3291 7.11392 16.4304 7.18987 16.4304 7.18987C16.4304 7.18987 16.4051 7.06329 16.4051 6.83544C16.4051 6.63291 16.4051 6.32911 16.4304 6.02532C16.4557 5.87342 16.481 5.6962 16.5063 5.5443C16.557 5.39241 16.6076 5.21519 16.6582 5.06329C16.7089 4.91139 16.7848 4.73418 16.8861 4.58228L16.962 4.4557L17.0127 4.35443L17.038 4.27848C17.0886 4.17722 17.1392 4.10127 17.1899 3.92405C17.2911 3.62025 17.3418 3.36709 17.3671 3.08861C17.3924 2.81013 17.3924 2.55696 17.3671 2.3038C17.3418 2.05063 17.2911 1.82278 17.2405 1.62025C17.1899 1.41772 17.1392 1.21519 17.0633 1.03797C16.9873 0.860759 16.9114 0.708861 16.8354 0.582278C16.7848 0.455696 16.7089 0.35443 16.6329 0.253165C16.5823 0.177215 16.5316 0.101266 16.481 0.0759494C16.4557 0.0253165 16.4304 0 16.4304 0C16.4304 0 16.4304 0.126582 16.4051 0.35443C16.4051 0.556962 16.3797 0.860759 16.3544 1.21519C16.3291 1.5443 16.3038 1.92405 16.2532 2.3038C16.2278 2.50633 16.2025 2.68354 16.1519 2.86076C16.1013 3.03797 16.0759 3.24051 16.0253 3.36709C16.0253 3.41772 15.9494 3.5443 15.9241 3.64557L15.8734 3.74684V3.77215C15.8734 3.77215 15.8987 3.6962 15.8987 3.74684L15.8734 3.79747L15.7975 3.97468C15.7215 4.10127 15.6962 4.22785 15.6709 4.35443C15.6203 4.48101 15.6203 4.60759 15.5949 4.75949C15.5443 5.01266 15.5696 5.29114 15.5696 5.51899C15.5696 5.62025 15.5949 5.74684 15.6203 5.8481Z" fill="#F6F6F6"/>
</g>
<defs>
<clipPath id="clip0_1:4692">
<rect width="31.1392" height="36" fill="white"/>
</clipPath>
</defs>
</svg>
