<svg width="36" height="36" viewBox="0 0 36 36" fill="none" xmlns="http://www.w3.org/2000/svg">
<path d="M3.36023 18.9299C3.36023 21.2999 3.99023 23.5199 5.10023 25.4699L16.6802 19.1099L4.92023 12.6899C3.93023 14.5799 3.36023 16.6799 3.36023 18.9299ZM7.05023 22.3499C6.66023 22.5299 6.27023 22.6499 5.88023 22.7399C5.70023 22.7699 5.25023 22.8599 5.16023 22.5899C5.10023 22.3499 5.55023 22.1999 5.73023 22.1399C6.00023 22.0799 6.27023 22.0199 6.54023 21.8999C6.75023 21.8099 7.20023 21.7199 7.38023 21.8999C7.59023 22.0799 7.17023 22.2899 7.05023 22.3499ZM12.0602 18.0599C12.6002 18.0599 13.0502 18.4799 13.0502 18.9899C13.0502 19.4999 12.6002 19.9199 12.0602 19.9199C11.5202 19.9199 11.0702 19.4999 11.0702 18.9899C11.0702 18.4799 11.5202 18.0599 12.0602 18.0599ZM9.33023 19.4699C9.33023 20.2499 8.67023 20.8799 7.83023 20.8799C7.02023 20.8799 6.33023 20.2499 6.33023 19.4699C6.33023 18.6899 6.99023 18.0599 7.83023 18.0599C8.64023 18.0599 9.33023 18.6899 9.33023 19.4699ZM6.33023 14.5799C6.87023 14.5799 7.32023 14.9999 7.32023 15.5099C7.32023 16.0199 6.87023 16.4399 6.33023 16.4399C5.79023 16.4399 5.34023 16.0199 5.34023 15.5099C5.34023 14.9999 5.79023 14.5799 6.33023 14.5799ZM4.47023 18.6899C3.63023 18.6899 4.59023 18.0899 4.98023 18.0899C5.85023 18.0899 4.89023 18.6899 4.47023 18.6899Z" fill="#F6F6F6"/>
<path d="M17.3398 4.38011V1.86011C11.1598 2.07011 5.7298 5.25011 2.6698 9.96011L4.9498 11.2201C7.5598 7.26011 12.1198 4.59011 17.3398 4.38011Z" fill="#F6F6F6"/>
<path d="M32.3698 9.36L34.6498 8.1C31.5598 3.39 26.1598 0.21 19.9798 0V2.49C25.1998 2.7 29.7598 5.4 32.3698 9.36Z" fill="#F6F6F6"/>
<path d="M33.1499 28.1101L30.8699 26.8501C28.2299 30.6901 23.7599 33.2701 18.6299 33.4801V36.0001C24.7499 35.7901 30.0599 32.7001 33.1499 28.1101Z" fill="#F6F6F6"/>
<path d="M31.6801 12.3301C32.7601 14.3101 33.3601 16.5601 33.3601 18.9601C33.3601 21.4501 32.7001 23.7901 31.5601 25.8301L33.8401 27.0901C35.2201 24.6301 36.0001 21.8701 36.0001 18.9301C36.0001 16.0801 35.2501 13.4101 33.9601 11.0701L31.6801 12.3301Z" fill="#F6F6F6"/>
<path d="M4.44 25.8001C3.27 23.7601 2.64 21.4201 2.64 18.9301C2.64 16.5601 3.24 14.3101 4.32 12.3001L2.04 11.0701C0.75 13.4401 0 16.1101 0 18.9301C0 21.8701 0.78 24.6301 2.16 27.0301L4.44 25.8001Z" fill="#F6F6F6"/>
<path d="M17.3399 35.9999V33.5099C12.2099 33.2999 7.73991 30.7199 5.09992 26.8799L2.84991 28.1099C5.93991 32.6999 11.2499 35.7899 17.3399 35.9999Z" fill="#F6F6F6"/>
<path d="M17.3402 5.07007C12.3602 5.28007 8.0402 7.83007 5.5802 11.6101L17.3402 18.0601V5.07007ZM10.0802 12.0001C9.2702 12.0001 8.5802 11.3701 8.5802 10.5901C8.5802 9.81007 9.2402 9.18007 10.0802 9.18007C10.8902 9.18007 11.5802 9.81007 11.5802 10.5901C11.5802 11.3701 10.9202 12.0001 10.0802 12.0001ZM14.5502 14.5801C14.0102 14.5801 13.5602 14.1601 13.5602 13.6501C13.5602 13.1401 14.0102 12.7201 14.5502 12.7201C15.0902 12.7201 15.5402 13.1401 15.5402 13.6501C15.5402 14.1601 15.0902 14.5801 14.5502 14.5801ZM14.5202 11.0701C14.3102 10.8601 14.1002 10.7401 13.8002 10.6801C13.5002 10.5901 13.4702 10.3201 13.6502 10.1101C13.8602 9.87007 14.2502 9.81007 14.5502 9.87007C15.0002 9.99007 15.3902 10.2001 15.6602 10.5601C16.0802 11.0101 14.8502 11.4901 14.5202 11.0701ZM15.0002 8.85007C14.4602 8.85007 14.0102 8.43007 14.0102 7.92007C14.0102 7.41007 14.4602 6.99007 15.0002 6.99007C15.5402 6.99007 15.9902 7.41007 15.9902 7.92007C15.9902 8.43007 15.5702 8.85007 15.0002 8.85007Z" fill="#F6F6F6"/>
<path d="M32.6399 18.9299C32.6399 16.6799 32.0699 14.5799 31.0799 12.6899L19.3199 19.1399L30.8999 25.4999C32.0099 23.5499 32.6399 21.2999 32.6399 18.9299ZM30.6299 14.9099C31.4699 14.9099 30.4799 15.4499 30.0899 15.4499C29.2499 15.4499 30.2699 14.9099 30.6299 14.9099ZM24.4499 20.0399C23.9099 20.0399 23.4599 19.6199 23.4599 19.1099C23.4599 18.5999 23.9099 18.1799 24.4499 18.1799C24.9899 18.1799 25.4399 18.5999 25.4399 19.1099C25.4399 19.6199 24.9899 20.0399 24.4499 20.0399ZM27.1799 18.1499C27.8099 18.1499 26.6099 18.6299 26.3399 18.6299C25.7399 18.6299 26.9099 18.1499 27.1799 18.1499ZM26.6099 21.2399C25.7399 21.2399 26.5799 20.5199 27.0899 20.5199C27.9299 20.5199 27.0899 21.2399 26.6099 21.2399ZM29.2199 23.6099C28.6799 23.6099 28.2299 23.1899 28.2299 22.6799C28.2299 22.1699 28.6799 21.7499 29.2199 21.7499C29.7599 21.7499 30.2099 22.1699 30.2099 22.6799C30.2099 23.1899 29.7599 23.6099 29.2199 23.6099ZM29.7299 19.8899C28.9199 19.8899 28.2299 19.2599 28.2299 18.4799C28.2299 17.6999 28.8899 17.0699 29.7299 17.0699C30.5699 17.0699 31.2299 17.6999 31.2299 18.4799C31.1999 19.2299 30.5399 19.8899 29.7299 19.8899Z" fill="#F6F6F6"/>
<path d="M17.3399 32.79V20.22L5.78986 26.55C8.27986 30.18 12.5099 32.61 17.3399 32.79ZM15.2399 31.8C14.3699 31.8 15.3299 31.17 15.7499 31.17C16.6199 31.17 15.6899 31.8 15.2399 31.8ZM14.9999 23.61C15.5399 23.61 15.9899 24.03 15.9899 24.54C15.9899 25.08 15.5699 25.5 14.9999 25.5C14.4599 25.5 14.0099 25.08 14.0099 24.57C14.0099 24.03 14.4599 23.61 14.9999 23.61ZM12.4499 25.8C13.3199 25.8 12.4799 26.55 11.9699 26.55C11.0999 26.55 11.9399 25.8 12.4499 25.8ZM13.0499 27.06C13.8899 27.06 14.5499 27.69 14.5499 28.47C14.5499 29.25 13.8899 29.88 13.0499 29.88C12.2399 29.88 11.5499 29.25 11.5499 28.47C11.5499 27.69 12.2399 27.06 13.0499 27.06ZM8.81986 25.95C9.35986 25.95 9.80986 26.37 9.80986 26.88C9.80986 27.39 9.35986 27.81 8.81986 27.81C8.27986 27.81 7.82986 27.39 7.82986 26.88C7.82986 26.4 8.27986 25.95 8.81986 25.95Z" fill="#F6F6F6"/>
<path d="M30.2099 26.55L18.6599 20.22V32.79C23.4899 32.61 27.7199 30.18 30.2099 26.55ZM20.7899 30.84C20.2499 30.84 19.7999 30.42 19.7999 29.91C19.7999 29.4 20.2499 28.98 20.7899 28.98C21.3299 28.98 21.7799 29.4 21.7799 29.91C21.7799 30.42 21.3299 30.84 20.7899 30.84ZM21.4799 26.91C20.6699 26.91 19.9799 26.28 19.9799 25.5C19.9799 24.72 20.6399 24.09 21.4799 24.09C22.3199 24.09 22.9799 24.72 22.9799 25.5C22.9499 26.28 22.2899 26.91 21.4799 26.91ZM22.9799 29.01C22.3499 29.01 23.5499 28.53 23.8199 28.53C24.4199 28.53 23.2499 29.01 22.9799 29.01ZM26.7299 27.99C26.1899 27.99 25.7399 27.57 25.7399 27.06C25.7399 26.55 26.1899 26.13 26.7299 26.13C27.2699 26.13 27.7199 26.55 27.7199 27.06C27.7199 27.57 27.2699 27.99 26.7299 27.99Z" fill="#F6F6F6"/>
<path d="M19.9798 3.20996V16.2L31.7398 9.74996C29.2798 5.96996 24.9298 3.41996 19.9798 3.20996ZM23.7898 5.06996C24.3298 5.06996 24.7798 5.48996 24.7798 5.99996C24.7798 6.50996 24.3298 6.92996 23.7898 6.92996C23.2198 6.95996 22.7998 6.53996 22.7998 5.99996C22.7998 5.48996 23.2198 5.06996 23.7898 5.06996ZM21.6598 4.19996C22.5298 4.19996 21.7498 4.97996 21.1798 4.97996C20.3398 4.97996 21.1198 4.19996 21.6598 4.19996ZM22.2898 12.99C21.4798 12.99 20.7898 12.36 20.7898 11.58C20.7898 10.8 21.4498 10.17 22.2898 10.17C23.1298 10.17 23.7898 10.8 23.7898 11.58C23.7898 12.36 23.0998 12.99 22.2898 12.99ZM23.8198 8.78996C23.5798 8.96996 23.1898 9.02996 22.9198 8.84996C22.6498 8.66996 22.2898 8.60996 21.9598 8.54996C21.6598 8.48996 21.4198 8.27996 21.5398 8.00996C21.6598 7.73996 22.0498 7.55996 22.3498 7.61996C22.8898 7.70996 23.3998 7.82996 23.8498 8.09996C24.1498 8.27996 24.0298 8.60996 23.8198 8.78996ZM24.6298 10.98C23.7598 10.98 24.5398 10.17 25.0798 10.17C25.9498 10.17 25.1998 10.98 24.6298 10.98ZM26.7298 9.65996C26.1898 9.65996 25.7398 9.23996 25.7398 8.72996C25.7398 8.21996 26.1898 7.79996 26.7298 7.79996C27.2698 7.79996 27.7198 8.21996 27.7198 8.72996C27.7198 9.23996 27.2698 9.65996 26.7298 9.65996ZM28.4698 9.26996C27.8398 9.26996 29.0398 8.78996 29.3098 8.78996C29.9398 8.78996 28.7398 9.26996 28.4698 9.26996Z" fill="#F6F6F6"/>
</svg>
