<svg width="36" height="36" viewBox="0 0 36 36" fill="none" xmlns="http://www.w3.org/2000/svg">
<g clip-path="url(#clip0_1:4684)">
<path d="M36.0007 10.2107C35.2245 9.42238 33.783 9.53499 31.4175 11.0366C30.2717 11.7498 29.1629 11.7123 28.0541 10.8489C26.5017 9.53499 24.9863 9.1596 23.1382 10.8113C22.1773 11.6372 21.2532 11.9 20.2553 11.1116C19.1834 9.45991 18.0007 9.08452 16.2635 10.999C15.3025 11.8249 14.4155 11.9 13.3805 11.0741C11.6803 9.19714 10.1649 9.38484 8.53865 10.9615C7.39286 11.6747 6.32099 11.8249 5.13824 10.9239C3.21627 9.72269 1.03557 9.45992 0.0376258 9.91038C-0.997282 -1.83936 33.6352 -4.80495 36.0007 10.2107Z" fill="#F6F6F6"/>
<path d="M31.4538 12.388C34.189 10.436 35.4456 10.6988 36.037 12.388L27.6469 36.0376H27.2773H26.4641H24.7639H23.1376H20.2547H16.2629H13.3799H11.8276H10.1643H9.12942H8.79677L0.0739746 12.388C0.702311 10.4735 2.47644 10.6612 5.17459 12.388L10.0165 35.3995H11.7536L8.53804 12.388C10.0165 10.7363 11.6058 10.436 13.3799 12.388V35.3995H16.2629V12.388C17.6674 10.4735 18.998 10.7363 20.2547 12.388V35.3995H23.1007L23.1376 12.388C24.7639 10.3984 26.3902 10.7738 28.0534 12.388L24.8748 35.3619H26.612L31.4538 12.388Z" fill="#F6F6F6"/>
</g>
<defs>
<clipPath id="clip0_1:4684">
<rect width="36" height="36" fill="white"/>
</clipPath>
</defs>
</svg>
