<svg width="337" height="338" viewBox="0 0 337 338" fill="none" xmlns="http://www.w3.org/2000/svg">
<path d="M244.767 67.9244C252.056 67.755 256.745 61.7517 263.475 53.1341C264.447 51.8995 275.356 37.7869 272.392 34.64C270.205 32.3162 262.722 38.3195 259.393 35.4873C255.651 32.3162 261.774 21.9557 259.417 20.4306C256.769 18.7361 246.297 29.6776 238.911 41.1033C233.323 49.7451 229.533 55.7726 231.962 61.0981C234.076 65.649 240.005 68.0455 244.767 67.9244Z" fill="url(#paint0_linear_1:1155)"/>
<path d="M214.615 56.0874C216.121 55.4338 231.379 49.0432 242.993 56.4021C255.676 64.4388 255.724 83.6348 255.749 90.1948C255.822 119.291 238.522 129.313 214.906 170.707C193.623 208.009 195.129 221.88 166.095 268.212C154.335 286.996 148.358 296.364 144.835 295.348C136.696 292.975 150.812 251.073 182.398 111.11C185.921 95.4477 192.578 65.6733 214.615 56.0874Z" fill="#F6B87C"/>
<path d="M154.457 286.319C153.266 281.574 152.999 277.604 153.047 274.602C153.242 262.862 160.093 250.202 173.772 225.342C183.831 207.065 184.997 207.332 185.896 201.958C189.249 181.842 175.084 166.18 181.693 159.668C185.921 155.481 193.671 160.032 196.781 155.65C200.085 151.002 192.408 144.491 191.096 133.138C189.565 119.897 197.17 103.872 208.711 97.8442C221.15 91.3568 233.42 98.8609 236.992 93.1239C241.292 86.2007 225.645 71.6524 228.537 68.1908C229.921 66.5205 235.704 67.392 255.093 78.7208C253.951 70.8052 250.962 61.4371 243.042 56.4021C231.428 49.0432 216.194 55.4338 214.663 56.0874C192.602 65.6733 185.969 95.4477 182.422 111.11C150.861 251.073 136.744 292.951 144.859 295.348C146.949 295.977 149.913 292.903 154.457 286.319Z" fill="url(#paint1_linear_1:1155)"/>
<path d="M86.1348 285.035C79.7205 285.205 55.7642 285.108 38.4651 267.485C34.4319 263.37 29.767 258.626 28.1391 252.066C21.3847 224.809 70.5851 180.559 123.163 167.39C131.934 165.187 162.814 158.337 199.964 169.206C235.412 179.566 290.274 210.067 286.775 246.014C286.241 251.485 283.301 268.187 256.891 285.374C254.266 283.341 251.618 281.308 248.994 279.25C249.626 278.5 262.187 263.419 256.137 245.409C251.448 231.466 237.648 221.807 221.952 221.807C224.212 230.836 227.225 244.416 229.411 261.119C234.465 299.632 237.065 319.579 226.083 329.77C214.542 340.445 203.681 325.897 162.936 333.401C149.16 335.942 137.109 340.058 119.518 336.717C110.31 334.974 102.778 333.546 98.8662 327.639C91.1399 315.899 106.763 299.995 112.229 273.198C114.635 261.361 115.898 243.254 108.293 219.072C82.0044 224.276 68.2283 243.23 71.2654 255.939C73.8894 266.977 88.9289 272.133 91.2857 272.908C89.5606 276.975 87.8356 281.017 86.1348 285.035Z" fill="#927C70"/>
<path d="M144.398 60.0331C156.449 55.7727 167.625 54.1751 168.889 47.615C169.763 43.1126 165.511 38.4406 161.478 35.0275C162.547 32.4858 164.588 26.6277 163.228 19.5109C161.648 11.3048 155.55 1.47681 147.435 0.145431C135.943 -1.71849 131.229 15.2505 115.582 15.5652C105.766 15.7588 104.673 9.15037 95.3918 9.87658C82.2959 10.8933 69.0058 25.2479 67.9367 40.6677C67.5237 46.671 69.0301 51.6576 70.3664 54.8771C67.6209 56.6684 58.0967 63.2042 58.534 71.2167C59.0685 81.3351 75.25 90.4127 89.1962 89.977C109.8 89.3234 111.063 71.7976 144.398 60.0331Z" fill="white"/>
<path d="M162.013 47.6152C158.174 47.4457 156.206 45.0493 152.294 42.4833C142.235 35.8507 129.067 34.4225 121.34 36.1411C104.114 39.9416 102.195 61.8246 91.8931 60.9289C83.8266 60.2269 78.3599 46.2838 77.0236 37.3273C75.8817 29.6779 77.3395 22.8758 79.429 17.5503C73.1362 23.3841 68.5199 31.8565 67.9124 40.6678C67.4994 46.6711 69.0058 51.6577 70.3421 54.8772C67.5966 56.6685 58.0724 63.2044 58.5097 71.2168C59.0442 81.3353 75.2257 90.4129 89.1719 89.9771C109.8 89.3235 111.087 71.7978 144.422 60.0333C156.473 55.7729 167.65 54.1752 168.913 47.6152C169.059 46.9132 169.059 46.187 168.962 45.485C166.775 46.9132 164.442 47.7362 162.013 47.6152Z" fill="#D8DEE8"/>
<path d="M267.119 86.3944C261.458 75.4771 266.609 61.0498 271.153 60.372C274.02 59.9363 275.283 65.2134 279.826 65.4313C285.439 65.6975 287.82 57.9029 291.562 58.5565C295.643 59.2827 298.17 69.498 297.077 78.1641C296.761 80.5847 294.842 95.6414 285.05 97.7232C277.567 99.2966 270.205 92.3735 267.119 86.3944Z" fill="#50A675"/>
<path d="M283.787 149.018C268.48 180.486 250.768 201.135 160.045 283.39C153.169 289.635 147.775 294.428 145.491 292.976C138.615 288.618 176.906 238.801 214.712 149.647C226.957 120.792 235.898 95.4963 258.105 89.3962C270.156 86.0798 286.192 88.3795 293.141 97.9654C296.64 102.734 300.989 113.651 283.787 149.018Z" fill="#F8CD7E"/>
<path opacity="0.3" d="M149.597 278.258C181.984 261.24 199.065 241.463 208.808 225.172C225.621 197.092 223.459 174.652 249.747 152.721C264.301 140.593 277.47 136.986 282.961 121.93C286.945 110.988 284.831 99.5143 281.163 89.8315C286.071 91.4292 290.347 94.1162 293.141 97.965C296.615 102.734 300.964 113.675 283.762 149.041C268.456 180.51 250.744 201.159 160.02 283.414C153.145 289.659 147.751 294.452 145.467 292.999C143.547 291.741 145.272 286.778 149.597 278.258Z" fill="#F8CD7E"/>
<path d="M244.402 267.897C238.911 267.292 233.712 250.686 235.753 235.436C238.62 213.795 256.137 193.897 260.341 189.322C264.933 184.335 269.306 180.559 271.031 173.394C273.485 163.057 268.529 153.35 271.08 152.164C272.975 151.269 275.162 156.957 279.948 157.127C286.532 157.369 289.521 146.815 296.372 147.371C299.337 147.613 301.402 149.792 301.596 150.034C305.168 153.907 302.544 159.378 304.925 160.903C307.549 162.573 311.412 156.401 317.413 156.425C324.095 156.449 331.894 164.171 332.21 171.675C332.598 180.753 321.884 185.715 324.095 191.331C325.723 195.495 332.137 194.091 334.809 198.085C338.867 204.112 332.137 219.072 321.179 228.682C298.948 248.12 272.003 234.419 255.044 254.898C249.48 261.579 247.998 268.284 244.402 267.897Z" fill="#7FC281"/>
<path d="M261.313 240.544C271.857 233.064 281.454 240.423 300.017 232.87C315.469 226.576 328.371 213.529 326.16 206.582C324.726 202.079 317.899 203.265 315.421 197.673C311.752 189.395 323.633 179.833 320.159 174.628C317.073 170.005 306.577 175.911 299.993 169.86C294.987 165.26 297.223 158.41 293.36 157.054C288.646 155.384 284.2 165.236 276.571 165.478C274.846 165.527 273.194 165.091 271.614 164.292C271.833 167.1 271.76 170.199 271.007 173.37C269.306 180.535 264.908 184.311 260.316 189.298C256.113 193.897 238.62 213.795 235.728 235.436C233.712 250.711 238.887 267.316 244.378 267.897C246.492 268.115 247.877 265.912 249.772 262.693C251.813 250.009 256.672 243.836 261.313 240.544Z" fill="#7FC281"/>
<path d="M248.46 277.531C240.539 277.556 219.595 276.442 203.365 261.24C176.882 236.452 179.506 189.709 194.133 180.825C199.065 177.823 205.285 179.203 213.351 172.619C218.891 168.092 218.526 165.357 224.43 161.508C229.8 157.998 238.911 154.537 243.43 158.046C246.565 160.491 245.666 164.849 248.192 165.526C251.229 166.325 253.392 160.322 257.425 159.717C263.329 158.821 273.194 169.472 274.603 180.583C277.032 200.021 251.74 207.501 244.062 233.669C239.251 249.984 243.552 265.912 248.46 277.531Z" fill="#7FC281"/>
<path d="M242.386 273.852C242.386 273.852 214.785 257.513 208.711 228.949C202.612 200.384 211.529 199.973 214.032 196.705C216.534 193.413 214.906 207.937 215.708 218.007C216.534 228.077 212.234 239.696 242.386 273.852Z" fill="#7FC281"/>
<path d="M257.425 159.717C253.392 160.322 251.229 166.325 248.192 165.526C245.641 164.849 246.565 160.491 243.43 158.046C238.911 154.537 229.8 157.998 224.43 161.508C218.502 165.357 218.891 168.092 213.351 172.619C205.285 179.203 199.089 177.823 194.133 180.825C179.774 189.54 177.004 234.758 201.932 259.86C194.279 249.282 187.427 235.363 187.062 219.096C186.99 215.852 186.479 192.323 197.802 187.216C203.633 184.577 207.933 188.959 214.299 185.594C223.483 180.753 221.466 168.02 228.075 166.446C234.343 164.97 238.547 175.887 246.856 174.822C252.784 174.047 253.854 168.092 258.616 167.172C262.114 166.495 267.047 168.649 274.141 178.138C271.76 167.971 262.892 158.87 257.425 159.717Z" fill="#7FC281"/>
<path d="M136.21 64.0998C126.589 61.8969 114.367 65.2375 107.759 72.8142C98.2102 83.7799 105.839 97.481 98.5504 101.935C91.6988 106.123 83.0735 95.2298 60.4049 88.5487C47.6735 84.7966 35.3066 81.1172 24.1788 85.8859C6.83115 93.3174 -1.96418 118.88 1.87467 139.867C6.36952 164.34 28.6008 185.666 46.0457 183.875C57.6594 182.665 59.2387 172.062 76.5621 167.995C91.796 164.437 95.076 171.578 107.516 168.455C127.779 163.372 125.277 142.917 147.581 132.169C166.799 122.898 177.66 133.719 189.93 122.632C199.818 113.7 204.216 96.2948 197.68 83.6105C197.097 82.4728 191.12 71.2892 180.843 70.0062C171.561 68.8443 168.743 76.9778 159 76.4695C148.771 75.9369 147.848 66.7625 136.21 64.0998Z" fill="#42474F"/>
<path d="M141.215 117.185C112.691 126.917 107.856 153.907 91.5773 151.656C80.9597 150.204 82.1746 138.633 66.5276 128.974C44.1991 115.176 22.3566 126.796 15.9909 117.185C13.0996 112.828 13.3669 104.114 26.9486 84.8936C26.0254 85.184 25.1021 85.4987 24.2031 85.886C6.85544 93.3175 -1.93989 118.88 1.89896 139.867C6.36951 164.34 28.6008 185.667 46.0457 183.875C57.6594 182.665 59.2387 172.062 76.5621 167.996C91.796 164.437 95.076 171.578 107.516 168.456C127.779 163.372 125.277 142.917 147.581 132.169C166.799 122.898 177.66 133.719 189.93 122.632C194.886 118.154 198.482 111.521 199.988 104.428C195.445 107.745 190.294 110.625 184.463 112.635C166.313 118.977 159.462 110.964 141.215 117.185Z" fill="#232D3C"/>
<path d="M145.248 141.126C145.248 141.126 149.84 165.672 140.073 167.971L175.886 167.681C175.886 167.681 164.442 161.678 164.224 142.603L145.248 141.126Z" fill="#ECC1B0"/>
<path d="M110.261 106.268C110.261 106.268 131.594 153.786 159.948 147.88C185.337 142.603 178.364 99.1757 164.224 79.7861C164.2 79.8103 140.778 75.4046 110.261 106.268Z" fill="#ECC1B0"/>
<path d="M173.092 109.584C173.092 109.584 170.225 90.9452 178.413 92.7365C186.601 94.5036 186.747 109.609 175.133 114.014L173.092 109.584Z" fill="#ECC1B0"/>
<path d="M126.127 125.585C126.127 125.585 114.052 111.085 109.945 118.371C105.839 125.658 117.064 135.776 128.071 130.063L126.127 125.585Z" fill="#ECC1B0"/>
<path d="M111.719 112.078C111.719 112.078 134.874 81.5532 166.824 83.756L156.935 48.8982C127.73 47.6636 107.905 59.7428 95.2461 82.0857L111.719 112.078Z" fill="url(#paint2_linear_1:1155)"/>
<path opacity="0.3" d="M272.295 241.585C262.187 228.755 244.451 230.788 234.052 211.955C228.318 201.546 230.675 195.422 222.827 188.354C213.376 179.857 202.029 181.6 199.745 174.749C199.162 173.007 199.332 171.118 199.964 169.206C191.776 166.81 183.904 165.285 176.494 164.365C182.495 174.943 188.253 187.143 192.991 200.965C211.14 253.906 204.629 302.465 197.534 331.779C211.845 333.256 218.842 336.524 226.083 329.794C237.089 319.603 234.465 299.657 229.411 261.144C227.225 244.441 224.212 230.861 221.952 221.832C237.648 221.808 251.448 231.466 256.137 245.433C262.187 263.443 249.626 278.548 248.994 279.275C251.618 281.308 254.267 283.341 256.891 285.399C267.435 278.548 274.238 271.77 278.636 265.743C279.17 253.954 276.182 246.523 272.295 241.585Z" fill="url(#paint3_linear_1:1155)"/>
<path d="M176.736 161.169C176.445 159.983 175.327 159.185 174.112 159.281C169.933 159.644 160.506 160.395 154.044 160.685C148.771 160.927 144.544 160.25 142.09 159.717C140.778 159.427 139.466 160.225 139.15 161.533L137.595 167.754C137.595 167.754 160.822 177.969 178.413 167.996L176.736 161.169Z" fill="#927C70"/>
<path d="M178.17 185.207C179.142 187.579 178.389 190.121 176.542 190.871C174.671 191.622 172.387 190.29 171.415 187.918C170.444 185.546 171.197 183.004 173.043 182.254C174.914 181.503 177.198 182.81 178.17 185.207Z" fill="white"/>
<path d="M184.39 216.651C186.403 216.651 188.034 214.571 188.034 212.004C188.034 209.437 186.403 207.356 184.39 207.356C182.377 207.356 180.745 209.437 180.745 212.004C180.745 214.571 182.377 216.651 184.39 216.651Z" fill="white"/>
<path d="M84.3855 270.826L84.6528 290.24H259.976L258.421 272.618C258.421 272.618 250.816 269.616 244.548 277.023L95.7077 279.952C95.7077 279.952 92.7192 268.478 84.3855 270.826Z" fill="#F8CD7E"/>
<path d="M242.215 276.878C242.215 276.878 240.369 269.325 243.527 267.05C246.686 264.775 254.923 262.717 259.612 264.799C264.325 266.881 266.585 276.563 259.612 282.76C259.612 282.76 258.81 272.666 255.408 272.569C252.007 272.472 249.018 271.189 246.589 273.344C244.159 275.522 245.763 277.168 242.215 276.878Z" fill="#ECC1B0"/>
<path d="M84.2154 282.76C84.2154 282.76 82.3203 281.719 80.6681 276.563C78.9917 271.431 78.6272 265.743 84.0211 263.927C89.4149 262.112 90.9942 265.355 93.5453 269.688C95.9506 273.755 93.5696 275.45 91.2857 272.932C89.0018 270.415 87.2039 269.906 86.6694 273.344C86.1348 276.781 84.2154 282.76 84.2154 282.76Z" fill="#ECC1B0"/>
<path d="M103.288 270.56L100.81 267.147C100.81 267.147 97.5057 265.597 93.5939 261.41C89.7065 257.222 93.2052 250.25 99.4737 247.418C105.718 244.586 112.205 240.761 111.646 237.372C111.087 233.983 109.678 233.693 109.678 233.693C109.678 233.693 112.302 233.765 113.59 236.089C114.853 238.413 116.457 240.132 124.232 240.834C131.982 241.536 139.879 248.048 140.729 255.624C141.604 263.201 131.642 265.767 131.642 265.767L130.063 270.269L103.288 270.56Z" fill="url(#paint4_linear_1:1155)"/>
<path opacity="0.71" d="M109.775 233.765C109.703 233.741 109.654 233.717 109.654 233.717C109.994 233.959 110.31 234.225 110.577 234.492C110.261 234.032 109.945 233.838 109.775 233.765Z" fill="white"/>
<path d="M120.442 258.505C117.575 253.397 111.743 245.966 112.57 240.398C113.298 235.411 110.407 234.007 109.8 233.765C109.97 233.838 110.286 234.032 110.626 234.492C114.027 237.784 111.549 241.923 109.775 244.562C107.856 247.418 108.172 251.896 107.589 256.302C107.006 260.708 107.613 264.363 101.952 265.21C100.13 265.476 98.4776 265.186 97.0927 264.653C99.3036 266.42 100.834 267.147 100.834 267.147L103.313 270.56L118.887 270.415C121.511 266.808 122.482 262.16 120.442 258.505Z" fill="url(#paint5_linear_1:1155)"/>
<path d="M140.705 255.673C139.83 248.096 131.958 241.584 124.208 240.882C116.457 240.18 114.829 238.437 113.566 236.138C112.302 233.814 109.654 233.741 109.654 233.741C109.654 233.741 112.691 234.056 113.857 238.994C115.023 243.932 120.709 245.869 126.661 247.636C132.614 249.403 139.369 256.278 131.618 265.815C131.642 265.791 141.58 263.249 140.705 255.673Z" fill="url(#paint6_linear_1:1155)"/>
<path d="M105.256 280.92L101.199 267.897C101.199 267.897 102.754 267.679 104.843 266.711L107.564 268.72L110.82 267.171L114.44 268.648L118.765 266.977L122.045 268.43L125.325 266.832L127.05 268.357L128.508 266.324L129.723 268.188C129.723 268.188 130.938 266.977 131.132 267.389C131.302 267.728 128.338 277.41 127.269 280.92C127.002 281.743 126.37 282.421 125.544 282.688C122.823 283.583 116.117 285.108 107.176 282.736C106.252 282.47 105.523 281.792 105.256 280.92Z" fill="#F4F7FA"/>
<path d="M114.44 268.648L110.82 267.171L112.035 283.704C113.566 283.898 115.023 283.995 116.36 283.995L118.741 266.977L114.44 268.648Z" fill="#D8DEE8"/>
<path d="M101.223 267.897L105.281 280.92C105.548 281.792 106.252 282.47 107.151 282.712C107.759 282.881 108.342 283.002 108.901 283.147L104.867 266.735C102.754 267.679 101.223 267.897 101.223 267.897Z" fill="#D8DEE8"/>
<path d="M127.026 268.357L125.301 266.832L121 283.68C122.288 283.511 123.406 283.268 124.28 283.026L128.484 266.324L127.026 268.357Z" fill="#D8DEE8"/>
<path d="M155.623 270.56L153.145 267.147C153.145 267.147 149.84 265.597 145.929 261.41C142.041 257.222 145.54 250.25 151.808 247.418C158.052 244.586 164.54 240.761 163.981 237.372C163.422 233.983 162.013 233.693 162.013 233.693C162.013 233.693 164.637 233.765 165.925 236.089C167.188 238.413 168.792 240.132 176.566 240.834C184.341 241.536 192.213 248.048 193.064 255.624C193.938 263.201 183.977 265.767 183.977 265.767L182.398 270.269L155.623 270.56Z" fill="url(#paint7_linear_1:1155)"/>
<path opacity="0.71" d="M162.11 233.765C162.037 233.741 161.988 233.717 161.988 233.717C162.329 233.959 162.644 234.225 162.912 234.492C162.596 234.032 162.28 233.838 162.11 233.765Z" fill="white"/>
<path d="M172.776 258.505C169.909 253.397 164.078 245.966 164.904 240.398C165.633 235.411 162.742 234.007 162.134 233.765C162.304 233.838 162.62 234.032 162.96 234.492C166.362 237.784 163.884 241.923 162.11 244.562C160.191 247.418 160.506 251.896 159.923 256.302C159.34 260.708 159.948 264.363 154.286 265.21C152.464 265.476 150.812 265.186 149.427 264.653C151.638 266.42 153.169 267.147 153.169 267.147L155.647 270.56L171.221 270.415C173.845 266.808 174.817 262.16 172.776 258.505Z" fill="url(#paint8_linear_1:1155)"/>
<path d="M193.039 255.673C192.165 248.096 184.293 241.584 176.542 240.882C168.791 240.18 167.164 238.437 165.9 236.138C164.637 233.814 161.988 233.741 161.988 233.741C161.988 233.741 165.026 234.056 166.192 238.994C167.358 243.932 173.043 245.869 178.996 247.636C184.949 249.403 191.703 256.278 183.953 265.815C183.977 265.791 193.914 263.249 193.039 255.673Z" fill="url(#paint9_linear_1:1155)"/>
<path d="M157.591 280.92L153.533 267.897C153.533 267.897 155.088 267.679 157.178 266.711L159.899 268.72L163.155 267.171L166.775 268.648L171.1 266.977L174.38 268.43L177.66 266.832L179.385 268.357L180.843 266.324L182.057 268.188C182.057 268.188 183.272 266.977 183.467 267.389C183.637 267.728 180.672 277.41 179.603 280.92C179.336 281.743 178.704 282.421 177.878 282.688C175.157 283.583 168.451 285.108 159.51 282.736C158.563 282.47 157.858 281.792 157.591 280.92Z" fill="#F4F7FA"/>
<path d="M166.775 268.648L163.155 267.171L164.369 283.704C165.9 283.898 167.358 283.995 168.694 283.995L171.075 266.977L166.775 268.648Z" fill="#D8DEE8"/>
<path d="M153.533 267.897L157.591 280.92C157.858 281.792 158.563 282.47 159.462 282.712C160.069 282.881 160.652 283.002 161.211 283.147L157.178 266.735C155.088 267.679 153.533 267.897 153.533 267.897Z" fill="#D8DEE8"/>
<path d="M179.336 268.357L177.611 266.832L173.311 283.68C174.598 283.511 175.716 283.268 176.591 283.026L180.794 266.324L179.336 268.357Z" fill="#D8DEE8"/>
<path d="M207.933 270.56L205.455 267.147C205.455 267.147 202.151 265.597 198.239 261.41C194.351 257.222 197.85 250.25 204.119 247.418C210.363 244.586 216.85 240.761 216.291 237.372C215.732 233.983 214.323 233.693 214.323 233.693C214.323 233.693 216.947 233.765 218.235 236.089C219.498 238.413 221.102 240.132 228.877 240.834C236.652 241.536 244.524 248.048 245.374 255.624C246.249 263.201 236.287 265.767 236.287 265.767L234.708 270.269L207.933 270.56Z" fill="url(#paint10_linear_1:1155)"/>
<path opacity="0.71" d="M214.445 233.765C214.372 233.741 214.323 233.717 214.323 233.717C214.663 233.959 214.979 234.225 215.246 234.492C214.931 234.032 214.59 233.838 214.445 233.765Z" fill="white"/>
<path d="M225.086 258.505C222.219 253.397 216.388 245.966 217.214 240.398C217.943 235.411 215.052 234.007 214.445 233.765C214.615 233.838 214.93 234.032 215.271 234.492C218.672 237.784 216.194 241.923 214.42 244.562C212.501 247.418 212.817 251.896 212.234 256.302C211.65 260.708 212.258 264.363 206.597 265.21C204.775 265.476 203.122 265.186 201.737 264.653C203.948 266.42 205.479 267.147 205.479 267.147L207.957 270.56L223.531 270.415C226.18 266.808 227.152 262.16 225.086 258.505Z" fill="url(#paint11_linear_1:1155)"/>
<path d="M245.374 255.673C244.499 248.096 236.627 241.584 228.877 240.882C221.126 240.18 219.498 238.437 218.235 236.138C216.971 233.814 214.323 233.741 214.323 233.741C214.323 233.741 217.36 234.056 218.526 238.994C219.693 243.932 225.378 245.869 231.331 247.636C237.283 249.403 244.038 256.278 236.287 265.815C236.287 265.791 246.249 263.249 245.374 255.673Z" fill="url(#paint12_linear_1:1155)"/>
<path d="M209.925 280.92L205.868 267.897C205.868 267.897 207.423 267.679 209.512 266.711L212.234 268.72L215.489 267.171L219.11 268.648L223.434 266.977L226.714 268.43L229.994 266.832L231.719 268.357L233.177 266.324L234.392 268.188C234.392 268.188 235.607 266.977 235.801 267.389C235.971 267.728 233.007 277.41 231.938 280.92C231.671 281.743 231.039 282.421 230.213 282.688C227.492 283.583 220.786 285.108 211.845 282.736C210.897 282.47 210.193 281.792 209.925 280.92Z" fill="#F4F7FA"/>
<path d="M219.085 268.648L215.465 267.171L216.68 283.704C218.211 283.898 219.668 283.995 221.005 283.995L223.386 266.977L219.085 268.648Z" fill="#D8DEE8"/>
<path d="M205.868 267.897L209.925 280.92C210.193 281.792 210.897 282.47 211.796 282.712C212.404 282.881 212.987 283.002 213.546 283.147L209.512 266.735C207.423 267.679 205.868 267.897 205.868 267.897Z" fill="#D8DEE8"/>
<path d="M231.671 268.357L229.946 266.832L225.645 283.68C226.933 283.511 228.051 283.268 228.925 283.026L233.129 266.324L231.671 268.357Z" fill="#D8DEE8"/>
<defs>
<linearGradient id="paint0_linear_1:1155" x1="305.057" y1="34.8915" x2="239.914" y2="46.2916" gradientUnits="userSpaceOnUse">
<stop stop-color="#23ABB5"/>
<stop offset="1" stop-color="#57BF99"/>
</linearGradient>
<linearGradient id="paint1_linear_1:1155" x1="208.798" y1="51.2347" x2="190.247" y2="298.8" gradientUnits="userSpaceOnUse">
<stop stop-color="#FFC546"/>
<stop offset="0.9964" stop-color="#F36F56"/>
</linearGradient>
<linearGradient id="paint2_linear_1:1155" x1="95.2325" y1="80.4457" x2="166.804" y2="80.4457" gradientUnits="userSpaceOnUse">
<stop offset="0.494" stop-color="#ECEFF2"/>
<stop offset="1" stop-color="white"/>
</linearGradient>
<linearGradient id="paint3_linear_1:1155" x1="176.486" y1="249.123" x2="278.696" y2="249.123" gradientUnits="userSpaceOnUse">
<stop offset="0.00359712" stop-color="#D191C0"/>
<stop offset="1" stop-color="#8172B4"/>
</linearGradient>
<linearGradient id="paint4_linear_1:1155" x1="91.9631" y1="252.149" x2="140.769" y2="252.149" gradientUnits="userSpaceOnUse">
<stop stop-color="#FFC546"/>
<stop offset="0.9964" stop-color="#F36F56"/>
</linearGradient>
<linearGradient id="paint5_linear_1:1155" x1="121.184" y1="231.72" x2="110.66" y2="261.154" gradientUnits="userSpaceOnUse">
<stop stop-color="#FFC546"/>
<stop offset="0.9964" stop-color="#F36F56"/>
</linearGradient>
<linearGradient id="paint6_linear_1:1155" x1="129.253" y1="234.605" x2="118.73" y2="264.039" gradientUnits="userSpaceOnUse">
<stop stop-color="#FFC546"/>
<stop offset="0.9964" stop-color="#F36F56"/>
</linearGradient>
<linearGradient id="paint7_linear_1:1155" x1="144.291" y1="252.149" x2="193.097" y2="252.149" gradientUnits="userSpaceOnUse">
<stop stop-color="#FFC546"/>
<stop offset="0.9964" stop-color="#F36F56"/>
</linearGradient>
<linearGradient id="paint8_linear_1:1155" x1="173.511" y1="231.72" x2="162.988" y2="261.154" gradientUnits="userSpaceOnUse">
<stop stop-color="#FFC546"/>
<stop offset="0.9964" stop-color="#F36F56"/>
</linearGradient>
<linearGradient id="paint9_linear_1:1155" x1="181.581" y1="234.605" x2="171.058" y2="264.039" gradientUnits="userSpaceOnUse">
<stop stop-color="#FFC546"/>
<stop offset="0.9964" stop-color="#F36F56"/>
</linearGradient>
<linearGradient id="paint10_linear_1:1155" x1="196.618" y1="252.149" x2="245.425" y2="252.149" gradientUnits="userSpaceOnUse">
<stop stop-color="#FFC546"/>
<stop offset="0.9964" stop-color="#F36F56"/>
</linearGradient>
<linearGradient id="paint11_linear_1:1155" x1="225.839" y1="231.72" x2="215.316" y2="261.154" gradientUnits="userSpaceOnUse">
<stop stop-color="#FFC546"/>
<stop offset="0.9964" stop-color="#F36F56"/>
</linearGradient>
<linearGradient id="paint12_linear_1:1155" x1="233.909" y1="234.605" x2="223.385" y2="264.039" gradientUnits="userSpaceOnUse">
<stop stop-color="#FFC546"/>
<stop offset="0.9964" stop-color="#F36F56"/>
</linearGradient>
</defs>
</svg>
