<svg width="28" height="24" viewBox="0 0 28 24" fill="none" xmlns="http://www.w3.org/2000/svg">
<path d="M22.0038 13.0624C19.8237 13.0624 18.0481 11.3133 18.0481 9.1657C18.0481 7.01811 19.8237 5.26904 22.0038 5.26904C24.184 5.26904 25.9596 7.01811 25.9596 9.1657C25.9596 11.2912 24.184 13.0624 22.0038 13.0624Z" fill="#354457"/>
<path d="M21.8466 18.9958C24.9995 18.9958 27.5554 17.8658 27.5554 16.4718C27.5554 15.0779 24.9995 13.9479 21.8466 13.9479C18.6936 13.9479 16.1377 15.0779 16.1377 16.4718C16.1377 17.8658 18.6936 18.9958 21.8466 18.9958Z" fill="#354457"/>
<path d="M5.86615 13.5277C3.68599 13.5277 1.9104 11.7786 1.9104 9.63104C1.9104 7.48344 3.68599 5.73438 5.86615 5.73438C8.04631 5.73438 9.82191 7.48344 9.82191 9.63104C9.82191 11.7786 8.04631 13.5277 5.86615 13.5277Z" fill="#354457"/>
<path d="M5.70887 19.461C8.8618 19.461 11.4177 18.331 11.4177 16.9371C11.4177 15.5431 8.8618 14.4131 5.70887 14.4131C2.55595 14.4131 0 15.5431 0 16.9371C0 18.331 2.55595 19.461 5.70887 19.461Z" fill="#354457"/>
<path d="M14.2272 13.1162C10.6967 13.1162 7.80463 10.2766 7.80463 6.79701C7.80463 3.34064 10.6957 0.5 14.2272 0.5C17.7555 0.5 20.6273 3.3375 20.6273 6.81916C20.6273 10.2776 17.7566 13.1162 14.2272 13.1162Z" fill="#354457" stroke="white"/>
<path d="M23.4144 19.5721C23.4144 20.0209 23.2119 20.486 22.7696 20.9511C22.3248 21.4187 21.6576 21.8626 20.7949 22.2463C19.0707 23.0131 16.6538 23.5001 13.9575 23.5001C11.2613 23.5001 8.84435 23.0131 7.12019 22.2463C6.25749 21.8626 5.59027 21.4187 5.14549 20.9511C4.70317 20.486 4.50073 20.0209 4.50073 19.5721C4.50073 19.1233 4.70317 18.6581 5.14549 18.1931C5.59027 17.7254 6.25749 17.2815 7.12019 16.8978C8.84435 16.1311 11.2613 15.644 13.9575 15.644C16.6538 15.644 19.0707 16.1311 20.7949 16.8978C21.6576 17.2815 22.3248 17.7254 22.7696 18.1931C23.2119 18.6581 23.4144 19.1233 23.4144 19.5721Z" fill="#354457" stroke="white"/>
</svg>
