<svg width="244" height="111" viewBox="0 0 244 111" fill="none" xmlns="http://www.w3.org/2000/svg">
<path opacity="0.5" d="M7.87599 10.24C7.43169 9.7745 7.02971 9.28789 6.67004 8.78013C6.31038 8.27236 5.99302 7.74344 5.71799 7.21452C5.4641 6.66444 5.25253 6.11436 5.18906 5.52197C5.65451 6.00858 6.05649 6.47403 6.45848 6.98179C6.8393 7.4684 7.22012 7.97617 7.55863 8.46278C7.89714 8.97054 8.23565 9.47831 8.55301 9.98607C8.8492 10.515 9.1454 11.0439 9.35697 11.6152C8.78573 11.192 8.32028 10.7266 7.87599 10.24ZM11.7689 14.0059C11.515 13.35 11.4727 12.6095 11.6631 11.9325C11.917 11.1074 12.4247 10.3457 12.869 9.64756C13.0806 9.28789 13.2921 8.94938 13.4402 8.61087C13.5672 8.27236 13.6307 7.93385 13.546 7.63766C13.5249 7.48956 13.4191 7.38378 13.3345 7.25683C13.2075 7.17221 13.0806 7.08758 12.8902 7.02411C12.6998 6.96064 12.5093 6.91832 12.2766 6.89717C12.065 6.85485 11.79 6.85485 11.5996 6.87601H11.5784C11.2399 6.89717 10.9437 6.72791 10.9014 6.47403C10.9014 6.3894 10.9226 6.32593 10.9649 6.2413C11.0495 6.11436 11.1553 5.92395 11.2188 5.7547C11.2822 5.6066 11.3246 5.41619 11.3457 5.24693C11.3457 5.07767 11.3034 4.90842 11.2188 4.76032C11.113 4.63338 10.9437 4.48528 10.7533 4.40065C10.3302 4.16793 9.82242 4.12562 9.35697 4.21024C9.12424 4.25256 8.89152 4.31603 8.67995 4.40065C8.57416 4.44297 8.46838 4.50644 8.3626 4.54875C8.27797 4.59107 8.15103 4.65454 8.08756 4.69685C7.85483 4.84495 7.45285 4.84495 7.22012 4.67569C7.15665 4.61222 7.11434 4.54875 7.09318 4.48528C6.92393 4.0833 6.56426 3.61785 6.20459 3.21587C5.82377 2.79273 5.37947 2.41191 4.87171 2.09455C4.61783 1.94646 4.32163 1.81951 4.02543 1.7772C3.72924 1.73489 3.4542 1.7772 3.22147 1.88299C2.71371 2.13687 2.56561 2.60232 2.62908 3.08893C2.69255 3.57554 2.90412 4.04099 3.13685 4.50644L3.22147 4.67569V4.71801L3.24263 4.73916L3.26379 4.80264C3.28494 4.88726 3.3061 4.97189 3.28494 5.05652C3.26379 5.20462 3.158 5.37387 2.98875 5.47966C2.90412 5.54313 2.81949 5.58544 2.71371 5.62775C2.65024 5.64891 2.58677 5.64891 2.54445 5.67007H2.41751C2.18479 5.71238 1.9309 5.7547 1.71933 5.88164C1.61355 5.94511 1.50777 6.00858 1.40198 6.11436C1.35967 6.13552 1.31735 6.19899 1.27504 6.2413C1.23273 6.28362 1.21157 6.32593 1.19041 6.36824C1.10578 6.55866 1.12694 6.77023 1.23273 6.96064C1.44429 7.36262 1.95206 7.72229 2.39635 8.01848C2.65024 8.18774 2.65024 8.46278 2.41751 8.63203C2.33288 8.71666 2.20594 8.75897 2.079 8.78013C2.03669 8.78013 1.88859 8.82244 1.80396 8.86476C1.69818 8.88591 1.59239 8.92823 1.50777 8.9917C1.33851 9.09748 1.21157 9.22442 1.12694 9.39368C1.04231 9.56293 1 9.75335 1 9.94376C1.02116 10.1342 1.04231 10.3034 1.1481 10.4727C1.31735 10.8323 1.71933 11.1497 2.18479 11.4036C2.67139 11.6786 3.22147 11.9113 3.79271 12.1018C4.36394 12.2922 4.97749 12.4826 5.59104 12.6095C5.9084 12.6942 6.20459 12.7576 6.5431 12.8211C6.88161 12.8846 7.19897 12.9692 7.53748 13.0538C8.19334 13.2231 8.82805 13.4346 9.4416 13.6674C9.73779 13.7943 10.0551 13.9213 10.3302 14.0905C10.4571 14.154 10.6052 14.2386 10.7322 14.3232C10.9437 14.2174 11.1765 14.1328 11.4303 14.0482C11.515 14.0482 11.6419 14.027 11.7689 14.0059Z" stroke="#C59B82" stroke-miterlimit="10"/>
<path opacity="0.5" d="M123.921 78.5767C123.477 78.1113 123.075 77.6035 122.716 77.0957C122.356 76.588 122.017 76.059 121.763 75.5301C121.51 74.98 121.298 74.43 121.213 73.8587C121.679 74.3453 122.081 74.8108 122.483 75.3185C122.864 75.8052 123.244 76.3129 123.583 76.7995C123.921 77.3073 124.26 77.8151 124.577 78.3228C124.895 78.8517 125.17 79.3807 125.402 79.9307C124.831 79.5288 124.366 79.0633 123.921 78.5767ZM127.814 82.3426C127.56 81.6656 127.518 80.9463 127.709 80.2693C127.962 79.4441 128.47 78.6825 128.914 77.9843C129.126 77.6246 129.338 77.2861 129.486 76.9476C129.613 76.6091 129.655 76.2706 129.591 75.9744C129.57 75.8263 129.465 75.7205 129.38 75.5936C129.253 75.509 129.126 75.4032 128.957 75.3397C128.766 75.2762 128.555 75.2339 128.343 75.2128C128.132 75.1916 127.857 75.1916 127.666 75.1916H127.645C127.307 75.2128 127.01 75.0435 126.968 74.7896C126.968 74.705 126.989 74.6415 127.032 74.5569C127.116 74.43 127.222 74.2395 127.285 74.0703C127.349 73.901 127.391 73.7318 127.412 73.5625C127.412 73.3933 127.37 73.224 127.285 73.0759C127.18 72.9278 127.031 72.8009 126.82 72.6951C126.397 72.4835 125.889 72.4201 125.424 72.5047C125.191 72.547 124.958 72.6105 124.747 72.6951C124.641 72.7374 124.535 72.7797 124.429 72.8432C124.323 72.8855 124.218 72.949 124.154 72.9913C123.9 73.1605 123.519 73.1394 123.287 72.9701C123.223 72.9278 123.181 72.8644 123.16 72.8009C122.991 72.3989 122.631 71.9335 122.271 71.5315C121.89 71.1083 121.446 70.7275 120.938 70.4102C120.684 70.2621 120.388 70.1351 120.092 70.0928C119.796 70.0505 119.521 70.0716 119.288 70.1986C118.801 70.4525 118.632 70.9391 118.696 71.4045C118.759 71.8911 118.971 72.3566 119.203 72.822L119.288 72.9913L119.309 73.0336L119.33 73.0548L119.352 73.1182C119.373 73.2029 119.394 73.2875 119.373 73.351C119.352 73.5202 119.246 73.6683 119.077 73.7953C118.992 73.8587 118.886 73.901 118.78 73.9434C118.717 73.9645 118.675 73.9645 118.611 73.9857L118.484 74.0068C118.251 74.028 117.998 74.0914 117.786 74.1972C117.68 74.2607 117.574 74.3242 117.469 74.43C117.426 74.4723 117.384 74.5146 117.342 74.5781C117.299 74.6204 117.299 74.6627 117.257 74.705C117.172 74.8954 117.194 75.0858 117.299 75.2974C117.511 75.6994 118.019 76.059 118.463 76.3552C118.717 76.5245 118.717 76.7995 118.484 76.9688C118.4 77.0323 118.273 77.0746 118.146 77.0957C118.103 77.0957 117.955 77.138 117.871 77.1804C117.765 77.2227 117.659 77.265 117.574 77.3073C117.405 77.4131 117.278 77.54 117.194 77.7093C117.088 77.8997 117.045 78.0901 117.045 78.2805C117.067 78.4709 117.088 78.6402 117.194 78.8094C117.384 79.1691 117.786 79.4653 118.23 79.7403C118.696 80.0154 119.246 80.2481 119.817 80.4385C120.388 80.6289 121.002 80.8193 121.615 80.9463C121.933 81.0309 122.229 81.0944 122.567 81.1578C122.906 81.2213 123.223 81.3059 123.562 81.3906C124.218 81.5598 124.852 81.7714 125.466 82.0041C125.762 82.1311 126.079 82.258 126.354 82.4273C126.481 82.4907 126.63 82.5754 126.756 82.66C126.968 82.5542 127.201 82.4696 127.455 82.3849C127.56 82.3849 127.687 82.3638 127.814 82.3426Z" stroke="#C59B82" stroke-miterlimit="10"/>
<g opacity="0.5">
<path opacity="0.5" d="M221.18 9.05512C216.335 7.38373 214.071 14.0905 214.071 14.0905C210.517 22.257 204.339 24.4573 204.339 24.4573C214.283 23.463 221.053 16.862 221.053 16.862C226.046 10.8958 221.18 9.05512 221.18 9.05512Z" stroke="#C59B82" stroke-miterlimit="10"/>
<path opacity="0.5" d="M224.078 3.76587C224.078 3.76587 223.528 3.78703 223.613 4.4852C223.613 4.4852 223.634 5.54305 222.534 7.48948C222.534 7.48948 221.497 7.17213 220.545 8.22997C220.545 8.22997 222.068 8.27229 222.872 9.3936C222.872 9.3936 223.253 8.88584 222.999 7.84915C222.999 7.84915 224.311 6.09313 224.438 4.50636C224.438 4.50636 224.523 3.87165 224.078 3.76587Z" stroke="#C59B82" stroke-miterlimit="10"/>
</g>
<g opacity="0.5">
<path opacity="0.5" d="M230.235 39.7961C230.235 39.7961 227.442 39.2248 226.553 40.0499C226.553 40.0499 227.992 38.2516 229.896 38.6324C229.896 38.6324 228.669 34.5491 221.983 41.404C221.983 41.4251 232.795 45.3603 230.235 39.7961Z" stroke="#C59B82" stroke-miterlimit="10"/>
<path opacity="0.5" d="M232.435 45.8892C233.027 46.6932 232.794 47.7722 231.906 48.3011C231.017 48.83 229.811 48.6184 229.219 47.8145C228.626 47.0105 228.859 45.9315 229.748 45.4026C230.636 44.8525 231.842 45.0852 232.435 45.8892Z" stroke="#C59B82" stroke-miterlimit="10"/>
<path opacity="0.5" d="M236.264 43.583C236.857 44.387 236.624 45.466 235.735 45.9949C234.847 46.5238 233.641 46.3122 233.048 45.5083C232.456 44.7043 232.689 43.6253 233.577 43.0964C234.466 42.5675 235.672 42.779 236.264 43.583Z" stroke="#C59B82" stroke-miterlimit="10"/>
<path opacity="0.5" d="M239.988 41.3193C240.58 42.1233 240.347 43.2023 239.459 43.7312C238.57 44.2601 237.364 44.0486 236.772 43.2446C236.18 42.4406 236.412 41.3616 237.301 40.8327C238.211 40.3038 239.395 40.5154 239.988 41.3193Z" stroke="#C59B82" stroke-miterlimit="10"/>
<path opacity="0.5" d="M240.432 45.3179C241.024 46.1218 240.792 47.2008 239.903 47.7297C239.015 48.2587 237.809 48.0471 237.216 47.2431C236.624 46.4392 236.857 45.3602 237.745 44.8313C238.634 44.3023 239.84 44.5139 240.432 45.3179Z" stroke="#C59B82" stroke-miterlimit="10"/>
<path opacity="0.5" d="M236.518 47.6663C237.111 48.4702 236.878 49.5492 235.989 50.0781C235.101 50.6071 233.895 50.3955 233.302 49.5915C232.71 48.7876 232.943 47.7086 233.831 47.1796C234.72 46.6507 235.926 46.8623 236.518 47.6663Z" stroke="#C59B82" stroke-miterlimit="10"/>
<path opacity="0.5" d="M240.898 49.2532C241.49 50.0571 241.257 51.1361 240.369 51.665C239.48 52.194 238.274 51.9824 237.682 51.1784C237.089 50.3745 237.322 49.2955 238.211 48.7666C239.099 48.2376 240.305 48.4492 240.898 49.2532Z" stroke="#C59B82" stroke-miterlimit="10"/>
<path opacity="0.5" d="M237.385 51.3689C237.766 51.8978 237.618 52.5959 237.047 52.9345C236.476 53.273 235.693 53.146 235.312 52.6171C234.931 52.0882 235.079 51.39 235.65 51.0515C236.222 50.713 236.983 50.8611 237.385 51.3689Z" stroke="#C59B82" stroke-miterlimit="10"/>
<path opacity="0.5" d="M240.009 52.9766C240.39 53.5056 240.242 54.2037 239.67 54.5422C239.099 54.8808 238.316 54.7538 237.935 54.2249C237.555 53.696 237.703 52.9978 238.274 52.6593C238.845 52.2996 239.607 52.4477 240.009 52.9766Z" stroke="#C59B82" stroke-miterlimit="10"/>
<path opacity="0.5" d="M231.948 42.8426C232.265 43.2657 232.138 43.8581 231.652 44.1543C231.165 44.4505 230.53 44.3235 230.213 43.9004C229.896 43.4773 230.023 42.8849 230.509 42.5887C230.996 42.2925 231.631 42.4194 231.948 42.8426Z" stroke="#C59B82" stroke-miterlimit="10"/>
<path opacity="0.5" d="M242.717 51.8555C243.034 52.2786 242.907 52.871 242.421 53.1672C241.934 53.4634 241.299 53.3365 240.982 52.9133C240.665 52.4902 240.792 51.8978 241.278 51.6016C241.744 51.3054 242.4 51.4324 242.717 51.8555Z" stroke="#C59B82" stroke-miterlimit="10"/>
<path opacity="0.5" d="M242.336 54.0981C242.654 54.5213 242.527 55.1137 242.04 55.4099C241.553 55.7061 240.919 55.5791 240.601 55.156C240.284 54.7328 240.411 54.1405 240.898 53.8443C241.363 53.5481 242.019 53.6538 242.336 54.0981Z" stroke="#C59B82" stroke-miterlimit="10"/>
<path opacity="0.5" d="M235.735 40.5576C236.053 40.9808 235.926 41.5732 235.439 41.8694C234.953 42.1656 234.318 42.0386 234 41.6155C233.683 41.1923 233.81 40.6 234.297 40.3038C234.762 40.0076 235.418 40.1345 235.735 40.5576Z" stroke="#C59B82" stroke-miterlimit="10"/>
<path opacity="0.5" d="M232.647 41.1713C230.256 38.9498 233.726 34.4646 235.333 32.6451C235.672 32.2643 235.037 31.7565 234.678 32.1373C232.689 34.3588 229.198 39.0979 232.075 41.7637C232.477 42.1022 233.027 41.531 232.647 41.1713Z" stroke="#C59B82" stroke-miterlimit="10"/>
</g>
<g opacity="0.5">
<path opacity="0.5" d="M200.404 78.6402L200.319 78.6614C200.298 77.8997 200.171 75.6571 199.642 74.6204C199.007 73.3722 198.203 75.0859 198.203 75.0859C198.203 75.0859 198.944 76.99 199.007 78.8306L198.753 78.873C196.722 91.7787 182.505 92.7519 182.505 92.7519C181.976 93.1327 181.447 93.0269 181.447 93.0269C180.897 93.4924 181.299 94.1271 181.299 94.1271L182.039 94.3598C182.103 94.6771 182.484 94.7829 182.484 94.7829C186.059 96.0523 189.952 95.3542 189.952 95.3542C204.254 92.0537 202.392 83.1043 200.404 78.6402Z" stroke="#C59B82" stroke-miterlimit="10"/>
<path opacity="0.5" d="M197.653 80.227L197.59 80.2059C197.801 79.7827 198.436 78.5133 198.478 77.8363C198.521 76.99 197.547 77.7305 197.547 77.7305C197.547 77.7305 197.357 78.9576 196.828 79.9732L196.68 79.9308C191.581 86.4472 183.52 83.4006 183.52 83.4006C183.118 83.464 182.864 83.2948 182.864 83.2948C182.42 83.4217 182.441 83.866 182.441 83.866L182.78 84.1834C182.716 84.3738 182.886 84.5219 182.886 84.5219C184.451 86.1087 186.778 86.7222 186.778 86.7222C195.601 88.4994 197.336 83.1467 197.653 80.227Z" stroke="#C59B82" stroke-miterlimit="10"/>
</g>
<g opacity="0.5">
<path opacity="0.5" d="M106.425 14.7886C106.425 14.7886 104.013 13.8154 105.853 12.0382C105.853 12.0382 108.837 9.56286 110.741 8.88584C110.741 8.88584 112.074 8.3146 113.026 9.75327C113.026 9.75327 115.501 13.7096 115.818 17.3274C115.818 17.3274 116.009 17.9621 115.057 18.7026C115.057 18.7026 113.724 19.4008 112.835 19.2739C112.856 19.2739 107.821 15.8253 106.425 14.7886Z" stroke="#C59B82" stroke-miterlimit="10"/>
<path opacity="0.5" d="M114.316 9.52058C114.316 9.52058 116.728 12.3768 116.855 17.0313C116.855 17.0313 119.225 16.2908 120.05 16.8409C120.05 16.8409 122.06 9.52058 117.998 9.41479L114.316 9.52058Z" stroke="#C59B82" stroke-miterlimit="10"/>
<path opacity="0.5" d="M121.446 11.2554C121.446 11.2554 122.356 12.9902 121.383 16.3965C121.383 16.3965 122.843 16.2484 123.879 16.735C123.879 16.735 126.08 17.6448 125.487 14.5135C125.508 14.4924 124.577 12.0382 121.446 11.2554Z" stroke="#C59B82" stroke-miterlimit="10"/>
<path opacity="0.5" d="M104.965 14.9155C104.965 14.9155 107.504 16.6081 111.904 19.6547C111.904 19.6547 110.318 21.4107 110.593 22.2993C110.593 22.2993 102.278 21.4742 103.569 18.0044L104.965 14.9155Z" stroke="#C59B82" stroke-miterlimit="10"/>
<path opacity="0.5" d="M104.288 21.5588C104.288 21.5588 105.769 22.934 109.662 23.2937C109.662 23.2937 109.006 24.4785 109.133 25.5363C109.133 25.5363 109.323 27.7155 106.256 26.1287C106.277 26.1287 104.034 24.4996 104.288 21.5588Z" stroke="#C59B82" stroke-miterlimit="10"/>
</g>
<path opacity="0.5" d="M232.287 72.9489C230.595 73.8375 228.902 74.7049 227.273 75.6781C229.262 74.0914 231.293 72.5469 233.366 71.0025C234.064 70.4947 233.282 69.4157 232.583 69.9446C230.595 71.4256 228.669 72.9066 226.744 74.4299C227.76 73.0124 228.712 71.4891 229.854 70.1985C230.425 69.5638 229.368 68.7175 228.817 69.3522C227.463 70.8967 226.384 72.695 225.157 74.3241C224.057 75.7839 222.703 77.0957 221.666 78.5766C221.603 78.6401 221.561 78.7036 221.54 78.7671C221.455 78.894 221.37 79.0209 221.307 79.1267C219.339 78.1958 217.964 79.8037 217.964 79.8037L217.139 80.7135C218.006 80.9039 218.324 81.7925 218.324 81.7925C217.964 81.3482 216.948 81.2636 216.631 81.2636L215.298 82.7234C215.319 82.7234 215.319 82.7234 215.341 82.7234C216.208 82.9138 216.525 83.8024 216.525 83.8024C216.145 83.3369 215.044 83.2735 214.79 83.2735L213.479 84.7121C214.283 84.9449 214.579 85.77 214.579 85.77C214.262 85.368 213.394 85.2622 212.992 85.2411L211.638 86.722C212.336 86.9971 212.611 87.7376 212.611 87.7376C212.315 87.3779 211.617 87.251 211.173 87.2298L209.797 88.7319C210.432 89.0281 210.665 89.684 210.665 89.684C210.411 89.3667 209.819 89.2397 209.374 89.1762L207.957 90.7207C208.507 91.0381 208.718 91.6304 208.718 91.6304C208.486 91.3342 207.978 91.2073 207.576 91.1438L206.984 91.7997C206.01 93.048 206.687 94.0212 206.772 94.1481C206.899 94.2116 208.041 94.7617 209.353 93.7884L221.73 83.0407C221.73 83.0407 223.359 81.729 222.28 80.0576C223.994 79.698 225.327 78.5978 226.659 77.6246C228.606 76.2071 230.87 75.1492 233.007 74.0068C233.832 73.5836 233.07 72.5258 232.287 72.9489Z" stroke="#C59B82" stroke-opacity="0.5" stroke-miterlimit="10"/>
<g opacity="0.5">
<path opacity="0.5" d="M154.705 12.8634C154.705 12.7153 154.641 12.5884 154.514 12.5038C154.388 12.4191 154.218 12.3768 154.07 12.4191L153.922 12.4403L136.129 10.5997C136.129 10.5997 133.167 10.2611 132.533 14.0271C132.533 14.0271 131.834 22.4052 132.152 24.7536C132.152 24.7536 132.257 28.7946 135.812 30.8256C136.171 31.1007 136.637 31.3122 137.187 31.4392C137.229 31.4603 137.293 31.4815 137.335 31.4815C137.335 31.4815 137.314 31.4603 137.272 31.4392C137.504 31.4815 137.758 31.5027 138.012 31.5027C138.287 31.5027 138.583 31.4815 138.922 31.418L154.451 27.779C154.684 27.7156 154.853 27.5252 154.853 27.3136L154.705 12.8634ZM138.689 30.466C138.456 30.5083 138.224 30.5294 138.012 30.5294C136.32 30.5294 135.748 29.1966 135.643 28.9427C135.346 26.3192 135.643 20.6915 135.643 20.6069C135.748 16.7986 139.028 16.3543 139.155 16.3332C139.176 16.3332 139.176 16.3332 139.197 16.3332L153.647 13.4347L153.774 26.8905L138.689 30.466Z" stroke="#C59B82" stroke-miterlimit="10"/>
<path opacity="0.5" d="M141.545 18.999C140.657 18.999 139.937 19.6549 139.937 20.4377C139.937 21.2417 140.657 21.8764 141.545 21.8764C142.434 21.8764 143.153 21.2205 143.153 20.4377C143.153 19.6337 142.434 18.999 141.545 18.999Z" stroke="#C59B82" stroke-miterlimit="10"/>
<path opacity="0.5" d="M140.339 24.9441C139.789 24.9441 139.345 25.3461 139.345 25.8538C139.345 26.3616 139.789 26.7636 140.339 26.7636C140.889 26.7636 141.334 26.3616 141.334 25.8538C141.334 25.3461 140.889 24.9441 140.339 24.9441Z" stroke="#C59B82" stroke-miterlimit="10"/>
<path opacity="0.5" d="M150.749 16.1638C150.199 16.1638 149.754 16.5658 149.754 17.0736C149.754 17.5813 150.199 17.9833 150.749 17.9833C151.299 17.9833 151.743 17.5813 151.743 17.0736C151.743 16.5658 151.299 16.1638 150.749 16.1638Z" stroke="#C59B82" stroke-miterlimit="10"/>
<path opacity="0.5" d="M148.231 21.8975C146.856 21.8975 145.756 22.8918 145.756 24.1401C145.756 25.3672 146.856 26.3827 148.231 26.3827C149.606 26.3827 150.706 25.3883 150.706 24.1401C150.706 22.8918 149.585 21.8975 148.231 21.8975Z" stroke="#C59B82" stroke-miterlimit="10"/>
</g>
<g opacity="0.5">
<path opacity="0.5" d="M144.359 41.679C147.109 46.6085 145.1 52.6806 139.726 55.431C134.352 58.1813 127.56 56.6157 124.281 51.9401L122.991 52.5959C126.672 57.9063 134.373 59.7046 140.466 56.5946C146.559 53.4845 148.802 46.5874 145.65 41.002L144.359 41.679Z" stroke="#C59B82" stroke-miterlimit="10"/>
<path opacity="0.5" d="M143.893 41.9116L141.376 43.2022C141.439 43.4772 141.418 43.7734 141.27 44.0485C141.08 44.4293 140.72 44.7043 140.297 44.8101C140.276 44.9371 140.233 45.0428 140.191 45.1698C139.852 45.868 138.943 46.1853 138.181 45.868C138.096 45.8256 138.012 45.7833 137.927 45.741C137.504 46.1853 136.785 46.3334 136.171 46.0795C136.087 46.0584 136.023 46.0161 135.96 45.9737L124.746 51.7073C127.878 56.1291 134.352 57.6312 139.472 55.0077C144.592 52.3843 146.496 46.6085 143.893 41.9116ZM131.263 52.5324C130.924 52.7016 130.416 52.4901 130.141 52.0246C129.866 51.5803 129.909 51.0726 130.247 50.9033C130.586 50.734 131.094 50.9456 131.369 51.4111C131.644 51.8554 131.601 52.3631 131.263 52.5324ZM135.769 47.6028C136.108 47.4336 136.615 47.6451 136.89 48.1106C137.166 48.5549 137.123 49.0627 136.785 49.2319C136.446 49.4012 135.938 49.1896 135.663 48.7241C135.388 48.2798 135.431 47.7932 135.769 47.6028ZM136.129 52.892C135.79 53.0613 135.283 52.8497 135.008 52.3843C134.733 51.94 134.775 51.4322 135.113 51.263C135.452 51.0937 135.96 51.3053 136.235 51.7496C136.51 52.215 136.467 52.7228 136.129 52.892ZM140.508 46.2488C140.233 45.8045 140.276 45.2967 140.614 45.1275C140.953 44.9582 141.46 45.1698 141.735 45.6352C142.01 46.0795 141.968 46.5873 141.63 46.7566C141.291 46.9258 140.783 46.7142 140.508 46.2488ZM140.995 51.3053C140.656 51.4745 140.149 51.263 139.874 50.7975C139.599 50.3532 139.641 49.8455 139.979 49.6762C140.318 49.5069 140.826 49.7185 141.101 50.184C141.397 50.6283 141.333 51.136 140.995 51.3053Z" stroke="#C59B82" stroke-miterlimit="10"/>
</g>
<g opacity="0.5">
<g opacity="0.5">
<path opacity="0.5" d="M192.364 50.7765V48.7666H193.083L193.506 50.1418L193.929 48.7666H194.649V50.7765H194.205V49.1897L193.739 50.7765H193.274L192.808 49.1897V50.7765H192.364Z" stroke="#C59B82" stroke-miterlimit="10"/>
<path opacity="0.5" d="M195.114 50.7765V48.7666H195.601V50.7765H195.114Z" stroke="#C59B82" stroke-miterlimit="10"/>
<path opacity="0.5" d="M196.066 50.7766V48.7878H196.553V50.4381H197.738V50.7766H196.066Z" stroke="#C59B82" stroke-miterlimit="10"/>
<path opacity="0.5" d="M198.076 50.7765V48.7666H198.563V49.6552L199.536 48.7666H200.171L199.282 49.5494L200.234 50.7765H199.621L198.965 49.8244L198.584 50.163V50.7765H198.076Z" stroke="#C59B82" stroke-miterlimit="10"/>
</g>
<path opacity="0.5" d="M201.546 39.5634C201.546 40.5366 200.615 42.4619 199.494 42.4619H193.232C192.089 42.4619 191.179 40.5366 191.179 39.5634C191.179 38.5902 192.11 37.8074 193.232 37.8074H199.494C200.615 37.8074 201.546 38.5902 201.546 39.5634Z" stroke="#C59B82" stroke-miterlimit="10"/>
<path opacity="0.5" d="M200.658 42.9907H191.92C190.735 42.9907 189.783 43.7947 189.783 44.7891V58.0544C189.783 59.0488 190.735 59.8528 191.92 59.8528H200.658C201.821 59.8528 202.794 59.0488 202.794 58.0544V44.7891C202.773 43.7947 201.821 42.9907 200.658 42.9907ZM201.081 52.3421H191.497V47.0952H201.081V52.3421Z" stroke="#C59B82" stroke-miterlimit="10"/>
<path opacity="0.5" d="M204.148 47.3069L206.116 59.8529H212.273L214.24 47.3069H204.148ZM211.702 58.2238H206.687L205.079 47.9839H213.309L211.702 58.2238Z" stroke="#C59B82" stroke-miterlimit="10"/>
</g>
<g opacity="0.5">
<path opacity="0.5" d="M181.003 42.6947L180.03 41.7849C179.247 41.0656 177.956 41.0444 177.152 41.7426L172.688 45.8894C173.069 46.2067 173.429 46.5452 173.704 46.9472C174 46.9049 174.317 46.8626 174.635 46.8626C175.841 46.8626 176.962 47.2222 177.85 47.8146L180.939 45.2758C181.764 44.5776 181.786 43.414 181.003 42.6947Z" stroke="#C59B82" stroke-miterlimit="10"/>
<path opacity="0.5" d="M174.254 47.4761C173.979 47.4761 173.725 47.4973 173.471 47.5396C172.667 46.3971 171.228 45.6355 169.62 45.6355C168.012 45.6355 166.574 46.3971 165.77 47.5396C165.537 47.4973 165.283 47.4761 165.05 47.4761C162.533 47.4761 160.481 49.3168 160.481 51.6017C160.481 52.5538 160.84 53.4212 161.433 54.1406H177.872C178.464 53.4424 178.824 52.575 178.824 51.6017C178.824 49.338 176.771 47.4761 174.254 47.4761Z" stroke="#C59B82" stroke-miterlimit="10"/>
<path opacity="0.5" d="M163.273 60.6146C163.527 61.9264 164.733 63.5555 166.531 63.5555H172.54C174.338 63.5555 175.375 61.9264 175.798 60.6146L177.258 55.1985H162.025L163.273 60.6146Z" stroke="#C59B82" stroke-miterlimit="10"/>
</g>
<g opacity="0.5">
<g opacity="0.5">
<path opacity="0.5" d="M187.117 24.2034C192.152 21.855 194.839 17.4544 193.189 14.302L174.634 22.9763C176.56 26.0018 182.06 26.573 187.117 24.2034Z" stroke="#C59B82" stroke-miterlimit="10"/>
<path opacity="0.5" d="M189.698 8.23002C187.752 5.26806 182.272 4.71798 177.279 7.0664C172.286 9.41481 169.62 13.752 171.165 16.9043L189.698 8.23002Z" stroke="#C59B82" stroke-miterlimit="10"/>
<path opacity="0.5" d="M192.279 10.6841L172.074 20.1413C171.609 20.5644 171.482 21.1991 171.799 21.7492C172.18 22.4262 173.111 22.7012 173.873 22.3416L193.253 13.2864C194.014 12.9268 194.31 12.1016 193.908 11.4246C193.591 10.8534 192.914 10.5784 192.279 10.6841Z" stroke="#C59B82" stroke-miterlimit="10"/>
</g>
<path opacity="0.5" d="M170.276 19.1258C170.297 19.422 169.176 21.3261 170.89 19.9086C172.603 18.4911 172.836 17.2429 174.275 17.264C175.714 17.2852 176.391 18.0468 177.745 16.4177C179.099 14.7887 181.426 14.0059 182.188 13.9635C182.949 13.9212 185.446 13.4346 186.271 12.1229C187.096 10.8112 187.583 10.8112 189.444 10.3457C191.306 9.8591 191.623 10.0072 192.935 9.39365C194.247 8.7801 192.956 9.01283 192.174 8.90704C191.412 8.80126 189.91 8.67432 189.91 8.67432L172.371 16.862C172.371 16.8409 170.213 17.7718 170.276 19.1258Z" stroke="#C59B82" stroke-miterlimit="10"/>
</g>
<g opacity="0.5">
<path opacity="0.5" d="M110.36 44.387C110.677 43.6042 111.079 42.8214 111.714 42.356C112.708 41.6366 114.062 41.2135 115.163 40.5999C115.945 40.1556 115.163 39.1401 114.38 39.5844C113.216 40.2403 111.756 40.6634 110.72 41.5097C109.873 42.1867 109.387 43.2445 109.006 44.2389C104.119 43.6888 101.347 43.7735 100.374 48.5126C99.3584 53.5056 101.559 58.0332 106.911 58.6468C112.285 59.2815 115.628 55.4098 116.644 50.4167C117.596 45.6141 115.289 44.9794 110.36 44.387Z" stroke="#C59B82" stroke-miterlimit="10"/>
<path opacity="0.5" d="M109.789 41.7636C109.789 41.7636 109.154 39.1825 107.927 38.8651C107.927 38.8651 110.381 39.1613 110.825 40.9173C110.825 40.9173 114.443 37.8707 104.584 35.7974C104.584 35.8185 105.261 46.6508 109.789 41.7636Z" stroke="#C59B82" stroke-miterlimit="10"/>
</g>
<g opacity="0.5">
<path opacity="0.5" d="M56.3253 33.9779L55.6695 36.6225L59.2027 36.157L61.6357 39.0978L64.2168 38.1669C62.2704 36.0935 62.2069 34.5068 59.9008 34.1894C60.4509 33.4278 61.9107 33.047 62.7993 32.8142C64.4073 32.4123 66.2902 32.7296 67.9405 33.0681C68.6175 33.1951 68.7444 32.243 68.0674 32.0949C66.0152 31.6929 63.963 31.4813 61.9742 31.968C60.9375 32.243 59.4989 32.7931 58.9065 33.724C57.2139 32.2007 55.4156 32.8777 53.1518 32.6238L56.3253 33.9779Z" stroke="#C59B82" stroke-miterlimit="10"/>
<path opacity="0.5" d="M64.4708 39.0131L61.7415 40.1133L59.0123 36.9609L54.654 37.4052L55.3733 34.3586L51.8824 32.9199C48.7935 33.3854 46.1489 35.1202 44.8583 37.8706C42.1926 43.5618 47.0798 43.9003 52.5171 46.6719C57.7006 49.3165 62.2916 52.9555 64.9785 47.222C66.2479 44.5985 65.9306 41.6154 64.4708 39.0131Z" stroke="#C59B82" stroke-miterlimit="10"/>
</g>
<g opacity="0.5">
<path opacity="0.5" d="M40.0344 9.62638C40.0344 9.62638 40.119 6.11434 38.9342 5.22575C38.9342 5.22575 41.4096 6.57979 41.3672 8.97052C41.3672 8.97052 46.0429 6.60095 36.3319 0C36.3108 0 33.8566 13.9424 40.0344 9.62638Z" stroke="#C59B82" stroke-miterlimit="10"/>
<path opacity="0.5" d="M33.1373 13.604C32.291 14.4926 30.937 14.4291 30.0907 13.477C29.2445 12.525 29.2656 11.0228 30.0907 10.1342C30.937 9.24564 32.291 9.30911 33.1373 10.2612C34.0048 11.2132 33.9836 12.7154 33.1373 13.604Z" stroke="#C59B82" stroke-miterlimit="10"/>
<path opacity="0.5" d="M36.755 17.7295C35.9088 18.618 34.5547 18.5546 33.7085 17.6025C32.8622 16.6505 32.8833 15.1483 33.7085 14.2597C34.5547 13.3711 35.9088 13.4346 36.755 14.3867C37.6013 15.3387 37.6013 16.8409 36.755 17.7295Z" stroke="#C59B82" stroke-miterlimit="10"/>
<path opacity="0.5" d="M40.2884 21.7705C39.4421 22.6591 38.0881 22.5956 37.2418 21.6435C36.3955 20.6915 36.4167 19.1893 37.2629 18.3007C38.1092 17.4121 39.4632 17.4756 40.3095 18.4277C41.1346 19.3797 41.1135 20.8819 40.2884 21.7705Z" stroke="#C59B82" stroke-miterlimit="10"/>
<path opacity="0.5" d="M35.5491 23.1457C34.7028 24.0343 33.3488 23.9708 32.5025 23.0188C31.6563 22.0667 31.6774 20.5646 32.5025 19.676C33.3488 18.7874 34.7028 18.8509 35.5491 19.8029C36.3954 20.755 36.3954 22.2571 35.5491 23.1457Z" stroke="#C59B82" stroke-miterlimit="10"/>
<path opacity="0.5" d="M31.868 18.9143C31.0217 19.8029 29.6677 19.7394 28.8214 18.7873C27.9751 17.8353 27.9963 16.3331 28.8214 15.4445C29.6677 14.5559 31.0217 14.6194 31.868 15.5715C32.7142 16.5447 32.7142 18.0257 31.868 18.9143Z" stroke="#C59B82" stroke-miterlimit="10"/>
<path opacity="0.5" d="M30.8735 24.5632C30.0273 25.4518 28.6732 25.3883 27.8269 24.4363C26.9807 23.4842 27.0018 21.9821 27.8269 21.0935C28.6732 20.2049 30.0273 20.2683 30.8735 21.2204C31.7198 22.1725 31.7198 23.6746 30.8735 24.5632Z" stroke="#C59B82" stroke-miterlimit="10"/>
<path opacity="0.5" d="M27.552 20.7549C27.0019 21.3262 26.1133 21.2839 25.5844 20.6703C25.0343 20.0568 25.0343 19.0835 25.5844 18.4911C26.1345 17.9199 27.023 17.9622 27.552 18.5758C28.102 19.2105 28.102 20.1837 27.552 20.7549Z" stroke="#C59B82" stroke-miterlimit="10"/>
<path opacity="0.5" d="M26.1979 24.2671C25.6478 24.8384 24.7592 24.7961 24.2303 24.1825C23.6802 23.569 23.6802 22.5957 24.2303 22.0034C24.7804 21.4321 25.669 21.4744 26.1979 22.088C26.748 22.7227 26.748 23.6959 26.1979 24.2671Z" stroke="#C59B82" stroke-miterlimit="10"/>
<path opacity="0.5" d="M36.7128 12.3769C36.2474 12.8635 35.528 12.8212 35.0626 12.3134C34.6183 11.7845 34.6183 10.9805 35.0626 10.5151C35.528 10.0285 36.2474 10.0708 36.7128 10.5785C37.1783 11.0863 37.1783 11.8903 36.7128 12.3769Z" stroke="#C59B82" stroke-miterlimit="10"/>
<path opacity="0.5" d="M28.1229 27.3136C27.6575 27.8002 26.9381 27.7579 26.4727 27.2502C26.0284 26.7424 26.0284 25.9173 26.4727 25.4518C26.9381 24.9652 27.6575 25.0075 28.1229 25.5153C28.5672 26.0231 28.5672 26.827 28.1229 27.3136Z" stroke="#C59B82" stroke-miterlimit="10"/>
<path opacity="0.5" d="M25.3304 27.3349C24.8649 27.8215 24.1456 27.7792 23.6801 27.2714C23.2359 26.7425 23.2359 25.9385 23.6801 25.4731C24.1456 24.9865 24.8649 25.0288 25.3304 25.5365C25.7958 26.0443 25.7958 26.8483 25.3304 27.3349Z" stroke="#C59B82" stroke-miterlimit="10"/>
<path opacity="0.5" d="M40.2882 16.46C39.8228 16.9466 39.1034 16.9043 38.638 16.3966C38.1937 15.8676 38.1937 15.0637 38.638 14.5771C39.1034 14.0905 39.8228 14.1328 40.2882 14.6405C40.7325 15.1695 40.7325 15.9734 40.2882 16.46Z" stroke="#C59B82" stroke-miterlimit="10"/>
<path opacity="0.5" d="M38.892 12.8423C41.0711 9.47836 47.2278 12.7154 49.7878 14.281C50.3378 14.6195 50.8033 13.7309 50.2532 13.3924C47.122 11.4671 40.648 8.25126 38.0668 12.2922C37.7072 12.8211 38.5535 13.3924 38.892 12.8423Z" stroke="#C59B82" stroke-miterlimit="10"/>
</g>
<g opacity="0.5">
<path opacity="0.5" d="M171.059 73.8375C171.101 73.7105 171.059 73.5836 170.953 73.4567C170.848 73.3509 170.678 73.2662 170.509 73.2451L170.34 73.2239L152.293 66.3268C152.293 66.3268 149.289 65.142 147.702 68.2309C147.702 68.2309 144.909 75.2973 144.655 77.413C144.655 77.413 143.767 80.9462 146.961 83.7601C147.279 84.0986 147.702 84.4371 148.231 84.691C148.273 84.7121 148.315 84.7544 148.379 84.7756C148.379 84.7756 148.358 84.7544 148.315 84.7333C148.548 84.8391 148.802 84.9237 149.077 85.0083C149.373 85.093 149.691 85.1564 150.05 85.1987L167.103 86.6586C167.357 86.6797 167.568 86.5528 167.632 86.3835L171.059 73.8375ZM150.008 84.3313C149.754 84.289 149.5 84.2467 149.289 84.1832C147.533 83.6754 147.258 82.3426 147.215 82.1098C147.554 79.7403 149.267 74.9588 149.289 74.8953C150.346 71.6372 153.859 72.2084 154.007 72.2296C154.028 72.2296 154.049 72.2296 154.049 72.2296L169.811 74.0279L166.595 85.7488L150.008 84.3313Z" stroke="#C59B82" stroke-miterlimit="10"/>
<path opacity="0.5" d="M155.827 75.255C154.896 75.0011 153.986 75.3396 153.796 76.0378C153.605 76.7359 154.176 77.5187 155.107 77.7726C156.038 78.0265 156.948 77.688 157.138 76.9898C157.35 76.2916 156.757 75.5088 155.827 75.255Z" stroke="#C59B82" stroke-miterlimit="10"/>
<path opacity="0.5" d="M153.097 80.0364C152.526 79.8672 151.955 80.0787 151.828 80.523C151.701 80.9462 152.061 81.4328 152.632 81.602C153.203 81.7713 153.774 81.5597 153.901 81.1154C154.028 80.6923 153.669 80.2057 153.097 80.0364Z" stroke="#C59B82" stroke-miterlimit="10"/>
<path opacity="0.5" d="M166.088 75.5301C165.516 75.3608 164.945 75.5724 164.818 76.0167C164.691 76.4398 165.051 76.9264 165.622 77.0957C166.193 77.2649 166.765 77.0534 166.892 76.6091C167.04 76.1859 166.68 75.6993 166.088 75.5301Z" stroke="#C59B82" stroke-miterlimit="10"/>
<path opacity="0.5" d="M162.067 79.7403C160.65 79.3383 159.254 79.8672 158.936 80.9462C158.64 82.0252 159.529 83.21 160.946 83.612C162.364 84.014 163.76 83.485 164.077 82.406C164.395 81.3482 163.485 80.1634 162.067 79.7403Z" stroke="#C59B82" stroke-miterlimit="10"/>
</g>
<g opacity="0.5">
<path opacity="0.5" d="M92.1438 24.0131C88.6529 28.4349 82.2635 28.9215 77.6725 25.0287C73.0814 21.1358 71.9178 14.2386 74.9644 9.43603L73.8642 8.50513C70.3733 13.9424 71.6639 21.7282 76.8897 26.1711C82.1154 30.5929 89.3299 30.0217 93.2651 24.9863L92.1438 24.0131Z" stroke="#C59B82" stroke-miterlimit="10"/>
<path opacity="0.5" d="M91.7629 23.6747L89.6049 21.8341C89.3721 22.0033 89.0971 22.088 88.7797 22.0668C88.3566 22.0457 87.9546 21.8129 87.7007 21.4533C87.5738 21.4744 87.4469 21.4956 87.3199 21.4956C86.5583 21.4533 85.9236 20.7339 85.9024 19.9088C85.9024 19.803 85.9024 19.7184 85.9236 19.6338C85.3523 19.401 84.9503 18.8087 84.9292 18.1528C84.9292 18.0682 84.9292 17.9835 84.9504 17.9201L75.3451 9.77466C72.4466 14.3657 73.5679 20.9243 77.9474 24.648C82.3481 28.3504 88.4201 27.885 91.7629 23.6747ZM77.08 16.1006C76.7838 15.8467 76.8049 15.2966 77.1011 14.8735C77.3973 14.4503 77.8839 14.2811 78.1801 14.535C78.4763 14.7888 78.4552 15.3389 78.159 15.7621C77.8628 16.1852 77.3762 16.3333 77.08 16.1006ZM83.3636 18.3644C83.6598 18.6182 83.6386 19.1683 83.3424 19.5915C83.0462 20.0146 82.5596 20.1838 82.2634 19.93C81.9672 19.6761 81.9884 19.126 82.2846 18.7029C82.6019 18.2797 83.0885 18.1316 83.3636 18.3644ZM78.6244 20.7128C78.3282 20.4589 78.3494 19.9088 78.6456 19.4857C78.9418 19.0625 79.4284 18.8933 79.7246 19.1472C80.0208 19.401 79.9996 19.9511 79.7034 20.3743C79.3861 20.8186 78.8995 20.9667 78.6244 20.7128ZM86.4313 22.2149C86.7275 21.7918 87.2141 21.6225 87.5103 21.8764C87.8065 22.1303 87.7854 22.6804 87.4892 23.1035C87.193 23.5266 86.7064 23.6959 86.4102 23.442C86.114 23.2093 86.1351 22.6592 86.4313 22.2149ZM81.9672 24.6268C81.671 24.3729 81.6922 23.8228 81.9884 23.3997C82.2846 22.9766 82.7712 22.8285 83.0674 23.0612C83.3636 23.3151 83.3424 23.8651 83.0462 24.2883C82.7289 24.7114 82.2423 24.8595 81.9672 24.6268Z" stroke="#C59B82" stroke-miterlimit="10"/>
</g>
<g opacity="0.5">
<path opacity="0.5" d="M87.8703 46.1854L86.6855 45.6142C85.7123 45.1488 84.4852 45.5296 83.9351 46.4393L80.952 51.7497C81.4174 51.919 81.8617 52.1517 82.2425 52.4479C82.5176 52.3209 82.8138 52.194 83.11 52.0882C84.2524 51.7285 85.4161 51.7285 86.4739 52.0036L88.6531 48.6396C89.1608 47.7511 88.8435 46.6509 87.8703 46.1854Z" stroke="#C59B82" stroke-miterlimit="10"/>
<path opacity="0.5" d="M82.8772 52.8074C82.6233 52.8921 82.3906 52.9978 82.1578 53.1036C81.0365 52.2574 79.4498 51.9612 77.9053 52.4478C76.3609 52.9344 75.2396 54.098 74.8164 55.4309C74.5837 55.4732 74.351 55.5155 74.0971 55.6001C71.6852 56.3618 70.2888 58.7525 70.987 60.9317C71.2832 61.8414 71.8968 62.5608 72.6796 63.0474L88.3357 58.0543C88.6953 57.2081 88.7799 56.256 88.4838 55.3463C87.8067 53.1671 85.2891 52.0246 82.8772 52.8074Z" stroke="#C59B82" stroke-miterlimit="10"/>
<path opacity="0.5" d="M76.4244 68.6329C77.0803 69.8177 78.7094 71.0025 80.4231 70.4524L86.1355 68.6329C87.8492 68.0828 88.3358 66.221 88.3569 64.8458L88.103 59.2393L73.5894 63.8726L76.4244 68.6329Z" stroke="#C59B82" stroke-miterlimit="10"/>
</g>
<g opacity="0.5">
<g opacity="0.5">
<path opacity="0.5" d="M227.252 91.3977C222.216 93.7672 219.551 98.1679 221.201 101.32L239.734 92.5825C237.788 89.5782 232.287 89.0281 227.252 91.3977Z" stroke="#C59B82" stroke-miterlimit="10"/>
<path opacity="0.5" d="M224.692 107.392C226.659 110.354 232.118 110.883 237.111 108.514C242.104 106.165 244.749 101.807 243.204 98.6545L224.692 107.392Z" stroke="#C59B82" stroke-miterlimit="10"/>
<path opacity="0.5" d="M222.111 104.938L242.294 95.4175C242.76 94.9944 242.887 94.3597 242.569 93.8096C242.167 93.1326 241.258 92.8575 240.496 93.2172L221.137 102.336C220.376 102.695 220.101 103.521 220.482 104.198C220.82 104.769 221.476 105.044 222.111 104.938Z" stroke="#C59B82" stroke-miterlimit="10"/>
</g>
<path opacity="0.5" d="M244.093 96.433C244.072 96.1368 245.193 94.2327 243.479 95.6502C241.765 97.0677 241.533 98.3372 240.094 98.316C238.655 98.2948 237.978 97.5543 236.624 99.1834C235.27 100.813 232.943 101.595 232.181 101.659C231.42 101.701 228.923 102.188 228.098 103.499C227.273 104.811 226.786 104.811 224.946 105.298C223.084 105.784 222.767 105.636 221.455 106.25C220.143 106.863 221.434 106.631 222.216 106.736C222.978 106.842 224.48 106.969 224.48 106.969L241.977 98.718C242.019 98.718 244.156 97.7659 244.093 96.433Z" stroke="#C59B82" stroke-miterlimit="10"/>
</g>
</svg>
