<svg width="20" height="20" viewBox="0 0 20 20" fill="none" xmlns="http://www.w3.org/2000/svg">
<path d="M17.5 9.83018C17.5 12.6716 16.4752 14.3468 14.8149 14.3468C13.7696 14.3468 13.0522 13.6683 12.9908 12.5232C12.3349 13.6895 11.1666 14.3468 9.75231 14.3468C7.4567 14.3468 5.73499 12.5444 5.73499 9.99982C5.73499 7.49763 7.4567 5.69521 9.75231 5.69521C11.1461 5.69521 12.2939 6.33136 12.9703 7.45522V5.75883H14.0156V12.1203C14.0156 13.0533 14.4665 13.3926 15.0199 13.3926C16.0242 13.3926 16.6596 12.0991 16.6596 9.83018C16.6596 5.88606 13.9131 3.27785 9.99826 3.27785C6.02194 3.27785 3.3164 6.03449 3.3164 9.99982C3.3164 13.9651 5.98095 16.743 9.91628 16.743C10.8796 16.743 12.0889 16.5097 13.0318 16.0008L13.2982 16.8278C12.3349 17.3579 11.0026 17.5912 9.91628 17.5912C5.46853 17.5912 2.41455 14.4316 2.41455 9.97861C2.41455 5.52557 5.50953 2.40845 9.97777 2.40845C14.3845 2.45086 17.5 5.44075 17.5 9.83018ZM12.9703 10.021C12.9703 7.98535 11.638 6.69184 9.89578 6.69184C8.09209 6.69184 6.80081 8.00655 6.80081 10.021C6.80081 12.0355 8.09209 13.3926 9.89578 13.3926C11.638 13.3926 12.9703 12.0779 12.9703 10.021Z" fill="#927C70"/>
</svg>
