<svg width="20" height="20" viewBox="0 0 20 20" fill="none" xmlns="http://www.w3.org/2000/svg">
<path d="M9.61765 15.2353C5.96654 15.2353 3 12.2688 3 8.61765C3 4.96653 5.96654 2 9.61765 2C13.2688 2 16.2353 4.96653 16.2353 8.61765C16.2353 12.2688 13.2688 15.2353 9.61765 15.2353ZM9.61765 2.68458C6.35447 2.68458 3.68459 5.35446 3.68459 8.61765C3.68459 11.8808 6.35447 14.5507 9.61765 14.5507C12.8808 14.5507 15.5507 11.8808 15.5507 8.61765C15.5507 5.35446 12.9037 2.68458 9.61765 2.68458Z" fill="#927C70"/>
<path d="M17.7429 17.8826C17.672 17.8826 17.601 17.8629 17.5478 17.8036L13.6463 13.4591C13.5399 13.3406 13.5399 13.1629 13.6463 13.0444C13.7527 12.9259 13.9123 12.9259 14.0187 13.0444L17.9202 17.3889C18.0267 17.5074 18.0267 17.6851 17.9202 17.8036C17.867 17.8431 17.8138 17.8826 17.7429 17.8826Z" fill="#927C70"/>
</svg>
