<svg width="100" height="10" viewBox="0 0 100 10" fill="none" xmlns="http://www.w3.org/2000/svg">
<path d="M95.0011 10C92.2397 10 90.0011 7.76144 90.0011 5C90.0011 2.23856 92.2397 0 95.0011 0C97.7625 0 100.001 2.23856 100.001 5C100.001 7.76144 97.7462 10 95.0011 10ZM95.0011 0.375817C92.4521 0.375817 90.3769 2.45098 90.3769 5C90.3769 7.54902 92.4521 9.62418 95.0011 9.62418C97.5501 9.62418 99.6253 7.54902 99.6253 5C99.6253 2.45098 97.5501 0.375817 95.0011 0.375817Z" fill="#354457"/>
<path d="M93.122 7.05893C93.073 7.05893 93.024 7.04259 92.9913 7.00991C92.9259 6.94455 92.9259 6.81383 92.9913 6.74847L96.7494 2.9903C96.8148 2.92494 96.9455 2.92494 97.0109 2.9903C97.0762 3.05566 97.0762 3.18638 97.0109 3.25174L93.2527 7.00991C93.22 7.04259 93.171 7.05893 93.122 7.05893Z" fill="#354457"/>
<path d="M96.8801 6.65043C96.7821 6.65043 96.7004 6.56874 96.7004 6.4707V3.30076H93.5468C93.4488 3.30076 93.3671 3.21906 93.3671 3.12102C93.3671 3.02298 93.4488 2.94128 93.5468 2.94128H96.8965C96.9945 2.94128 97.0762 3.02298 97.0762 3.12102V6.4707C97.0599 6.56874 96.9782 6.65043 96.8801 6.65043Z" fill="#354457"/>
<path d="M5.508 10.001C5.39188 10.001 5.27576 9.94765 5.19282 9.85869L0.830075 5.17925C0.282658 4.5921 -0.0159324 3.77364 0.000656018 2.9196C0.0338328 2.06556 0.3656 1.28269 0.962782 0.731124C2.09079 -0.318635 3.81598 -0.229673 4.91081 0.944634L5.508 1.58516L6.10518 0.944634C7.20001 -0.229673 8.9252 -0.318635 10.0366 0.731124C10.6338 1.30048 10.9822 2.06556 10.9987 2.9196C11.0319 3.75585 10.7167 4.57431 10.1693 5.17925L5.82317 9.85869C5.74023 9.94765 5.62411 10.001 5.508 10.001ZM2.80409 0.482028C2.25667 0.482028 1.70926 0.677746 1.26137 1.10477C0.763721 1.56737 0.481719 2.2257 0.448542 2.9374C0.431954 3.6491 0.680779 4.32521 1.14525 4.8412L5.508 9.52063L9.85415 4.8412C10.3352 4.32521 10.584 3.6491 10.5509 2.9374C10.5343 2.2257 10.2523 1.56737 9.73803 1.10477C8.79249 0.215141 7.33272 0.304103 6.42036 1.28269L5.508 2.26128L4.59563 1.28269C4.09798 0.748916 3.45104 0.482028 2.80409 0.482028Z" fill="#354457"/>
<path d="M36.5011 10C35.4223 10 34.3789 9.7191 33.4947 9.17603L31.6378 9.68165C31.5493 9.70037 31.4609 9.68165 31.3902 9.62547C31.3194 9.56929 31.3017 9.49438 31.3371 9.40075L31.903 7.71536C31.3194 6.91011 31.0011 5.95506 31.0011 4.98127C31.0011 2.22846 33.477 0 36.5011 0C39.5429 0 42.0011 2.22846 42.0011 4.98127C42.0011 7.77154 39.5252 10 36.5011 10ZM33.53 8.72659C33.5831 8.72659 33.6185 8.74532 33.6715 8.76404C34.5027 9.28839 35.4931 9.56929 36.5188 9.56929C39.2953 9.56929 41.5413 7.52809 41.5413 5.01873C41.5413 2.50936 39.2953 0.468165 36.5188 0.468165C33.7423 0.468165 31.4963 2.50936 31.4963 5.01873C31.4963 5.93633 31.7969 6.83521 32.3805 7.58427C32.4159 7.64045 32.4336 7.71536 32.4159 7.77154L31.9561 9.1573L33.4947 8.72659C33.477 8.74532 33.4947 8.72659 33.53 8.72659Z" fill="#354457"/>
<path d="M69.1153 10C69.082 10 69.0487 9.98073 69.0154 9.96146L65.8018 7.63006L62.6048 9.96146C62.5382 10 62.4716 10 62.405 9.98073C62.3384 9.9422 62.3051 9.88439 62.3051 9.80732V0.211946C62.3051 0.0963391 62.3884 0 62.4883 0H69.082C69.1819 0 69.2652 0.0963391 69.2652 0.211946V9.78805C69.2652 9.86512 69.2319 9.9422 69.1653 9.96146C69.1653 10 69.132 10 69.1153 10ZM62.7047 0.404624V9.4027L65.7019 7.20617C65.7685 7.16763 65.8517 7.16763 65.9184 7.20617L68.9155 9.4027V0.404624H62.7047Z" fill="#354457"/>
</svg>
