<svg width="20" height="20" viewBox="0 0 20 20" fill="none" xmlns="http://www.w3.org/2000/svg">
<path d="M13.533 17.5H5.98512C4.05964 17.5 2.5 15.8865 2.5 13.9143V6.10558C2.5 4.11355 4.05964 2.5 5.98512 2.5H13.533C15.4585 2.5 17.0181 4.11355 17.0181 6.10558V13.9143C16.9989 15.8865 15.4392 17.5 13.533 17.5ZM5.98512 3.11753C4.40623 3.11753 3.11615 4.45219 3.11615 6.08566V13.8944C3.11615 15.5279 4.40623 16.8625 5.98512 16.8625H13.533C15.1119 16.8625 16.402 15.5279 16.402 13.8944V6.10558C16.402 4.47211 15.1119 3.13745 13.533 3.13745H5.98512V3.11753Z" fill="#50A674"/>
<path d="M9.759 14.5517C9.58571 14.5517 9.45093 14.4123 9.45093 14.233V5.74695C9.45093 5.56766 9.58571 5.42822 9.759 5.42822C9.9323 5.42822 10.0671 5.56766 10.0671 5.74695V14.2529C10.0478 14.4123 9.91304 14.5517 9.759 14.5517Z" fill="#50A674"/>
<path d="M13.8603 10.3083H5.63852C5.46523 10.3083 5.33044 10.1689 5.33044 9.98962C5.33044 9.81034 5.46523 9.6709 5.63852 9.6709H13.8603C14.0336 9.6709 14.1684 9.81034 14.1684 9.98962C14.1492 10.1689 14.0144 10.3083 13.8603 10.3083Z" fill="#50A674"/>
</svg>
