<svg width="122" height="20" viewBox="0 0 122 20" fill="none" xmlns="http://www.w3.org/2000/svg">
<path d="M13.533 17.5H5.98512C4.05964 17.5 2.5 15.8865 2.5 13.9143V6.10558C2.5 4.11355 4.05964 2.5 5.98512 2.5H13.533C15.4585 2.5 17.0181 4.11355 17.0181 6.10558V13.9143C16.9989 15.8865 15.4392 17.5 13.533 17.5ZM5.98512 3.11753C4.40623 3.11753 3.11615 4.45219 3.11615 6.08566V13.8944C3.11615 15.5279 4.40623 16.8625 5.98512 16.8625H13.533C15.1119 16.8625 16.402 15.5279 16.402 13.8944V6.10558C16.402 4.47211 15.1119 3.13745 13.533 3.13745H5.98512V3.11753Z" fill="#50A674"/>
<path d="M9.7591 14.5517C9.5858 14.5517 9.45102 14.4123 9.45102 14.233V5.74695C9.45102 5.56766 9.5858 5.42822 9.7591 5.42822C9.93239 5.42822 10.0672 5.56766 10.0672 5.74695V14.2529C10.0479 14.4123 9.91313 14.5517 9.7591 14.5517Z" fill="#50A674"/>
<path d="M13.8604 10.3083H5.63855C5.46526 10.3083 5.33047 10.1689 5.33047 9.98962C5.33047 9.81034 5.46526 9.6709 5.63855 9.6709H13.8604C14.0337 9.6709 14.1684 9.81034 14.1684 9.98962C14.1492 10.1689 14.0144 10.3083 13.8604 10.3083Z" fill="#50A674"/>
<path d="M42.5 9.83018C42.5 12.6716 41.4752 14.3468 39.8149 14.3468C38.7696 14.3468 38.0522 13.6683 37.9908 12.5232C37.3349 13.6895 36.1666 14.3468 34.7523 14.3468C32.4567 14.3468 30.735 12.5444 30.735 9.99982C30.735 7.49763 32.4567 5.69521 34.7523 5.69521C36.1461 5.69521 37.2939 6.33136 37.9703 7.45522V5.75883H39.0156V12.1203C39.0156 13.0533 39.4665 13.3926 40.0199 13.3926C41.0242 13.3926 41.6596 12.0991 41.6596 9.83018C41.6596 5.88606 38.9131 3.27785 34.9983 3.27785C31.0219 3.27785 28.3164 6.03449 28.3164 9.99982C28.3164 13.9651 30.9809 16.743 34.9163 16.743C35.8796 16.743 37.0889 16.5097 38.0318 16.0008L38.2982 16.8278C37.3349 17.3579 36.0026 17.5912 34.9163 17.5912C30.4685 17.5912 27.4146 14.4316 27.4146 9.97861C27.4146 5.52557 30.5095 2.40845 34.9778 2.40845C39.3845 2.45086 42.5 5.44075 42.5 9.83018ZM37.9703 10.021C37.9703 7.98535 36.638 6.69184 34.8958 6.69184C33.0921 6.69184 31.8008 8.00655 31.8008 10.021C31.8008 12.0355 33.0921 13.3926 34.8958 13.3926C36.638 13.3926 37.9703 12.0779 37.9703 10.021Z" fill="#927C70"/>
<path d="M59.6177 15.2353C55.9665 15.2353 53 12.2688 53 8.61765C53 4.96653 55.9665 2 59.6177 2C63.2688 2 66.2353 4.96653 66.2353 8.61765C66.2353 12.2688 63.2688 15.2353 59.6177 15.2353ZM59.6177 2.68458C56.3545 2.68458 53.6846 5.35446 53.6846 8.61765C53.6846 11.8808 56.3545 14.5507 59.6177 14.5507C62.8808 14.5507 65.5507 11.8808 65.5507 8.61765C65.5507 5.35446 62.9037 2.68458 59.6177 2.68458Z" fill="#927C70"/>
<path d="M67.7429 17.8826C67.6719 17.8826 67.601 17.8629 67.5478 17.8036L63.6463 13.4591C63.5399 13.3406 63.5399 13.1629 63.6463 13.0444C63.7527 12.9259 63.9123 12.9259 64.0187 13.0444L67.9202 17.3889C68.0266 17.5074 68.0266 17.6851 67.9202 17.8036C67.867 17.8431 67.8138 17.8826 67.7429 17.8826Z" fill="#927C70"/>
<g clip-path="url(#clip0_88:6037)">
<path d="M90.2281 17.5002H79.772C78.0495 17.5002 76.6667 16.1886 76.6667 14.5909V6.88816C76.6667 5.29039 78.0495 3.97878 79.772 3.97878H81.0335C81.2276 3.97878 81.3974 3.88339 81.4944 3.74031L82.0039 3.09643C82.295 2.71487 82.7559 2.50024 83.2412 2.50024H86.7589C87.2441 2.50024 87.705 2.71487 87.9961 3.09643L88.5056 3.76416C88.6269 3.90724 88.7967 4.00263 88.9908 4.00263H90.2523C91.9505 4.00263 93.3576 5.31423 93.3576 6.91201V14.6147C93.3333 16.1886 91.9505 17.5002 90.2281 17.5002ZM79.772 4.55112C78.3891 4.55112 77.2732 5.6004 77.2732 6.88816V14.5909C77.2732 15.8786 78.3891 16.9279 79.772 16.9279H90.2523C91.6351 16.9279 92.7511 15.8786 92.7511 14.5909V6.88816C92.7511 5.6004 91.6351 4.55112 90.2523 4.55112H88.9908C88.6026 4.55112 88.263 4.38419 88.0446 4.09802L87.5109 3.43029C87.3411 3.19182 87.05 3.04873 86.7589 3.04873H83.2412C82.95 3.04873 82.6589 3.19182 82.4891 3.40644L81.9796 4.09802C81.7613 4.38419 81.3974 4.55112 81.0092 4.55112H79.772Z" fill="#927C70"/>
<path d="M85.0122 14.3524C82.7802 14.3524 80.9607 12.6353 80.9607 10.5368C80.9607 8.4382 82.7802 6.72119 85.0122 6.72119C87.2441 6.72119 89.0636 8.4382 89.0636 10.5368C89.0636 12.6592 87.2441 14.3524 85.0122 14.3524ZM85.0122 7.31738C83.0956 7.31738 81.543 8.77207 81.543 10.5606C81.543 12.3492 83.0956 13.8039 85.0122 13.8039C86.9287 13.8039 88.4814 12.3492 88.4814 10.5606C88.4571 8.77207 86.9045 7.31738 85.0122 7.31738Z" fill="#927C70"/>
</g>
<g clip-path="url(#clip1_88:6037)">
<path d="M115.068 18.3332H107.266C105.276 18.3332 103.667 16.7986 103.667 14.9018V7.4636C103.667 5.56675 105.276 4.03223 107.266 4.03223H115.068C117.057 4.03223 118.667 5.56675 118.667 7.4636V14.9018C118.667 16.7986 117.057 18.3332 115.068 18.3332ZM107.266 4.62899C105.634 4.62899 104.293 5.90776 104.293 7.4636V14.9018C104.293 16.4576 105.634 17.7364 107.266 17.7364H115.068C116.699 17.7364 118.041 16.4576 118.041 14.9018V7.4636C118.041 5.90776 116.699 4.62899 115.068 4.62899H107.266Z" fill="#927C70"/>
<path d="M108.819 1.66568L108.376 2.08765L110.953 4.54411L111.395 4.12214L108.819 1.66568Z" fill="#927C70"/>
<path d="M113.523 1.65023L110.947 4.10669L111.389 4.52866L113.966 2.07219L113.523 1.65023Z" fill="#927C70"/>
<path d="M111.088 13.5165C112.446 13.5165 113.547 12.4955 113.547 11.236C113.547 9.97657 112.446 8.95557 111.088 8.95557C109.73 8.95557 108.629 9.97657 108.629 11.236C108.629 12.4955 109.73 13.5165 111.088 13.5165Z" stroke="#927C70" stroke-width="0.65" stroke-miterlimit="10"/>
</g>
<defs>
<clipPath id="clip0_88:6037">
<rect width="16.6667" height="15" fill="white" transform="translate(76.6667 2.50024)"/>
</clipPath>
<clipPath id="clip1_88:6037">
<rect width="15" height="16.6667" fill="white" transform="translate(103.667 1.66675)"/>
</clipPath>
</defs>
</svg>
