<svg width="37" height="36" viewBox="0 0 37 36" fill="none" xmlns="http://www.w3.org/2000/svg">
<g clip-path="url(#clip0_1:4661)">
<path d="M17.4556 33.943C13.6136 33.943 9.77159 32.6422 6.65563 30.3127C6.44386 30.7363 6.2926 31.1901 6.2926 31.6136C6.2926 34.2153 10.8607 36.0304 17.3951 36.0304C23.9296 36.0304 28.4976 34.2153 28.4976 31.6136C28.4976 31.1901 28.3766 30.7968 28.1649 30.3732C25.0792 32.6422 21.2674 33.943 17.4556 33.943Z" fill="#F6F6F6"/>
<path d="M34.8807 16.2756C34.0639 16.4874 32.7025 16.6992 30.3731 16.8807C26.9244 17.1832 22.2958 17.3345 17.4252 17.3345C12.5244 17.3345 7.92605 17.1832 4.47731 16.8807C2.17815 16.6992 0.816807 16.4874 0 16.2756C0.665546 24.6555 6.71597 33.005 17.4555 33.005C28.1647 33.005 34.2454 24.6555 34.8807 16.2756ZM23.4151 30.0403C23.4151 30.0403 30.7664 19.8756 28.5277 18.9378H32.4605C32.4605 18.9378 32.6723 26.0773 23.4151 30.0403Z" fill="#F6F6F6"/>
<path d="M23.4151 12.2825C23.9294 5.86903 34.4873 9.07575 32.3092 0.726172C31.9764 -0.544417 30.4638 0.000121283 30.7966 1.30096C31.7647 4.96147 28.1041 5.41525 26.2285 6.23205C23.9899 7.23037 22.1445 8.92449 21.842 12.2825C21.721 13.6438 23.2941 13.6136 23.4151 12.2825Z" fill="#F6F6F6"/>
<path d="M27.8319 13.0993C28.5277 9.89261 31.6739 9.83211 33.6706 9.04555C35.8185 8.19849 37.0588 6.20186 36.7563 3.11614C36.6353 1.78505 35.0622 1.7548 35.1832 3.11614C35.5462 6.83715 33.005 7.10942 30.8874 7.77496C28.8605 8.44051 26.9546 9.62034 26.3193 12.5245C26.2285 12.9783 26.3496 13.3414 26.5613 13.5834C26.8941 13.5834 27.2571 13.6136 27.5899 13.6439C27.6807 13.5229 27.8017 13.3414 27.8319 13.0993Z" fill="#F6F6F6"/>
<path d="M17.4252 14.3093C8.07731 14.3093 1.93613 14.8539 0 15.3379C1.93613 15.8522 8.07731 16.3967 17.4252 16.3967C26.7429 16.3967 32.9143 15.8522 34.8504 15.3379C32.9143 14.8539 26.7429 14.3093 17.4252 14.3093Z" fill="#F6F6F6"/>
</g>
<defs>
<clipPath id="clip0_1:4661">
<rect width="36.8168" height="36" fill="white"/>
</clipPath>
</defs>
</svg>
