<svg width="36" height="22" viewBox="0 0 36 22" fill="none" xmlns="http://www.w3.org/2000/svg">
<g clip-path="url(#clip0_1:4669)">
<path d="M33.2697 10.1124C32.764 7.83708 30.9691 6.14326 28.8202 6.14326C28.3399 6.14326 27.8848 6.2191 27.4551 6.37079C27.4803 6.19382 27.5056 6.01685 27.5056 5.83989C27.5056 4.55056 26.6714 3.48876 25.6348 3.48876C24.8511 3.48876 24.1938 4.09551 23.9157 4.92978C22.1966 1.97191 19.264 0 15.927 0C13.1461 0 10.5927 1.33989 8.79775 3.64045C8.59551 2.57865 7.86236 1.79494 6.97753 1.79494C5.94101 1.79494 5.10674 2.85674 5.10674 4.14607C5.10674 5.0309 5.48596 5.78933 6.06742 6.19382C4.75281 6.95225 3.81742 8.39326 3.58989 10.1124H1.03652C0.455056 10.1124 0 10.6938 0 11.427C0 12.1348 0.455056 12.7163 1.03652 12.7163H34.9635C35.5449 12.7163 36 12.1348 36 11.4017C36 10.6685 35.5449 10.0871 34.9635 10.0871H33.2697V10.1124ZM6.80056 10.1124C7.05337 9.60674 7.55899 9.22753 8.14045 9.22753C8.72191 9.22753 9.22753 9.58146 9.48034 10.1124H6.80056ZM10.8202 10.1124C10.5169 8.69663 9.42978 7.66011 8.14045 7.66011C6.85112 7.66011 5.73876 8.69663 5.43539 10.1124H4.87921C5.20787 8.44382 6.54775 7.17978 8.14045 7.17978C9.73315 7.17978 11.073 8.44382 11.4017 10.1124H10.8202ZM14.5871 10.1124C14.8399 9.60674 15.3455 9.22753 15.927 9.22753C16.5084 9.22753 17.014 9.58146 17.2669 10.1124H14.5871ZM18.6067 10.1124C18.3034 8.69663 17.2163 7.66011 15.927 7.66011C14.6124 7.66011 13.5253 8.69663 13.2219 10.1124H12.6657C12.6405 9.93539 12.6152 9.75843 12.5899 9.58146H12.6404C12.9438 7.83708 14.3343 6.59831 15.927 6.59831C17.6966 6.59831 19.1629 8.16573 19.264 10.1124H18.6067ZM20.5028 10.1124C20.427 7.2809 18.4045 5.0309 15.927 5.0309C14.2079 5.0309 12.6657 6.16854 11.882 7.83708C11.7303 7.60955 11.5787 7.38202 11.3764 7.15449C12.3624 5.41011 14.0815 4.32303 15.927 4.32303C18.809 4.32303 21.1601 6.90169 21.236 10.1124H20.5028ZM22.5 10.1124C22.4242 6.04214 19.4916 2.75562 15.927 2.75562C13.677 2.75562 11.5534 4.09551 10.3652 6.26966C9.93539 6.01685 9.50562 5.81461 9.02528 5.71348C10.5421 3.13483 13.0955 1.56742 15.927 1.56742C20.2753 1.56742 23.8399 5.33427 24.1938 10.1124H22.5ZM25.1798 8.21629C25.1798 8.19101 25.1545 8.14045 25.1545 8.08989C25.1798 8.08989 25.2051 8.11517 25.2303 8.11517C25.2051 8.16573 25.2051 8.19101 25.1798 8.21629ZM27.8848 10.1124C28.1376 9.88483 28.4663 9.75843 28.8202 9.75843C29.1742 9.75843 29.5028 9.88483 29.7556 10.1124H27.8848ZM31.3736 10.1124C30.9438 8.97472 29.9579 8.19101 28.8202 8.19101C27.6826 8.19101 26.7219 8.97472 26.2669 10.1124H25.6854C26.1657 8.72191 27.3792 7.71067 28.7949 7.71067C30.2107 7.71067 31.4242 8.72191 31.9045 10.1124H31.3736Z" fill="#F6F6F6"/>
<path d="M30.0085 20.3512C30.8428 17.0141 33.7501 13.677 33.7501 13.677H2.04785C2.04785 13.677 4.95516 17.0141 5.78942 20.3512C5.99167 21.1854 6.57313 21.8933 7.25572 21.8933H16.6855H19.1125H28.5422C29.2501 21.8933 29.8063 21.1854 30.0085 20.3512Z" fill="#F6F6F6"/>
</g>
<defs>
<clipPath id="clip0_1:4669">
<rect width="36" height="21.8933" fill="white"/>
</clipPath>
</defs>
</svg>
