<svg width="335" height="45" viewBox="0 0 335 45" fill="none" xmlns="http://www.w3.org/2000/svg">
<rect width="335" height="45" rx="11" fill="white"/>
<path d="M47.94 27H52.9V25.9H49.24V20H47.94V27ZM56.1575 27.07C57.8175 27.07 59.0075 25.93 59.0075 24.33C59.0075 22.73 57.8175 21.6 56.1575 21.6C54.5175 21.6 53.3175 22.73 53.3175 24.33C53.3175 25.93 54.5175 27.07 56.1575 27.07ZM56.1575 26C55.2575 26 54.5775 25.35 54.5775 24.33C54.5775 23.31 55.2575 22.66 56.1575 22.66C57.0675 22.66 57.7475 23.31 57.7475 24.33C57.7475 25.35 57.0675 26 56.1575 26ZM64.3128 21.66V22.37C63.8728 21.84 63.2128 21.6 62.4628 21.6C60.9328 21.6 59.7628 22.62 59.7628 24.17C59.7628 25.72 60.9328 26.76 62.4628 26.76C63.1828 26.76 63.8128 26.53 64.2528 26.05V26.33C64.2528 27.41 63.7328 27.95 62.5528 27.95C61.8128 27.95 61.0528 27.7 60.5828 27.31L60.0228 28.25C60.6328 28.75 61.6228 29.01 62.6228 29.01C64.4928 29.01 65.5028 28.13 65.5028 26.19V21.66H64.3128ZM62.6528 25.7C61.7028 25.7 61.0228 25.08 61.0228 24.17C61.0228 23.27 61.7028 22.66 62.6528 22.66C63.5928 22.66 64.2728 23.27 64.2728 24.17C64.2728 25.08 63.5928 25.7 62.6528 25.7ZM72.3098 27.07C73.9698 27.07 75.1598 25.93 75.1598 24.33C75.1598 22.73 73.9698 21.6 72.3098 21.6C70.6698 21.6 69.4698 22.73 69.4698 24.33C69.4698 25.93 70.6698 27.07 72.3098 27.07ZM72.3098 26C71.4098 26 70.7298 25.35 70.7298 24.33C70.7298 23.31 71.4098 22.66 72.3098 22.66C73.2198 22.66 73.8998 23.31 73.8998 24.33C73.8998 25.35 73.2198 26 72.3098 26ZM80.2752 21.66V24.36C80.2752 25.43 79.6852 25.97 78.8152 25.97C78.0252 25.97 77.5652 25.51 77.5652 24.54V21.66H76.3152V24.71C76.3152 26.32 77.2452 27.07 78.6152 27.07C79.3052 27.07 79.9352 26.81 80.3352 26.32V27H81.5252V21.66H80.2752ZM86.0218 25.82C85.8318 25.97 85.5818 26.04 85.3218 26.04C84.8418 26.04 84.5818 25.76 84.5818 25.24V22.7H86.0118V21.7H84.5818V20.48H83.3318V21.7H82.4518V22.7H83.3318V25.27C83.3318 26.45 84.0018 27.07 85.1718 27.07C85.6218 27.07 86.0718 26.95 86.3718 26.71L86.0218 25.82Z" fill="black"/>
<path d="M28.3004 31C23.7162 31 20 27.4183 20 23C20 18.5817 23.7162 15 28.3004 15C32.8846 15 36.6008 18.5817 36.6008 23C36.6008 27.4183 32.8575 31 28.3004 31ZM28.3004 15.6013C24.0688 15.6013 20.6239 18.9216 20.6239 23C20.6239 27.0784 24.0688 30.3987 28.3004 30.3987C32.532 30.3987 35.9769 27.0784 35.9769 23C35.9769 18.9216 32.532 15.6013 28.3004 15.6013Z" fill="#354457"/>
<path d="M25.181 26.2949C25.0996 26.2949 25.0182 26.2688 24.9639 26.2165C24.8554 26.1119 24.8554 25.9027 24.9639 25.7982L31.2028 19.7851C31.3113 19.6805 31.5283 19.6805 31.6368 19.7851C31.7453 19.8897 31.7453 20.0988 31.6368 20.2034L25.398 26.2165C25.3437 26.2688 25.2623 26.2949 25.181 26.2949Z" fill="#354457"/>
<path d="M31.4198 25.6411C31.257 25.6411 31.1214 25.5104 31.1214 25.3535V20.2816H25.8862C25.7234 20.2816 25.5878 20.1509 25.5878 19.9941C25.5878 19.8372 25.7234 19.7065 25.8862 19.7065H31.4469C31.6096 19.7065 31.7453 19.8372 31.7453 19.9941V25.3535C31.7181 25.5104 31.5825 25.6411 31.4198 25.6411Z" fill="#354457"/>
</svg>
