<svg width="21" height="24" viewBox="0 0 21 24" fill="none" xmlns="http://www.w3.org/2000/svg">
<g clip-path="url(#clip0_1:4710)">
<path d="M14.7899 14.7304C15.0895 14.8369 15.3891 15.0766 15.6342 15.3963L20.7548 21.0433C21.2996 21.7625 20.9183 23.0145 20.2373 23.5739C19.5564 24.1066 18.2762 24.1865 17.7043 23.4939L13.5097 17.1543L13.4825 17.1011C13.2373 16.7814 13.0739 16.4618 13.0467 16.1155C13.0467 16.0356 13.0194 15.9557 12.965 15.8757C13.537 15.5028 14.0817 15.0766 14.572 14.5972C14.6264 14.6504 14.7082 14.7037 14.7899 14.7304Z" fill="#C59B82"/>
<path d="M16.6701 9.45478C16.2071 13.477 12.9931 16.5935 9.01644 16.9132C5.03979 17.2328 1.38998 14.649 0.327728 10.76C-0.761766 6.87098 1.0359 2.74224 4.57676 0.90428C8.14485 -0.933678 12.4756 0.0252565 14.927 3.22171C16.3161 4.97975 16.9425 7.2439 16.6701 9.45478Z" fill="#C59B82"/>
<path d="M13.8369 9.00334C13.5373 11.6138 11.4672 13.6116 8.87967 13.8247C6.31936 14.0377 3.94971 12.3596 3.26878 9.85573C2.5606 7.32521 3.70457 4.6615 6.01975 3.46283C8.30769 2.26416 11.1404 2.90345 12.7201 4.95451C13.619 6.0999 14.0275 7.56494 13.8369 9.00334Z" fill="white"/>
</g>
<defs>
<clipPath id="clip0_1:4710">
<rect width="21" height="24" fill="white"/>
</clipPath>
</defs>
</svg>
