<svg width="375" height="104" viewBox="0 0 375 104" fill="none" xmlns="http://www.w3.org/2000/svg">
<path d="M372.742 33.0214C372.66 32.9194 372.599 32.8378 372.538 32.7562C372.477 32.6746 372.437 32.593 372.396 32.5114C372.315 32.3483 372.233 32.2055 372.152 32.0423C372.07 31.8996 371.989 31.7364 371.908 31.5936C371.826 31.4305 371.725 31.2673 371.602 31.0633C371.867 31.0429 372.111 31.1449 372.315 31.2673C372.518 31.3897 372.681 31.5732 372.803 31.7568C372.904 31.9608 372.986 32.1647 372.986 32.3891C372.966 32.6134 372.904 32.8378 372.742 33.0214ZM365.54 29.5948C364.95 29.6356 364.36 29.656 363.77 29.656C363.18 29.656 362.59 29.6356 362 29.5948C361.41 29.554 360.82 29.4928 360.23 29.35C360.82 29.1869 361.41 29.0849 362 29.0237C362.59 28.9625 363.18 28.9217 363.77 28.9217C364.36 28.9217 364.95 28.9421 365.56 29.0237C366.15 29.0849 366.74 29.1869 367.31 29.4112C366.7 29.4928 366.13 29.554 365.54 29.5948ZM351.116 32.3891C350.811 32.3891 350.526 32.1647 350.526 31.8792C350.526 31.5936 350.75 31.3693 351.075 31.3693H351.096C351.401 31.3693 351.665 31.5936 351.665 31.8792C351.686 32.1647 351.442 32.3891 351.116 32.3891ZM373.332 29.758L373.169 29.5744L372.986 29.4112C372.864 29.2889 372.721 29.2073 372.579 29.1053C372.294 28.9217 371.989 28.7586 371.643 28.5954C370.321 27.9631 368.876 27.6164 367.391 27.4736C365.886 27.3308 364.36 27.3512 362.814 27.3716C361.268 27.392 359.722 27.4124 358.196 27.4532C357.423 27.4736 356.65 27.494 355.897 27.5348C355.51 27.5552 355.124 27.5756 354.758 27.596C354.392 27.6164 353.985 27.6572 353.679 27.7184H353.639C353.517 27.7388 353.395 27.698 353.293 27.6368C352.866 27.29 352.398 26.9433 351.91 26.6578C351.421 26.3518 350.913 26.0867 350.404 25.9235C350.323 25.9031 350.221 25.8827 350.14 25.8623C350.16 25.9031 350.18 25.9439 350.201 25.9847C350.262 26.0867 350.343 26.209 350.404 26.3314C350.547 26.5762 350.709 26.8005 350.852 27.0657C350.974 27.3308 351.116 27.6164 351.157 27.9427C351.177 28.0243 351.136 28.1059 351.075 28.1875L351.055 28.2079C350.587 28.7178 350.14 29.2685 349.733 29.7988C349.529 30.0639 349.326 30.3495 349.143 30.635C349.061 30.7778 348.96 30.9206 348.899 31.0633L348.675 31.5324C348.512 31.8588 348.309 32.1851 348.004 32.4707C347.698 32.7562 347.291 32.9806 346.885 33.0825C346.234 33.2661 345.603 33.3477 344.932 33.3681C344.972 33.5313 344.993 33.6944 345.033 33.8576C345.094 34.1227 345.176 34.4083 345.277 34.6734C345.44 35.1426 345.664 35.5913 345.928 35.9788C346.213 35.9788 346.498 35.9788 346.783 35.9992C347.149 36.04 347.556 36.0808 347.942 36.2439C348.288 36.3867 348.573 36.5295 348.878 36.6723C349.183 36.7946 349.489 36.917 349.814 37.019C350.445 37.2026 351.075 37.3249 351.706 37.3249C352.337 37.3045 352.947 37.1618 353.435 36.8354C353.598 36.7335 353.822 36.7539 353.964 36.8558H353.985C354.168 36.9986 354.432 37.1618 354.676 37.3045C354.88 37.4065 355.104 37.5085 355.307 37.6105C355.348 37.6309 355.388 37.6309 355.409 37.6513C355.429 37.6513 355.429 37.6513 355.449 37.6717C355.714 37.7737 355.999 37.8756 356.284 37.9368C356.365 37.9572 356.446 37.9776 356.528 37.998C356.507 37.9776 356.507 37.9368 356.487 37.9164C356.365 37.5901 356.263 37.2638 356.182 36.9374L356.08 36.4275C356.06 36.2643 356.019 36.0808 356.019 35.9176C356.283 36.1828 356.487 36.4887 356.67 36.7742C356.772 36.917 356.853 37.0802 356.934 37.223C357.016 37.3657 357.097 37.5289 357.158 37.6717C357.301 37.9776 357.443 38.2836 357.606 38.5895L357.83 39.0382C357.911 39.2218 357.992 39.4054 358.033 39.5685C358.155 39.9153 358.216 40.2824 358.257 40.6291C358.298 40.9759 358.318 41.3226 358.338 41.6693C358.359 42.0161 358.338 42.3628 358.318 42.6891C358.298 42.8931 358.277 43.0971 358.257 43.301L359.884 43.2806C359.945 43.0767 360.027 42.8523 360.088 42.6279C360.169 42.322 360.251 42.0365 360.332 41.7305C360.413 41.4246 360.474 41.139 360.515 40.8331C360.535 40.6903 360.556 40.5271 360.556 40.3844L360.596 39.9153C360.637 39.2422 360.78 38.6099 360.922 37.9776C361.085 37.3453 361.308 36.7335 361.776 36.1828C361.776 36.8354 361.695 37.4677 361.593 38.1C361.573 38.202 361.573 38.304 361.553 38.4263L368.368 38.3448C368.347 38.3244 368.327 38.3244 368.327 38.304C368.002 37.9776 367.778 37.5901 367.574 37.223C367.371 36.8354 367.208 36.4479 367.086 36.04C366.964 35.6321 366.883 35.2241 366.842 34.8162C367.025 35.2037 367.229 35.5505 367.432 35.9176C367.534 36.1012 367.635 36.2643 367.757 36.4479C367.859 36.6111 367.981 36.7946 368.103 36.9578C368.327 37.2842 368.592 37.5901 368.876 37.8552C368.937 37.9164 369.019 37.998 369.1 38.0388C369.182 38.1 369.243 38.1612 369.324 38.2224L369.568 38.3855L369.894 38.6099C370.3 38.9362 370.585 39.3646 370.768 39.7725C370.931 40.2008 371.053 40.6291 371.135 41.0574C371.196 41.4858 371.236 41.9141 371.236 42.3424C371.236 42.6279 371.216 42.8931 371.196 43.1786L372.864 43.1582C373.128 41.9141 373.372 40.6495 373.576 39.4054L373.657 38.8954L373.678 38.6507L373.718 38.3651C373.779 37.9776 373.962 37.5901 374.125 37.2841C374.288 36.9782 374.41 36.6927 374.491 36.3867C374.573 36.0808 374.613 35.7544 374.634 35.4281C374.674 34.7754 374.634 34.082 374.593 33.4089C374.552 32.7358 374.451 32.0831 374.247 31.4509C374.105 30.8186 373.779 30.2475 373.332 29.758Z" stroke="#C59B82" stroke-opacity="0.5" stroke-miterlimit="10"/>
<path d="M365.906 63.3913C365.479 62.9426 365.092 62.4531 364.747 61.9636C364.401 61.4741 364.075 60.9642 363.831 60.4543C363.587 59.924 363.384 59.3937 363.302 58.843C363.75 59.3121 364.136 59.7608 364.523 60.2503C364.889 60.7194 365.255 61.2089 365.581 61.678C365.906 62.1675 366.232 62.657 366.537 63.1466C366.842 63.6565 367.106 64.1664 367.33 64.6967C366.781 64.2887 366.313 63.84 365.906 63.3913ZM369.649 67.0218C369.405 66.3691 369.365 65.6757 369.548 65.023C369.792 64.2276 370.28 63.4933 370.707 62.8202C370.911 62.4735 371.114 62.1471 371.257 61.8208C371.379 61.4945 371.419 61.1681 371.358 60.8826C371.338 60.7398 371.236 60.6378 371.155 60.5155C371.033 60.4339 370.911 60.3319 370.748 60.2707C370.565 60.2095 370.362 60.1687 370.158 60.1483C369.955 60.1279 369.69 60.1279 369.507 60.1279H369.487C369.161 60.1483 368.876 59.9852 368.836 59.7404C368.836 59.6588 368.856 59.5976 368.897 59.516C368.978 59.3937 369.08 59.2101 369.141 59.0469C369.202 58.8838 369.243 58.7206 369.263 58.5574C369.263 58.3943 369.222 58.2311 369.141 58.0883C369.039 57.9455 368.897 57.8232 368.693 57.7212C368.286 57.5172 367.798 57.456 367.351 57.5376C367.127 57.5784 366.903 57.6396 366.7 57.7212C366.598 57.762 366.496 57.8028 366.394 57.864C366.293 57.9047 366.191 57.9659 366.13 58.0067C365.886 58.1699 365.52 58.1495 365.296 57.9863C365.235 57.9455 365.194 57.8844 365.174 57.8232C365.011 57.4356 364.665 56.9869 364.319 56.5994C363.953 56.1915 363.526 55.8243 363.038 55.5184C362.794 55.3756 362.509 55.2532 362.224 55.2125C361.939 55.1717 361.675 55.1921 361.451 55.3144C360.983 55.5592 360.82 56.0283 360.881 56.477C360.942 56.9461 361.146 57.3948 361.369 57.8436L361.451 58.0067L361.471 58.0475L361.492 58.0679L361.512 58.1291C361.532 58.2107 361.553 58.2923 361.532 58.3535C361.512 58.5166 361.41 58.6594 361.247 58.7818C361.166 58.843 361.064 58.8838 360.963 58.9246C360.902 58.9449 360.861 58.9449 360.8 58.9653L360.678 58.9857C360.454 59.0061 360.21 59.0673 360.006 59.1693C359.905 59.2305 359.803 59.2917 359.701 59.3937C359.661 59.4345 359.62 59.4752 359.579 59.5364C359.538 59.5772 359.539 59.618 359.498 59.6588C359.416 59.8424 359.437 60.0259 359.538 60.2299C359.742 60.6174 360.23 60.9642 360.657 61.2497C360.902 61.4129 360.902 61.678 360.678 61.8412C360.596 61.9024 360.474 61.9432 360.352 61.9636C360.312 61.9636 360.169 62.0044 360.067 62.0452C359.966 62.086 359.864 62.1267 359.783 62.1675C359.62 62.2695 359.498 62.3919 359.416 62.5551C359.335 62.7182 359.294 62.9018 359.294 63.0854C359.315 63.2689 359.335 63.4321 359.437 63.5953C359.62 63.942 360.006 64.2276 360.434 64.4927C360.881 64.7579 361.41 64.9822 361.959 65.1658C362.509 65.3493 363.099 65.5329 363.689 65.6553C363.994 65.7369 364.279 65.7981 364.604 65.8592C364.93 65.9204 365.235 66.002 365.56 66.0836C366.191 66.2468 366.801 66.4507 367.391 66.6751C367.676 66.7975 367.981 66.9198 368.246 67.083C368.368 67.1442 368.51 67.2258 368.632 67.3074C368.836 67.2054 369.06 67.1238 369.304 67.0422C369.405 67.0626 369.527 67.0422 369.649 67.0218Z" stroke="#C59B82" stroke-opacity="0.5" stroke-miterlimit="10"/>
<path d="M350.933 14.8078C350.506 14.3591 350.119 13.8696 349.773 13.3801C349.428 12.8906 349.102 12.3807 348.858 11.8708C348.614 11.3405 348.41 10.8102 348.329 10.2595C348.777 10.7286 349.163 11.1773 349.55 11.6668C349.916 12.1359 350.282 12.6254 350.608 13.0945C350.933 13.584 351.259 14.0736 351.564 14.5631C351.869 15.073 352.133 15.5829 352.357 16.1132C351.808 15.7052 351.36 15.2565 350.933 14.8078ZM354.676 18.4383C354.432 17.7857 354.391 17.0922 354.575 16.4395C354.819 15.6441 355.307 14.9098 355.734 14.2367C355.938 13.89 356.141 13.5636 356.283 13.2373C356.406 12.911 356.446 12.5846 356.385 12.2991C356.365 12.1563 356.263 12.0543 356.182 11.932C356.06 11.8504 355.938 11.7484 355.775 11.6872C355.592 11.626 355.388 11.5852 355.185 11.5648C354.981 11.5444 354.717 11.5444 354.534 11.5444H354.514C354.188 11.5648 353.903 11.4017 353.863 11.1569C353.863 11.0753 353.883 11.0141 353.924 10.9325C354.005 10.8102 354.107 10.6266 354.168 10.4634C354.229 10.3003 354.269 10.1371 354.29 9.97392C354.29 9.81076 354.249 9.64759 354.168 9.50481C354.066 9.36204 353.924 9.23966 353.72 9.13768C353.313 8.93372 352.825 8.87253 352.377 8.95412C352.154 8.99491 351.93 9.0561 351.726 9.13768C351.625 9.17847 351.523 9.21927 351.421 9.28046C351.32 9.32125 351.218 9.38244 351.157 9.42323C350.913 9.5864 350.546 9.566 350.323 9.40283C350.262 9.36204 350.221 9.30085 350.201 9.23966C350.038 8.85214 349.692 8.40342 349.346 8.01589C348.98 7.60797 348.553 7.24084 348.065 6.9349C347.82 6.79212 347.536 6.66975 347.251 6.62896C346.966 6.58816 346.701 6.60856 346.478 6.73094C346.01 6.97569 345.847 7.4448 345.908 7.89352C345.969 8.36263 346.173 8.81134 346.396 9.26006L346.478 9.42323L346.498 9.46402L346.518 9.48442L346.539 9.54561C346.559 9.62719 346.579 9.70877 346.559 9.76996C346.539 9.93313 346.437 10.0759 346.274 10.1983C346.193 10.2595 346.091 10.3003 345.989 10.3411C345.928 10.3615 345.888 10.3615 345.827 10.3818L345.705 10.4022C345.481 10.4226 345.237 10.4838 345.033 10.5858C344.932 10.647 344.83 10.7082 344.728 10.8102C344.687 10.851 344.647 10.8918 344.606 10.9529C344.565 10.9937 344.565 11.0345 344.525 11.0753C344.443 11.2589 344.464 11.4424 344.565 11.6464C344.769 12.0339 345.257 12.3807 345.684 12.6662C345.928 12.8294 345.928 13.0945 345.705 13.2577C345.623 13.3189 345.501 13.3597 345.379 13.3801C345.338 13.3801 345.196 13.4209 345.115 13.4617C345.013 13.5025 344.911 13.5433 344.83 13.584C344.667 13.686 344.545 13.8084 344.464 13.9716C344.382 14.1347 344.342 14.3183 344.342 14.5019C344.362 14.6854 344.382 14.8486 344.484 15.0118C344.667 15.3585 345.054 15.6441 345.481 15.9092C345.928 16.1744 346.457 16.3987 347.007 16.5823C347.556 16.7658 348.146 16.9494 348.736 17.0718C349.041 17.1534 349.326 17.2146 349.651 17.2757C349.977 17.3369 350.282 17.4185 350.608 17.5001C351.238 17.6633 351.849 17.8672 352.438 18.0916C352.723 18.214 353.028 18.3363 353.293 18.4995C353.415 18.5607 353.557 18.6423 353.679 18.7239C353.883 18.6219 354.107 18.5403 354.351 18.4587C354.432 18.4791 354.554 18.4587 354.676 18.4383Z" stroke="#C59B82" stroke-opacity="0.5" stroke-miterlimit="10"/>
<path d="M280.909 11.1365C281.458 10.8101 281.987 10.545 282.537 10.3206C283.086 10.0963 283.635 9.89231 284.205 9.76994C284.775 9.64756 285.324 9.56598 285.893 9.60677C285.344 9.9535 284.815 10.2187 284.266 10.4838C283.717 10.749 283.188 10.9937 282.638 11.1977C282.089 11.422 281.54 11.626 280.991 11.8096C280.441 11.9931 279.872 12.1563 279.302 12.2379C279.831 11.7892 280.36 11.4424 280.909 11.1365ZM276.556 13.9919C277.247 13.89 277.939 14.0123 278.529 14.3387C279.261 14.7466 279.851 15.3789 280.421 15.95C280.706 16.2355 280.991 16.5007 281.275 16.7046C281.56 16.9086 281.865 17.0106 282.15 16.9902C282.293 16.9902 282.415 16.929 282.537 16.8678C282.659 16.7862 282.76 16.6638 282.862 16.5211C282.964 16.3579 283.045 16.1743 283.127 15.9704C283.188 15.7664 283.249 15.5217 283.289 15.3381V15.3177C283.35 14.9914 283.574 14.7466 283.798 14.767C283.879 14.767 283.94 14.8078 284.001 14.869C284.103 14.971 284.266 15.1137 284.408 15.1953C284.551 15.2973 284.714 15.3789 284.856 15.4197C285.019 15.4605 285.181 15.4605 285.344 15.3993C285.507 15.3381 285.67 15.2157 285.792 15.0525C286.077 14.7058 286.239 14.2367 286.26 13.788C286.26 13.5636 286.26 13.3393 286.219 13.1149C286.199 13.0129 286.178 12.8905 286.158 12.7886C286.138 12.6866 286.097 12.5642 286.077 12.503C285.975 12.2379 286.077 11.8707 286.28 11.6872C286.341 11.6464 286.402 11.6056 286.463 11.6056C286.87 11.5444 287.379 11.2996 287.846 11.0345C288.314 10.7693 288.782 10.443 289.189 10.0147C289.372 9.79033 289.555 9.54558 289.657 9.28043C289.759 9.01528 289.799 8.75013 289.738 8.50538C289.616 7.99547 289.189 7.73032 288.742 7.68953C288.274 7.62834 287.785 7.73032 287.297 7.8527L287.114 7.89349L287.073 7.91389H287.053L286.992 7.93428C286.911 7.93428 286.829 7.93428 286.768 7.91389C286.626 7.8527 286.504 7.73032 286.422 7.54676C286.382 7.46517 286.361 7.34279 286.361 7.24081C286.361 7.17963 286.361 7.13883 286.361 7.07764V6.95527C286.382 6.73091 286.382 6.48616 286.321 6.2414C286.28 6.11903 286.239 5.99665 286.178 5.89467C286.138 5.83348 286.117 5.79269 286.077 5.75189C286.036 5.7111 285.995 5.69071 285.975 5.64991C285.812 5.52754 285.629 5.50714 285.426 5.56833C285.019 5.69071 284.551 6.07823 284.185 6.44536C283.981 6.64933 283.717 6.58814 283.595 6.32299C283.554 6.22101 283.534 6.09863 283.554 5.97625C283.554 5.93546 283.554 5.79269 283.554 5.69071C283.534 5.58873 283.513 5.48674 283.493 5.38476C283.432 5.2012 283.33 5.03803 283.188 4.93605C283.045 4.81367 282.883 4.75248 282.699 4.69129C282.516 4.6709 282.354 4.6505 282.171 4.71169C281.804 4.81367 281.418 5.11961 281.072 5.50714C280.726 5.89467 280.38 6.36378 280.075 6.85329C279.77 7.34279 279.485 7.89349 279.2 8.44419C279.058 8.70934 278.936 8.99488 278.793 9.28043C278.651 9.58637 278.509 9.87192 278.366 10.1575C278.061 10.7286 277.736 11.2996 277.39 11.8096C277.207 12.0747 277.023 12.3195 276.8 12.5642C276.698 12.6662 276.596 12.7886 276.495 12.8905C276.535 13.1149 276.576 13.3393 276.596 13.6044C276.556 13.7472 276.556 13.8696 276.556 13.9919Z" stroke="#C59B82" stroke-opacity="0.5" stroke-miterlimit="10"/>
<path opacity="0.5" d="M330.874 27.0045C326.215 25.3932 324.038 31.8588 324.038 31.8588C320.621 39.7317 314.68 41.8529 314.68 41.8529C324.242 40.8943 330.752 34.5307 330.752 34.5307C335.573 28.7586 330.874 27.0045 330.874 27.0045Z" stroke="#C59B82" stroke-opacity="0.5" stroke-miterlimit="10"/>
<path opacity="0.5" d="M333.661 21.9053C333.661 21.9053 333.132 21.9257 333.213 22.5987C333.213 22.5987 333.234 23.6185 332.176 25.495C332.176 25.495 331.179 25.1891 330.264 26.2089C330.264 26.2089 331.728 26.2497 332.501 27.3307C332.501 27.3307 332.868 26.8411 332.624 25.8417C332.624 25.8417 333.885 24.1488 334.007 22.6191C334.007 22.6191 334.088 21.9869 333.661 21.9053Z" stroke="#C59B82" stroke-opacity="0.5" stroke-miterlimit="10"/>
<path opacity="0.5" d="M214.69 8.07724C210.031 6.46595 207.854 12.9315 207.854 12.9315C204.436 20.8044 198.496 22.9256 198.496 22.9256C208.058 21.967 214.568 15.6034 214.568 15.6034C219.369 9.85171 214.69 8.07724 214.69 8.07724Z" stroke="#C59B82" stroke-opacity="0.5" stroke-miterlimit="10"/>
<path opacity="0.5" d="M217.477 2.97803C217.477 2.97803 216.948 2.99842 217.029 3.6715C217.029 3.6715 217.05 4.6913 215.992 6.56775C215.992 6.56775 214.995 6.26181 214.079 7.28162C214.079 7.28162 215.544 7.32241 216.317 8.4034C216.317 8.4034 216.683 7.9139 216.439 6.91448C216.439 6.91448 217.701 5.2216 217.823 3.69189C217.802 3.69189 217.904 3.08001 217.477 2.97803Z" stroke="#C59B82" stroke-opacity="0.5" stroke-miterlimit="10"/>
<path opacity="0.5" d="M339.581 56.6403C339.581 56.6403 336.896 56.0896 336.041 56.885C336.041 56.885 337.425 55.1513 339.256 55.5185C339.256 55.5185 338.076 51.582 331.647 58.1904C331.667 58.1904 342.063 61.9841 339.581 56.6403Z" stroke="#C59B82" stroke-opacity="0.5" stroke-miterlimit="10"/>
<g opacity="0.5">
<path opacity="0.5" d="M341.697 62.4938C342.267 63.2688 342.043 64.309 341.188 64.8189C340.334 65.3288 339.174 65.1249 338.605 64.3498C338.035 63.5748 338.259 62.5346 339.113 62.0247C339.988 61.5148 341.127 61.7187 341.697 62.4938Z" stroke="#C59B82" stroke-opacity="0.5" stroke-miterlimit="10"/>
<path opacity="0.5" d="M345.379 60.2706C345.949 61.0457 345.725 62.0859 344.871 62.5958C344.016 63.1057 342.856 62.9017 342.287 62.1267C341.717 61.3516 341.941 60.3114 342.795 59.8015C343.65 59.2916 344.81 59.4956 345.379 60.2706Z" stroke="#C59B82" stroke-opacity="0.5" stroke-miterlimit="10"/>
<path opacity="0.5" d="M348.98 58.1087C349.55 58.8838 349.326 59.924 348.471 60.4339C347.617 60.9438 346.457 60.7398 345.888 59.9648C345.318 59.1897 345.542 58.1495 346.396 57.6396C347.251 57.1093 348.41 57.3337 348.98 58.1087Z" stroke="#C59B82" stroke-opacity="0.5" stroke-miterlimit="10"/>
<path opacity="0.5" d="M349.387 61.943C349.957 62.7181 349.733 63.7583 348.878 64.2682C348.024 64.7781 346.864 64.5741 346.295 63.7991C345.725 63.024 345.949 61.9838 346.803 61.4739C347.658 60.964 348.817 61.1679 349.387 61.943Z" stroke="#C59B82" stroke-opacity="0.5" stroke-miterlimit="10"/>
<path opacity="0.5" d="M345.623 64.2072C346.193 64.9822 345.969 66.0224 345.115 66.5323C344.26 67.0422 343.101 66.8383 342.531 66.0632C341.961 65.2882 342.185 64.248 343.04 63.7381C343.914 63.2281 345.054 63.4321 345.623 64.2072Z" stroke="#C59B82" stroke-opacity="0.5" stroke-miterlimit="10"/>
<path opacity="0.5" d="M349.834 65.7369C350.404 66.512 350.18 67.5522 349.326 68.0621C348.471 68.572 347.312 68.3681 346.742 67.593C346.173 66.818 346.396 65.7777 347.251 65.2678C348.105 64.7579 349.265 64.9619 349.834 65.7369Z" stroke="#C59B82" stroke-opacity="0.5" stroke-miterlimit="10"/>
<path opacity="0.5" d="M346.457 67.7968C346.824 68.3067 346.681 68.9797 346.132 69.3061C345.583 69.6324 344.83 69.51 344.464 69.0001C344.097 68.4902 344.24 67.8172 344.789 67.4908C345.338 67.1441 346.091 67.2869 346.457 67.7968Z" stroke="#C59B82" stroke-opacity="0.5" stroke-miterlimit="10"/>
<path opacity="0.5" d="M348.98 69.3268C349.346 69.8368 349.204 70.5098 348.655 70.8362C348.105 71.1625 347.353 71.0401 346.986 70.5302C346.62 70.0203 346.763 69.3472 347.312 69.0209C347.861 68.6946 348.614 68.8169 348.98 69.3268Z" stroke="#C59B82" stroke-opacity="0.5" stroke-miterlimit="10"/>
<path opacity="0.5" d="M341.249 59.5773C341.555 59.9852 341.432 60.5563 340.965 60.8419C340.497 61.1274 339.886 61.005 339.581 60.5971C339.276 60.1892 339.398 59.6181 339.866 59.3325C340.314 59.0266 340.924 59.149 341.249 59.5773Z" stroke="#C59B82" stroke-opacity="0.5" stroke-miterlimit="10"/>
<path opacity="0.5" d="M351.584 68.2661C351.889 68.674 351.767 69.2451 351.299 69.5307C350.831 69.8162 350.221 69.6938 349.916 69.2859C349.611 68.878 349.733 68.3069 350.201 68.0214C350.648 67.7358 351.279 67.8378 351.584 68.2661Z" stroke="#C59B82" stroke-opacity="0.5" stroke-miterlimit="10"/>
<path opacity="0.5" d="M351.218 70.4077C351.523 70.8156 351.401 71.3867 350.933 71.6723C350.465 71.9578 349.855 71.8354 349.55 71.4275C349.245 71.0196 349.367 70.4485 349.835 70.163C350.282 69.8774 350.913 69.9794 351.218 70.4077Z" stroke="#C59B82" stroke-opacity="0.5" stroke-miterlimit="10"/>
<path opacity="0.5" d="M344.871 57.3745C345.176 57.7824 345.054 58.3535 344.586 58.6391C344.118 58.9246 343.507 58.8022 343.202 58.3943C342.897 57.9864 343.019 57.4153 343.487 57.1298C343.935 56.8442 344.565 56.9462 344.871 57.3745Z" stroke="#C59B82" stroke-opacity="0.5" stroke-miterlimit="10"/>
</g>
<path opacity="0.5" d="M341.9 57.9456C339.601 55.804 342.938 51.48 344.484 49.726C344.809 49.3588 344.199 48.8693 343.853 49.2365C341.941 51.3781 338.584 55.9468 341.351 58.5167C341.738 58.8635 342.267 58.2924 341.9 57.9456Z" stroke="#C59B82" stroke-opacity="0.5" stroke-miterlimit="10"/>
<path opacity="0.5" d="M153.841 7.7301C153.841 7.7301 151.155 7.17941 150.301 7.97486C150.301 7.97486 151.684 6.24119 153.515 6.60832C153.515 6.60832 152.335 2.67186 145.907 9.28021C145.927 9.28021 156.323 13.0739 153.841 7.7301Z" stroke="#C59B82" stroke-opacity="0.5" stroke-miterlimit="10"/>
<g opacity="0.5">
<path opacity="0.5" d="M155.957 13.5836C156.526 14.3587 156.302 15.3989 155.448 15.9088C154.594 16.4187 153.434 16.2147 152.864 15.4397C152.295 14.6646 152.519 13.6244 153.373 13.1145C154.227 12.6046 155.387 12.8086 155.957 13.5836Z" stroke="#C59B82" stroke-opacity="0.5" stroke-miterlimit="10"/>
<path opacity="0.5" d="M159.639 11.3605C160.209 12.1355 159.985 13.1757 159.13 13.6856C158.276 14.1955 157.116 13.9916 156.547 13.2165C155.977 12.4415 156.201 11.4013 157.055 10.8914C157.91 10.3815 159.069 10.5854 159.639 11.3605Z" stroke="#C59B82" stroke-opacity="0.5" stroke-miterlimit="10"/>
<path opacity="0.5" d="M163.24 9.17823C163.809 9.95328 163.586 10.9935 162.731 11.5034C161.856 12.0337 160.717 11.8297 160.148 11.0547C159.578 10.2796 159.802 9.23942 160.656 8.72951C161.511 8.19921 162.67 8.40318 163.24 9.17823Z" stroke="#C59B82" stroke-opacity="0.5" stroke-miterlimit="10"/>
<path opacity="0.5" d="M163.647 13.0328C164.216 13.8079 163.993 14.8481 163.138 15.358C162.284 15.8679 161.124 15.6639 160.554 14.8889C159.985 14.1138 160.209 13.0736 161.063 12.5637C161.917 12.0538 163.077 12.2578 163.647 13.0328Z" stroke="#C59B82" stroke-opacity="0.5" stroke-miterlimit="10"/>
<path opacity="0.5" d="M159.883 15.297C160.453 16.0721 160.229 17.1123 159.374 17.6222C158.52 18.1321 157.36 17.9281 156.791 17.1531C156.221 16.378 156.445 15.3378 157.299 14.8279C158.154 14.318 159.313 14.522 159.883 15.297Z" stroke="#C59B82" stroke-opacity="0.5" stroke-miterlimit="10"/>
<path opacity="0.5" d="M164.094 16.8268C164.664 17.6018 164.44 18.642 163.586 19.152C162.731 19.6619 161.572 19.4579 161.002 18.6828C160.432 17.9078 160.656 16.8676 161.511 16.3577C162.365 15.8478 163.525 16.0517 164.094 16.8268Z" stroke="#C59B82" stroke-opacity="0.5" stroke-miterlimit="10"/>
<path opacity="0.5" d="M160.717 18.8665C161.083 19.3764 160.941 20.0495 160.392 20.3758C159.842 20.7022 159.09 20.5798 158.723 20.0699C158.357 19.56 158.5 18.8869 159.049 18.5606C159.598 18.2342 160.351 18.377 160.717 18.8665Z" stroke="#C59B82" stroke-opacity="0.5" stroke-miterlimit="10"/>
<path opacity="0.5" d="M163.24 20.4167C163.606 20.9266 163.464 21.5997 162.914 21.926C162.365 22.2523 161.612 22.13 161.246 21.6201C160.88 21.1102 161.022 20.4371 161.572 20.1107C162.121 19.7844 162.874 19.9068 163.24 20.4167Z" stroke="#C59B82" stroke-opacity="0.5" stroke-miterlimit="10"/>
<path opacity="0.5" d="M155.489 10.647C155.794 11.0549 155.672 11.626 155.204 11.9115C154.736 12.1971 154.126 12.0747 153.821 11.6668C153.515 11.2588 153.637 10.6877 154.105 10.4022C154.573 10.1167 155.184 10.239 155.489 10.647Z" stroke="#C59B82" stroke-opacity="0.5" stroke-miterlimit="10"/>
<path opacity="0.5" d="M165.844 19.3354C166.149 19.7434 166.027 20.3145 165.559 20.6C165.091 20.8855 164.481 20.7632 164.176 20.3552C163.87 19.9473 163.992 19.3762 164.46 19.0907C164.908 18.8051 165.539 18.9275 165.844 19.3354Z" stroke="#C59B82" stroke-opacity="0.5" stroke-miterlimit="10"/>
<path opacity="0.5" d="M165.478 21.4976C165.783 21.9055 165.661 22.4766 165.193 22.7621C164.725 23.0477 164.115 22.9253 163.809 22.5174C163.504 22.1094 163.626 21.5383 164.094 21.2528C164.542 20.9673 165.172 21.0692 165.478 21.4976Z" stroke="#C59B82" stroke-opacity="0.5" stroke-miterlimit="10"/>
<path opacity="0.5" d="M159.13 8.46435C159.435 8.87227 159.313 9.44337 158.845 9.72891C158.378 10.0145 157.767 9.89208 157.462 9.48416C157.157 9.07624 157.279 8.50514 157.747 8.2196C158.194 7.93405 158.825 8.03603 159.13 8.46435Z" stroke="#C59B82" stroke-opacity="0.5" stroke-miterlimit="10"/>
</g>
<path opacity="0.5" d="M156.16 9.03547C153.861 6.89388 157.198 2.56989 158.744 0.815822C159.069 0.448691 158.459 -0.0408163 158.113 0.326315C156.201 2.46791 152.844 7.03665 155.611 9.60657C155.997 9.9533 156.526 9.38221 156.16 9.03547Z" stroke="#C59B82" stroke-opacity="0.5" stroke-miterlimit="10"/>
<path opacity="0.5" d="M366.293 78.3211L366.211 78.3415C366.191 77.6072 366.069 75.4453 365.56 74.4458C364.95 73.2425 364.177 74.8946 364.177 74.8946C364.177 74.8946 364.889 76.7302 364.95 78.5047L364.706 78.5455C362.753 90.9871 349.082 91.9253 349.082 91.9253C348.573 92.2925 348.065 92.1905 348.065 92.1905C347.536 92.6392 347.922 93.2511 347.922 93.2511L348.634 93.4755C348.695 93.7814 349.061 93.8834 349.061 93.8834C352.5 95.1072 356.243 94.4341 356.243 94.4341C369.995 91.2319 368.205 82.6247 366.293 78.3211Z" stroke="#C59B82" stroke-opacity="0.5" stroke-miterlimit="10"/>
<path opacity="0.5" d="M363.648 79.8306L363.587 79.8102C363.79 79.4023 364.401 78.1785 364.441 77.5258C364.482 76.71 363.546 77.4239 363.546 77.4239C363.546 77.4239 363.363 78.6068 362.855 79.5858L362.712 79.545C357.809 85.8271 350.058 82.89 350.058 82.89C349.672 82.9512 349.428 82.788 349.428 82.788C349 82.9104 349.021 83.3387 349.021 83.3387L349.346 83.6447C349.285 83.8282 349.448 83.971 349.448 83.971C350.953 85.5007 353.191 86.0922 353.191 86.0922C361.675 87.8259 363.343 82.6657 363.648 79.8306Z" stroke="#C59B82" stroke-opacity="0.5" stroke-miterlimit="10"/>
<path opacity="0.5" d="M322.533 5.6092L322.452 5.6296C322.431 4.89534 322.309 2.73334 321.801 1.73393C321.19 0.530559 320.417 2.18265 320.417 2.18265C320.417 2.18265 321.129 4.0183 321.19 5.79277L320.946 5.83356C318.993 18.2752 305.322 19.2134 305.322 19.2134C304.813 19.5806 304.305 19.4786 304.305 19.4786C303.776 19.9273 304.162 20.5392 304.162 20.5392L304.874 20.7635C304.935 21.0695 305.302 21.1715 305.302 21.1715C308.74 22.3952 312.483 21.7222 312.483 21.7222C326.236 18.5404 324.425 9.91279 322.533 5.6092Z" stroke="#C59B82" stroke-opacity="0.5" stroke-miterlimit="10"/>
<path opacity="0.5" d="M319.868 7.1387L319.807 7.11831C320.01 6.71038 320.621 5.48661 320.661 4.83394C320.702 4.01809 319.766 4.73196 319.766 4.73196C319.766 4.73196 319.583 5.91493 319.074 6.89395L318.932 6.85316C314.029 13.1352 306.278 10.1981 306.278 10.1981C305.892 10.2593 305.647 10.0961 305.647 10.0961C305.22 10.2185 305.241 10.6468 305.241 10.6468L305.566 10.9528C305.505 11.1364 305.668 11.2791 305.668 11.2791C307.173 12.8088 309.411 13.4003 309.411 13.4003C317.894 15.1136 319.583 9.95337 319.868 7.1387Z" stroke="#C59B82" stroke-opacity="0.5" stroke-miterlimit="10"/>
<path opacity="0.5" d="M220.549 32.5113C220.549 32.5113 218.229 31.5731 219.999 29.8598C219.999 29.8598 222.868 27.4735 224.699 26.8208C224.699 26.8208 225.98 26.2701 226.896 27.657C226.896 27.657 229.276 31.4711 229.581 34.9588C229.581 34.9588 229.764 35.5707 228.849 36.2846C228.849 36.2846 227.567 36.9577 226.713 36.8353C226.713 36.8353 221.891 33.5107 220.549 32.5113Z" stroke="#C59B82" stroke-opacity="0.5" stroke-miterlimit="10"/>
<path opacity="0.5" d="M228.117 27.4325C228.117 27.4325 230.436 30.186 230.558 34.6732C230.558 34.6732 232.836 33.9593 233.63 34.4896C233.63 34.4896 235.563 27.4325 231.657 27.3306L228.117 27.4325Z" stroke="#C59B82" stroke-opacity="0.5" stroke-miterlimit="10"/>
<path opacity="0.5" d="M234.973 29.105C234.973 29.105 235.847 30.7775 234.912 34.0612C234.912 34.0612 236.315 33.9185 237.312 34.3876C237.312 34.3876 239.428 35.2646 238.858 32.246C238.879 32.246 238.004 29.88 234.973 29.105Z" stroke="#C59B82" stroke-opacity="0.5" stroke-miterlimit="10"/>
<path opacity="0.5" d="M219.125 32.6543C219.125 32.6543 221.566 34.286 225.797 37.223C225.797 37.223 224.272 38.9159 224.536 39.7726C224.536 39.7726 216.541 38.9771 217.782 35.6321L219.125 32.6543Z" stroke="#C59B82" stroke-opacity="0.5" stroke-miterlimit="10"/>
<path opacity="0.5" d="M218.474 39.0586C218.474 39.0586 219.898 40.3843 223.641 40.7311C223.641 40.7311 223.01 41.8733 223.132 42.8931C223.132 42.8931 223.315 44.9939 220.366 43.4642C220.386 43.4438 218.229 41.8937 218.474 39.0586Z" stroke="#C59B82" stroke-opacity="0.5" stroke-miterlimit="10"/>
<path opacity="0.5" d="M266.953 30.6553C266.953 30.5125 266.892 30.3901 266.77 30.3086C266.648 30.227 266.485 30.1862 266.343 30.227L266.201 30.2474L249.091 28.4729C249.091 28.4729 246.243 28.1466 245.633 31.7771C245.633 31.7771 244.961 39.854 245.267 42.1179C245.267 42.1179 245.368 46.0136 248.786 47.9716C249.132 48.2368 249.579 48.4407 250.108 48.5631C250.149 48.5835 250.21 48.6039 250.251 48.6039C250.251 48.6039 250.23 48.5835 250.19 48.5631C250.414 48.6039 250.658 48.6243 250.902 48.6243C251.166 48.6243 251.451 48.6039 251.777 48.5427L266.709 45.0346C266.933 44.9734 267.096 44.7898 267.096 44.5859L266.953 30.6553ZM251.553 47.6249C251.329 47.6657 251.105 47.6861 250.902 47.6861C249.274 47.6861 248.725 46.4011 248.623 46.1564C248.338 43.6273 248.623 38.2019 248.623 38.1203C248.725 34.449 251.878 34.0207 252 34.0003C252.021 34.0003 252.021 34.0003 252.041 34.0003L265.936 31.206L266.058 44.1779L251.553 47.6249Z" stroke="#C59B82" stroke-opacity="0.5" stroke-miterlimit="10"/>
<path opacity="0.5" d="M254.299 36.5703C253.445 36.5703 252.753 37.2026 252.753 37.9572C252.753 38.7323 253.445 39.3442 254.299 39.3442C255.154 39.3442 255.845 38.7119 255.845 37.9572C255.845 37.2026 255.154 36.5703 254.299 36.5703Z" stroke="#C59B82" stroke-opacity="0.5" stroke-miterlimit="10"/>
<path opacity="0.5" d="M253.14 42.3013C252.611 42.3013 252.183 42.6888 252.183 43.1783C252.183 43.6678 252.611 44.0553 253.14 44.0553C253.669 44.0553 254.096 43.6678 254.096 43.1783C254.096 42.7092 253.669 42.3013 253.14 42.3013Z" stroke="#C59B82" stroke-opacity="0.5" stroke-miterlimit="10"/>
<path opacity="0.5" d="M263.149 33.8574C262.62 33.8574 262.193 34.2449 262.193 34.7345C262.193 35.224 262.62 35.6115 263.149 35.6115C263.678 35.6115 264.105 35.224 264.105 34.7345C264.105 34.2449 263.678 33.8574 263.149 33.8574Z" stroke="#C59B82" stroke-opacity="0.5" stroke-miterlimit="10"/>
<path opacity="0.5" d="M260.728 39.3643C259.406 39.3643 258.348 40.3229 258.348 41.5262C258.348 42.7092 259.406 43.6882 260.728 43.6882C262.05 43.6882 263.108 42.7296 263.108 41.5262C263.108 40.3229 262.03 39.3643 260.728 39.3643Z" stroke="#C59B82" stroke-opacity="0.5" stroke-miterlimit="10"/>
<path opacity="0.5" d="M141.716 2.24345C141.716 2.14147 141.655 2.01909 141.553 1.9579C141.451 1.89671 141.329 1.85592 141.207 1.87632L141.085 1.89671L127.231 0.448585C127.231 0.448585 124.912 0.183435 124.423 3.12048C124.423 3.12048 123.874 9.66765 124.118 11.5033C124.118 11.5033 124.2 14.6647 126.966 16.2352C127.251 16.4392 127.617 16.6227 128.045 16.7043C128.085 16.7247 128.126 16.7247 128.167 16.7451C128.167 16.7451 128.146 16.7247 128.106 16.7247C128.289 16.7655 128.472 16.7859 128.675 16.7859C128.899 16.7859 129.123 16.7655 129.387 16.7247L141.492 13.8693C141.675 13.8285 141.797 13.6857 141.797 13.5021L141.716 2.24345ZM129.225 16.0109C129.042 16.0516 128.858 16.0516 128.696 16.0516C127.373 16.0516 126.926 15.0114 126.865 14.8279C126.641 12.7679 126.865 8.38269 126.865 8.3215C126.946 5.34366 129.509 4.99693 129.611 4.97653C129.632 4.97653 129.632 4.97653 129.652 4.97653L140.922 2.71256L141.024 13.237L129.225 16.0109Z" stroke="#C59B82" stroke-opacity="0.5" stroke-miterlimit="10"/>
<path opacity="0.5" d="M131.462 7.03662C130.771 7.03662 130.221 7.54652 130.221 8.17881C130.221 8.81109 130.791 9.32099 131.462 9.32099C132.154 9.32099 132.703 8.81109 132.703 8.17881C132.724 7.54652 132.154 7.03662 131.462 7.03662Z" stroke="#C59B82" stroke-opacity="0.5" stroke-miterlimit="10"/>
<path opacity="0.5" d="M130.527 11.687C130.099 11.687 129.754 11.993 129.754 12.3805C129.754 12.768 130.099 13.0943 130.527 13.0943C130.954 13.0943 131.3 12.7884 131.3 12.3805C131.3 12.0134 130.954 11.687 130.527 11.687Z" stroke="#C59B82" stroke-opacity="0.5" stroke-miterlimit="10"/>
<path opacity="0.5" d="M138.624 4.83398C138.196 4.83398 137.851 5.13993 137.851 5.52745C137.851 5.91498 138.196 6.24132 138.624 6.24132C139.051 6.24132 139.397 5.93538 139.397 5.52745C139.417 5.16032 139.051 4.83398 138.624 4.83398Z" stroke="#C59B82" stroke-opacity="0.5" stroke-miterlimit="10"/>
<path opacity="0.5" d="M136.671 9.30029C135.613 9.30029 134.738 10.0753 134.738 11.0544C134.738 12.013 135.592 12.8084 136.671 12.8084C137.728 12.8084 138.603 12.0334 138.603 11.0544C138.603 10.0753 137.728 9.30029 136.671 9.30029Z" stroke="#C59B82" stroke-opacity="0.5" stroke-miterlimit="10"/>
<path opacity="0.5" d="M257.005 58.4349C259.65 63.1872 257.717 69.0409 252.55 71.6924C247.382 74.3439 240.852 72.8346 237.699 68.327L236.458 68.9593C239.997 74.0788 247.403 75.8124 253.262 72.8142C259.121 69.816 261.277 63.1668 258.246 57.7822L257.005 58.4349Z" stroke="#C59B82" stroke-opacity="0.5" stroke-miterlimit="10"/>
<path opacity="0.5" d="M256.557 58.6592L254.137 59.9033C254.198 60.1685 254.177 60.454 254.035 60.7192C253.852 61.0863 253.506 61.3515 253.099 61.4535C253.079 61.5758 253.038 61.6778 252.997 61.8002C252.672 62.4733 251.797 62.7792 251.065 62.4733C250.983 62.4325 250.902 62.3917 250.82 62.3509C250.414 62.7792 249.722 62.922 249.132 62.6772C249.051 62.6568 248.99 62.616 248.928 62.5752L238.146 68.1026C241.157 72.3654 247.382 73.8135 252.306 71.2844C257.229 68.7757 259.06 63.1871 256.557 58.6592ZM244.412 68.9184C244.087 69.0816 243.598 68.8777 243.334 68.4289C243.069 68.0006 243.11 67.5111 243.436 67.3479C243.761 67.1848 244.249 67.3887 244.514 67.8374C244.778 68.2658 244.738 68.7349 244.412 68.9184ZM248.745 64.1661C249.071 64.003 249.559 64.2069 249.824 64.6556C250.088 65.084 250.047 65.5735 249.722 65.7366C249.396 65.8998 248.908 65.6959 248.644 65.2471C248.379 64.8188 248.42 64.3293 248.745 64.1661ZM249.091 69.2652C248.766 69.4284 248.277 69.2244 248.013 68.7757C247.749 68.3474 247.789 67.8578 248.115 67.6947C248.44 67.5315 248.928 67.7355 249.193 68.1638C249.457 68.6125 249.417 69.102 249.091 69.2652ZM253.302 62.8608C253.038 62.4325 253.079 61.943 253.404 61.7798C253.73 61.6166 254.218 61.8206 254.482 62.2693C254.747 62.6976 254.706 63.1871 254.381 63.3503C254.055 63.5135 253.587 63.2891 253.302 62.8608ZM253.791 67.7355C253.465 67.8986 252.977 67.6947 252.712 67.246C252.448 66.8176 252.489 66.3281 252.814 66.165C253.14 66.0018 253.628 66.2058 253.892 66.6545C254.157 67.0828 254.116 67.5723 253.791 67.7355Z" stroke="#C59B82" stroke-opacity="0.5" stroke-miterlimit="10"/>
<g opacity="0.5">
<g opacity="0.5">
<path opacity="0.5" d="M303.165 67.2257V65.2881H303.857L304.264 66.6138L304.671 65.2881H305.363V67.2257H304.935V65.696L304.488 67.2257H304.04L303.593 65.696V67.2257H303.165Z" stroke="#C59B82" stroke-opacity="0.5" stroke-miterlimit="10"/>
<path opacity="0.5" d="M305.81 67.2257V65.2881H306.278V67.2257H305.81Z" stroke="#C59B82" stroke-opacity="0.5" stroke-miterlimit="10"/>
<path opacity="0.5" d="M306.726 67.2257V65.2881H307.194V66.879H308.333V67.2053H306.726V67.2257Z" stroke="#C59B82" stroke-opacity="0.5" stroke-miterlimit="10"/>
<path opacity="0.5" d="M308.658 67.2257V65.2881H309.126V66.1447L310.062 65.2881H310.672L309.818 66.0427L310.733 67.2257H310.143L309.513 66.3079L309.147 66.6342V67.2257H308.658V67.2257Z" stroke="#C59B82" stroke-opacity="0.5" stroke-miterlimit="10"/>
</g>
<path opacity="0.5" d="M311.995 56.3955C311.995 57.3337 311.1 59.1898 310.021 59.1898H304C302.901 59.1898 302.026 57.3337 302.026 56.3955C302.026 55.4573 302.921 54.7026 304 54.7026H310.021C311.12 54.7026 311.995 55.4573 311.995 56.3955Z" stroke="#C59B82" stroke-opacity="0.5" stroke-miterlimit="10"/>
<path opacity="0.5" d="M311.14 59.6997H302.738C301.599 59.6997 300.683 60.4748 300.683 61.4334V74.2218C300.683 75.1804 301.599 75.9554 302.738 75.9554H311.14C312.259 75.9554 313.195 75.1804 313.195 74.2218V61.4334C313.195 60.4748 312.28 59.6997 311.14 59.6997ZM311.547 68.7148H302.331V63.6566H311.547V68.7148Z" stroke="#C59B82" stroke-opacity="0.5" stroke-miterlimit="10"/>
</g>
<path opacity="0.5" d="M314.497 63.8809L316.389 75.9758H322.309L324.201 63.8809H314.497V63.8809ZM321.76 74.4053H316.938L315.392 64.5335H323.306L321.76 74.4053Z" stroke="#C59B82" stroke-opacity="0.5" stroke-miterlimit="10"/>
<path opacity="0.5" d="M292.241 59.414L291.305 58.537C290.552 57.8435 289.311 57.8231 288.538 58.4962L284.246 62.4939C284.612 62.7998 284.958 63.1261 285.222 63.5137C285.507 63.4729 285.812 63.4321 286.117 63.4321C287.277 63.4321 288.355 63.7788 289.209 64.3499L292.18 61.9024C292.973 61.2497 292.993 60.1279 292.241 59.414Z" stroke="#C59B82" stroke-opacity="0.5" stroke-miterlimit="10"/>
<path opacity="0.5" d="M285.751 64.044C285.487 64.044 285.242 64.0644 284.998 64.1052C284.225 63.0038 282.842 62.2695 281.296 62.2695C279.75 62.2695 278.366 63.0038 277.593 64.1052C277.369 64.0644 277.125 64.044 276.901 64.044C274.48 64.044 272.507 65.8185 272.507 68.0212C272.507 68.9391 272.853 69.7753 273.423 70.4688H289.23C289.799 69.7957 290.145 68.9595 290.145 68.0212C290.145 65.8185 288.172 64.044 285.751 64.044Z" stroke="#C59B82" stroke-opacity="0.5" stroke-miterlimit="10"/>
<path opacity="0.5" d="M275.193 76.6897C275.437 77.9542 276.596 79.5247 278.325 79.5247H284.103C285.832 79.5247 286.829 77.9542 287.236 76.6897L288.64 71.4683H273.992L275.193 76.6897Z" stroke="#C59B82" stroke-opacity="0.5" stroke-miterlimit="10"/>
<g opacity="0.5">
<path opacity="0.5" d="M298.12 41.6084C302.962 39.3444 305.546 35.102 303.959 32.063L286.117 40.4254C287.969 43.3217 293.278 43.8724 298.12 41.6084Z" stroke="#C59B82" stroke-opacity="0.5" stroke-miterlimit="10"/>
<path opacity="0.5" d="M300.622 26.2091C298.751 23.3537 293.482 22.8234 288.681 25.0873C283.879 27.3513 281.316 31.5325 282.801 34.5716L300.622 26.2091Z" stroke="#C59B82" stroke-opacity="0.5" stroke-miterlimit="10"/>
<path opacity="0.5" d="M303.084 28.5546L283.656 37.6717C283.208 38.0797 283.086 38.6915 283.391 39.2218C283.757 39.8745 284.653 40.1397 285.385 39.7929L304.02 31.0634C304.752 30.7166 305.037 29.9212 304.651 29.2685C304.345 28.7382 303.715 28.4527 303.084 28.5546Z" stroke="#C59B82" stroke-opacity="0.5" stroke-miterlimit="10"/>
</g>
<path opacity="0.5" d="M281.926 36.7129C281.947 36.9985 280.869 38.8341 282.516 37.4676C284.164 36.101 284.388 34.8976 285.771 34.918C287.155 34.9384 287.806 35.6727 289.108 34.1022C290.41 32.5317 292.648 31.777 293.38 31.7362C294.112 31.6955 296.513 31.2263 297.306 29.9618C298.1 28.6972 298.568 28.6972 300.358 28.2485C302.148 27.7794 302.453 27.9222 303.715 27.3307C304.976 26.7392 303.735 26.9635 302.982 26.8616C302.25 26.7596 300.806 26.6372 300.806 26.6372L283.94 34.5305C283.94 34.5101 281.865 35.4076 281.926 36.7129Z" stroke="#C59B82" stroke-opacity="0.5" stroke-miterlimit="10"/>
<path d="M62.4762 84.9094C62.049 84.4607 61.6624 83.9711 61.3166 83.4816C60.9708 82.9921 60.6453 82.4822 60.4011 81.9723C60.157 81.442 59.9536 80.9117 59.8722 80.361C60.3197 80.8301 60.7063 81.2789 61.0928 81.7684C61.459 82.2375 61.8252 82.727 62.1507 83.1961C62.4762 83.6856 62.8017 84.1751 63.1069 84.6646C63.412 85.1745 63.6765 85.6844 63.9003 86.2147C63.351 85.8068 62.9034 85.3581 62.4762 84.9094ZM66.2195 88.5399C65.9754 87.8872 65.9347 87.1937 66.1178 86.5411C66.3619 85.7456 66.8502 85.0114 67.2774 84.3383C67.4808 83.9915 67.6843 83.6652 67.8267 83.3389C67.9487 83.0125 67.9894 82.6862 67.9284 82.4006C67.908 82.2579 67.8063 82.1559 67.7249 82.0335C67.6029 81.9519 67.4808 81.8499 67.3181 81.7888C67.135 81.7276 66.9315 81.6868 66.7281 81.6664C66.5246 81.646 66.2602 81.646 66.0771 81.646H66.0567C65.7312 81.6664 65.4464 81.5032 65.4057 81.2585C65.4057 81.1769 65.4261 81.1157 65.4668 81.0341C65.5481 80.9117 65.6499 80.7282 65.7109 80.565C65.7719 80.4018 65.8126 80.2387 65.833 80.0755C65.833 79.9123 65.7923 79.7491 65.7109 79.6064C65.6092 79.4636 65.4668 79.3412 65.2633 79.2392C64.8565 79.0353 64.3682 78.9741 63.9206 79.0557C63.6968 79.0965 63.4731 79.1577 63.2696 79.2392C63.1679 79.28 63.0662 79.3208 62.9645 79.382C62.8627 79.4228 62.761 79.484 62.7 79.5248C62.4559 79.688 62.0897 79.6676 61.8659 79.5044C61.8049 79.4636 61.7642 79.4024 61.7438 79.3412C61.5811 78.9537 61.2352 78.505 60.8894 78.1175C60.5232 77.7095 60.096 77.3424 59.6077 77.0365C59.3636 76.8937 59.0788 76.7713 58.794 76.7305C58.5091 76.6897 58.2447 76.7101 58.0209 76.8325C57.553 77.0773 57.3902 77.5464 57.4513 77.9951C57.5123 78.4642 57.7157 78.9129 57.9395 79.3616L58.0209 79.5248L58.0412 79.5656L58.0616 79.586L58.0819 79.6472C58.1023 79.7288 58.1226 79.8103 58.1023 79.8715C58.0819 80.0347 57.9802 80.1775 57.8174 80.2998C57.7361 80.361 57.6343 80.4018 57.5326 80.4426C57.4716 80.463 57.4309 80.463 57.3699 80.4834L57.2478 80.5038C57.024 80.5242 56.7799 80.5854 56.5765 80.6874C56.4747 80.7486 56.373 80.8097 56.2713 80.9117C56.2306 80.9525 56.1899 80.9933 56.1492 81.0545C56.1086 81.0953 56.1085 81.1361 56.0679 81.1769C55.9865 81.3604 56.0068 81.544 56.1086 81.748C56.312 82.1355 56.8002 82.4822 57.2275 82.7678C57.4716 82.9309 57.4716 83.1961 57.2478 83.3593C57.1664 83.4205 57.0444 83.4612 56.9223 83.4816C56.8816 83.4816 56.7392 83.5224 56.6578 83.5632C56.5561 83.604 56.4544 83.6448 56.373 83.6856C56.2103 83.7876 56.0882 83.91 56.0068 84.0731C55.9255 84.2363 55.8848 84.4199 55.8848 84.6034C55.9051 84.787 55.9255 84.9502 56.0272 85.1133C56.2103 85.4601 56.5968 85.7456 57.024 86.0108C57.4716 86.2759 58.0005 86.5003 58.5498 86.6838C59.0991 86.8674 59.6891 87.051 60.2791 87.1733C60.5842 87.2549 60.869 87.3161 61.1945 87.3773C61.52 87.4385 61.8252 87.5201 62.1507 87.6017C62.7814 87.7648 63.3917 87.9688 63.9817 88.1931C64.2665 88.3155 64.5716 88.4379 64.8361 88.6011C64.9582 88.6623 65.1006 88.7438 65.2226 88.8254C65.4261 88.7235 65.6499 88.6419 65.894 88.5603C65.9754 88.5807 66.0974 88.5603 66.2195 88.5399Z" stroke="#C59B82" stroke-opacity="0.5" stroke-miterlimit="10"/>
<path d="M110.773 19.2742C110.345 18.8255 109.959 18.336 109.613 17.8465C109.267 17.357 108.942 16.8471 108.698 16.3372C108.453 15.8069 108.25 15.2766 108.169 14.7259C108.616 15.195 109.003 15.6437 109.389 16.1332C109.755 16.6023 110.122 17.0918 110.447 17.561C110.773 18.0505 111.098 18.54 111.403 19.0295C111.708 19.5394 111.973 20.0493 112.197 20.5796C111.668 20.1717 111.2 19.723 110.773 19.2742ZM114.516 22.9047C114.272 22.2521 114.231 21.5586 114.414 20.9059C114.658 20.1105 115.147 19.3762 115.574 18.7031C115.777 18.3564 115.981 18.0301 116.123 17.7037C116.245 17.3774 116.286 17.0511 116.225 16.7655C116.205 16.6227 116.103 16.5208 116.021 16.3984C115.899 16.3168 115.777 16.2148 115.615 16.1536C115.431 16.0924 115.228 16.0516 115.025 16.0312C114.821 16.0108 114.557 16.0108 114.374 16.0108H114.353C114.028 16.0312 113.743 15.8681 113.702 15.6233C113.702 15.5417 113.723 15.4805 113.763 15.399C113.845 15.297 113.926 15.1134 113.987 14.9502C114.048 14.7871 114.089 14.6239 114.109 14.4607C114.109 14.2976 114.068 14.1344 113.987 13.9916C113.885 13.8489 113.743 13.7265 113.539 13.6245C113.133 13.4205 112.644 13.3593 112.197 13.4409C111.973 13.4817 111.749 13.5429 111.546 13.6245C111.444 13.6653 111.342 13.7061 111.241 13.7673C111.139 13.8081 111.037 13.8693 110.976 13.91C110.732 14.0732 110.366 14.0528 110.142 13.8896C110.081 13.8489 110.04 13.7877 110.02 13.7265C109.857 13.339 109.511 12.8902 109.165 12.5027C108.799 12.0948 108.372 11.7277 107.884 11.4217C107.64 11.2789 107.355 11.1566 107.07 11.1158C106.785 11.075 106.521 11.0954 106.297 11.2178C105.829 11.4625 105.666 11.9316 105.727 12.3803C105.788 12.8494 105.992 13.2982 106.216 13.7469L106.297 13.91L106.317 13.9508L106.338 13.9712L106.358 14.0324C106.378 14.114 106.399 14.1956 106.378 14.2568C106.358 14.4199 106.256 14.5627 106.094 14.6851C106.012 14.7463 105.91 14.7871 105.809 14.8279C105.748 14.8483 105.707 14.8483 105.646 14.8687L105.524 14.8891C105.3 14.9095 105.056 14.9706 104.853 15.0726C104.751 15.1338 104.649 15.195 104.547 15.297C104.507 15.3378 104.466 15.3786 104.425 15.4398C104.385 15.4805 104.385 15.5213 104.344 15.5621C104.263 15.7457 104.283 15.9293 104.385 16.1332C104.588 16.5208 105.076 16.8675 105.504 17.153C105.748 17.3162 105.748 17.5814 105.524 17.7445C105.443 17.8057 105.32 17.8465 105.198 17.8669C105.158 17.8669 105.015 17.9077 104.934 17.9485C104.832 17.9893 104.731 18.0301 104.649 18.0709C104.486 18.1728 104.364 18.2952 104.283 18.4584C104.202 18.6012 104.181 18.7847 104.161 18.9887C104.181 19.1723 104.202 19.3354 104.303 19.4986C104.486 19.8453 104.873 20.1309 105.3 20.396C105.748 20.6612 106.277 20.8855 106.826 21.0691C107.375 21.2527 107.965 21.4362 108.555 21.5586C108.86 21.6402 109.145 21.7014 109.471 21.7626C109.796 21.8238 110.101 21.9053 110.427 21.9869C111.057 22.1501 111.668 22.3541 112.258 22.5784C112.543 22.7008 112.848 22.8232 113.112 22.9863C113.234 23.0475 113.377 23.1291 113.499 23.2107C113.702 23.1087 113.926 23.0271 114.17 22.9455C114.292 22.9455 114.414 22.9251 114.516 22.9047Z" stroke="#C59B82" stroke-opacity="0.5" stroke-miterlimit="10"/>
<path opacity="0.5" d="M30.9431 30.2271C30.9431 30.0843 30.882 29.9619 30.76 29.8803C30.6379 29.7988 30.4752 29.758 30.3327 29.7988L30.1903 29.8192L13.0811 28.0447C13.0811 28.0447 10.2329 27.7184 9.6226 31.3489C9.6226 31.3489 8.95125 39.4257 9.25641 41.6897C9.25641 41.6897 9.35813 45.5854 12.7759 47.5434C13.1218 47.8086 13.5693 48.0125 14.0983 48.1349C14.139 48.1553 14.2 48.1757 14.2407 48.1757C14.2407 48.1757 14.2203 48.1553 14.1796 48.1349C14.4034 48.1757 14.6476 48.1961 14.8917 48.1961C15.1562 48.1961 15.441 48.1757 15.7665 48.1145L30.6989 44.6064C30.9227 44.5452 31.0855 44.3616 31.0855 44.1576L30.9431 30.2271ZM15.5427 47.1967C15.3189 47.2375 15.0951 47.2579 14.8917 47.2579C13.2642 47.2579 12.7149 45.9729 12.6132 45.7282C12.3283 43.199 12.6132 37.7737 12.6132 37.6921C12.7149 34.0208 15.8682 33.5924 15.9903 33.572C16.0106 33.572 16.0106 33.572 16.0309 33.572L29.9259 30.7778L30.0479 43.7497L15.5427 47.1967Z" stroke="#C59B82" stroke-opacity="0.5" stroke-miterlimit="10"/>
<path opacity="0.5" d="M18.2891 36.1421C17.4346 36.1421 16.7429 36.7744 16.7429 37.529C16.7429 38.3041 17.4346 38.916 18.2891 38.916C19.1435 38.916 19.8352 38.2837 19.8352 37.529C19.8352 36.754 19.1435 36.1421 18.2891 36.1421Z" stroke="#C59B82" stroke-opacity="0.5" stroke-miterlimit="10"/>
<path opacity="0.5" d="M17.1295 41.873C16.6006 41.873 16.1733 42.2606 16.1733 42.7501C16.1733 43.2396 16.6006 43.6271 17.1295 43.6271C17.6584 43.6271 18.0857 43.2396 18.0857 42.7501C18.0857 42.2606 17.6584 41.873 17.1295 41.873Z" stroke="#C59B82" stroke-opacity="0.5" stroke-miterlimit="10"/>
<path opacity="0.5" d="M27.1388 33.4087C26.6098 33.4087 26.1826 33.7962 26.1826 34.2857C26.1826 34.7752 26.6098 35.1628 27.1388 35.1628C27.6677 35.1628 28.0949 34.7752 28.0949 34.2857C28.0949 33.7962 27.6677 33.4087 27.1388 33.4087Z" stroke="#C59B82" stroke-opacity="0.5" stroke-miterlimit="10"/>
<path opacity="0.5" d="M24.7178 38.936C23.3954 38.936 22.3375 39.8947 22.3375 41.098C22.3375 42.281 23.3954 43.26 24.7178 43.26C26.0401 43.26 27.098 42.3014 27.098 41.098C27.098 39.8947 26.0198 38.936 24.7178 38.936Z" stroke="#C59B82" stroke-opacity="0.5" stroke-miterlimit="10"/>
<path opacity="0.5" d="M20.9949 58.0067C23.6396 62.759 21.7069 68.6127 16.5396 71.2642C11.3722 73.9157 4.8418 72.4064 1.68849 67.8988L0.44751 68.5311C3.98736 73.6505 11.3926 75.3842 17.2516 72.386C23.1107 69.3877 25.2671 62.7386 22.2359 57.354L20.9949 58.0067Z" stroke="#C59B82" stroke-opacity="0.5" stroke-miterlimit="10"/>
<path opacity="0.5" d="M20.5473 58.231L18.1263 59.4751C18.1874 59.7403 18.167 60.0258 18.0246 60.291C17.8415 60.6581 17.4957 60.9232 17.0888 61.0252C17.0684 61.1476 17.0278 61.2496 16.9871 61.372C16.6616 62.045 15.7868 62.351 15.0544 62.045C14.973 62.0042 14.8916 61.9635 14.8103 61.9227C14.4034 62.351 13.7117 62.4937 13.1217 62.249C13.0403 62.2286 12.9793 62.1878 12.9183 62.147L2.13599 67.6744C5.14689 71.9372 11.3721 73.3853 16.2954 70.8562C21.2186 68.327 23.0496 62.7589 20.5473 58.231ZM8.40192 68.4698C8.07642 68.633 7.58816 68.429 7.32369 67.9803C7.05922 67.552 7.09991 67.0625 7.42541 66.8993C7.75092 66.7362 8.23917 66.9401 8.50364 67.3888C8.76811 67.8171 8.72743 68.3066 8.40192 68.4698ZM12.7352 63.7175C13.0607 63.5544 13.5489 63.7583 13.8134 64.207C14.0779 64.6353 14.0372 65.1249 13.7117 65.288C13.3862 65.4512 12.8979 65.2472 12.6335 64.7985C12.369 64.3702 12.4097 63.9011 12.7352 63.7175ZM13.081 68.8166C12.7555 68.9797 12.2673 68.7758 12.0028 68.327C11.7383 67.8987 11.779 67.4092 12.1045 67.2461C12.43 67.0829 12.9183 67.2868 13.1828 67.7152C13.4472 68.1639 13.4065 68.6534 13.081 68.8166ZM17.2922 62.4122C17.0278 61.9838 17.0684 61.4943 17.3939 61.3312C17.7195 61.168 18.2077 61.372 18.4722 61.8207C18.7366 62.249 18.696 62.7385 18.3705 62.9017C18.045 63.0648 17.5567 62.8609 17.2922 62.4122ZM17.7601 67.2868C17.4346 67.45 16.9464 67.2461 16.6819 66.7973C16.4174 66.369 16.4581 65.8795 16.7836 65.7163C17.1091 65.5532 17.5974 65.7571 17.8619 66.2059C18.1467 66.6342 18.0856 67.1237 17.7601 67.2868Z" stroke="#C59B82" stroke-opacity="0.5" stroke-miterlimit="10"/>
<path opacity="0.5" d="M265.875 0.652677C268.52 5.40498 266.587 11.2587 261.42 13.9102C256.252 16.5617 249.722 15.0524 246.569 10.5448L245.328 11.1771C248.867 16.2965 256.273 18.0302 262.132 15.032C267.991 12.0337 270.147 5.38459 267.116 0L265.875 0.652677Z" stroke="#C59B82" stroke-opacity="0.5" stroke-miterlimit="10"/>
<path opacity="0.5" d="M265.427 0.876953L263.007 2.12112C263.068 2.38627 263.047 2.67181 262.905 2.93696C262.722 3.3041 262.376 3.56925 261.969 3.67123C261.949 3.7936 261.908 3.89558 261.867 4.01796C261.542 4.69103 260.667 4.99698 259.935 4.69103C259.853 4.65024 259.772 4.60945 259.69 4.56866C259.284 4.99698 258.592 5.13975 258.002 4.895C257.921 4.8746 257.86 4.83381 257.798 4.79302L247.016 10.3204C250.027 14.5832 256.252 16.0313 261.176 13.5022C266.078 10.9934 267.93 5.4049 265.427 0.876953ZM253.282 11.1362C252.957 11.2994 252.468 11.0954 252.204 10.6467C251.939 10.2184 251.98 9.72889 252.306 9.56572C252.631 9.40255 253.119 9.60651 253.384 10.0552C253.648 10.4835 253.608 10.9731 253.282 11.1362ZM257.615 6.38391C257.941 6.22075 258.429 6.42471 258.694 6.87342C258.958 7.30174 258.917 7.79125 258.592 7.95442C258.266 8.11759 257.778 7.91363 257.514 7.46491C257.249 7.03659 257.29 6.54708 257.615 6.38391ZM257.941 11.483C257.615 11.6461 257.127 11.4422 256.863 10.9934C256.598 10.5651 256.639 10.0756 256.964 9.91245C257.29 9.74928 257.778 9.95324 258.043 10.3816C258.307 10.8303 258.266 11.3198 257.941 11.483ZM262.172 5.07856C261.908 4.65024 261.949 4.16073 262.274 3.99757C262.6 3.8344 263.088 4.03836 263.352 4.48707C263.617 4.91539 263.576 5.4049 263.251 5.56807C262.925 5.73124 262.437 5.50688 262.172 5.07856ZM262.64 9.95324C262.315 10.1164 261.827 9.91245 261.562 9.46374C261.298 9.03542 261.338 8.54591 261.664 8.38274C261.989 8.21957 262.478 8.42353 262.742 8.87225C263.007 9.30057 262.966 9.79007 262.64 9.95324Z" stroke="#C59B82" stroke-opacity="0.5" stroke-miterlimit="10"/>
<g opacity="0.5">
<g opacity="0.5">
<path opacity="0.5" d="M67.1553 66.777V64.8394H67.847L68.2538 66.1651L68.6607 64.8394H69.3524V66.777H68.9252V65.2473L68.4776 66.777H68.0301L67.5825 65.2473V66.777H67.1553V66.777Z" stroke="#C59B82" stroke-opacity="0.5" stroke-miterlimit="10"/>
<path opacity="0.5" d="M69.8 66.777V64.8394H70.268V66.777H69.8Z" stroke="#C59B82" stroke-opacity="0.5" stroke-miterlimit="10"/>
<path opacity="0.5" d="M70.7155 66.7771V64.8599H71.1834V66.4508H72.3226V66.7771H70.7155V66.7771Z" stroke="#C59B82" stroke-opacity="0.5" stroke-miterlimit="10"/>
<path opacity="0.5" d="M72.6481 66.777V64.8394H73.116V65.696L74.0518 64.8394H74.6621L73.8077 65.594L74.7232 66.777H74.1332L73.5025 65.8592L73.1363 66.1855V66.777H72.6481V66.777Z" stroke="#C59B82" stroke-opacity="0.5" stroke-miterlimit="10"/>
</g>
<path opacity="0.5" d="M75.9846 55.9668C75.9846 56.905 75.0895 58.7611 74.0113 58.7611H67.9895C66.8909 58.7611 66.0161 56.905 66.0161 55.9668C66.0161 55.0286 66.9112 54.2739 67.9895 54.2739H74.0113C75.1099 54.2739 75.9846 55.0286 75.9846 55.9668Z" stroke="#C59B82" stroke-opacity="0.5" stroke-miterlimit="10"/>
<path opacity="0.5" d="M75.1301 59.271H66.7281C65.5888 59.271 64.6733 60.0461 64.6733 61.0047V73.7931C64.6733 74.7517 65.5888 75.5267 66.7281 75.5267H75.1301C76.249 75.5267 77.1849 74.7517 77.1849 73.7931V61.0047C77.1645 60.0461 76.249 59.271 75.1301 59.271ZM75.537 68.2861H66.3212V63.2279H75.537V68.2861Z" stroke="#C59B82" stroke-opacity="0.5" stroke-miterlimit="10"/>
</g>
<path opacity="0.5" d="M78.4869 63.4316L80.3789 75.5266H86.299L88.191 63.4316H78.4869ZM85.7497 73.9561H80.9282L79.3821 64.0843H87.2959L85.7497 73.9561Z" stroke="#C59B82" stroke-opacity="0.5" stroke-miterlimit="10"/>
<path opacity="0.5" d="M56.2305 58.9858L55.2947 58.1088C54.542 57.4153 53.301 57.3949 52.5279 58.068L48.2354 62.0656C48.6015 62.3716 48.9474 62.6979 49.2119 63.0855C49.4967 63.0447 49.8018 63.0039 50.107 63.0039C51.2666 63.0039 52.3448 63.3506 53.1993 63.9217L56.1695 61.4742C56.9629 60.8011 56.9832 59.6793 56.2305 58.9858Z" stroke="#C59B82" stroke-opacity="0.5" stroke-miterlimit="10"/>
<path opacity="0.5" d="M49.7409 63.5953C49.4764 63.5953 49.2323 63.6157 48.9881 63.6565C48.2151 62.5551 46.8317 61.8208 45.2855 61.8208C43.7394 61.8208 42.356 62.5551 41.5829 63.6565C41.3592 63.6157 41.115 63.5953 40.8912 63.5953C38.4703 63.5953 36.4969 65.3697 36.4969 67.5725C36.4969 68.4903 36.8428 69.3266 37.4124 70.0201H53.2197C53.7893 69.347 54.1352 68.5107 54.1352 67.5725C54.1352 65.3901 52.1618 63.5953 49.7409 63.5953Z" stroke="#C59B82" stroke-opacity="0.5" stroke-miterlimit="10"/>
<path opacity="0.5" d="M39.1823 76.2615C39.4265 77.526 40.5861 79.0965 42.3153 79.0965H48.093C49.8222 79.0965 50.8191 77.526 51.226 76.2615L52.6297 71.04H37.9821L39.1823 76.2615Z" stroke="#C59B82" stroke-opacity="0.5" stroke-miterlimit="10"/>
<g opacity="0.5">
<path opacity="0.5" d="M62.11 41.1597C66.9519 38.8957 69.5355 34.6533 67.9487 31.6143L50.1071 39.9767C51.9584 42.8933 57.2478 43.444 62.11 41.1597Z" stroke="#C59B82" stroke-opacity="0.5" stroke-miterlimit="10"/>
<path opacity="0.5" d="M64.6123 25.7604C62.7406 22.9049 57.4716 22.3746 52.6704 24.6386C47.8692 26.9026 45.3059 31.0838 46.791 34.1228L64.6123 25.7604Z" stroke="#C59B82" stroke-opacity="0.5" stroke-miterlimit="10"/>
<path opacity="0.5" d="M67.0739 28.1265L47.6454 37.2435C47.1979 37.6515 47.0758 38.2633 47.381 38.7936C47.7472 39.4463 48.6423 39.7115 49.3747 39.3647L68.0097 30.6352C68.7421 30.2884 69.0269 29.493 68.6404 28.8403C68.3352 28.2896 67.6842 28.0245 67.0739 28.1265Z" stroke="#C59B82" stroke-opacity="0.5" stroke-miterlimit="10"/>
</g>
<path opacity="0.5" d="M45.9163 36.2642C45.9366 36.5497 44.8584 38.3854 46.5062 37.0188C48.1541 35.6523 48.3779 34.4489 49.7613 34.4693C51.1447 34.4897 51.7957 35.224 53.0977 33.6535C54.3997 32.083 56.6375 31.3283 57.3699 31.2875C58.1023 31.2467 60.5029 30.7776 61.2963 29.5131C62.0897 28.2485 62.5576 28.2485 64.3479 27.7998C66.1382 27.3307 66.4433 27.4734 67.7046 26.8819C68.966 26.2905 67.725 26.5148 66.9723 26.4128C66.2399 26.3109 64.7955 26.1885 64.7955 26.1885L47.9303 34.0818C47.9303 34.0614 45.8552 34.9588 45.9163 36.2642Z" stroke="#C59B82" stroke-opacity="0.5" stroke-miterlimit="10"/>
<path d="M45.5704 11.218C45.489 11.1365 45.4483 11.0549 45.4076 10.9733C45.3466 10.8917 45.3263 10.8305 45.2856 10.7489C45.2042 10.6062 45.1432 10.4838 45.0821 10.341C45.0211 10.2186 44.9601 10.0759 44.8787 9.95347C44.7973 9.8107 44.7363 9.66793 44.6346 9.50476C44.8584 9.50476 45.0618 9.58634 45.2449 9.68832C45.4076 9.8107 45.5501 9.95347 45.6518 10.137C45.7331 10.3002 45.7942 10.5042 45.7942 10.6877C45.7535 10.8713 45.6925 11.0549 45.5704 11.218ZM39.4469 8.07703C38.9383 8.09742 38.4297 8.09742 37.9211 8.07703C37.4125 8.05663 36.9039 8.03624 36.3953 7.99544C35.8867 7.93425 35.3781 7.87307 34.8695 7.75069C35.3781 7.60792 35.8867 7.54673 36.3953 7.50594C36.9039 7.46514 37.4125 7.44475 37.9211 7.46514C38.4297 7.48554 38.9383 7.52633 39.4469 7.58752C39.9758 7.6691 40.4844 7.77109 40.9727 7.97505C40.4437 8.03624 39.9555 8.05663 39.4469 8.07703ZM26.976 10.137C26.7116 10.137 26.4674 9.93308 26.4878 9.68832C26.4878 9.44357 26.7116 9.26 26.976 9.26H26.9964C27.2608 9.26 27.4846 9.46397 27.4846 9.70872C27.4643 9.93308 27.2405 10.137 26.976 10.137ZM46.14 8.42376L45.9976 8.26059L45.8349 8.11782C45.7331 8.01584 45.6111 7.93425 45.489 7.85267C45.2449 7.6895 44.9804 7.52633 44.6956 7.38356C43.5767 6.81247 42.3357 6.46573 41.054 6.32296C39.7724 6.15979 38.45 6.13939 37.1277 6.119C35.8053 6.0986 34.4829 6.0782 33.1402 6.0782C32.4689 6.0782 31.8179 6.0782 31.1669 6.0782C30.8414 6.0782 30.5159 6.0986 30.1904 6.0986C29.8649 6.119 29.519 6.13939 29.2545 6.18019H29.2139C29.1121 6.20058 28.9901 6.15979 28.929 6.0986C28.5629 5.79266 28.1763 5.48672 27.7694 5.22157C27.3626 4.95642 26.9353 4.71166 26.4878 4.54849C26.4064 4.5281 26.325 4.5077 26.264 4.4873C26.2843 4.5281 26.3047 4.56889 26.325 4.60968C26.3657 4.71166 26.4267 4.81364 26.4878 4.91562C26.6098 5.11959 26.7319 5.32355 26.854 5.5683C26.9557 5.79266 27.0777 6.03741 27.0981 6.34335C27.0981 6.42494 27.0777 6.48613 27.0371 6.54732H27.0167C26.6098 6.97564 26.203 7.42435 25.8368 7.89346C25.6537 8.11782 25.4706 8.36257 25.3078 8.58693C25.2264 8.70931 25.1451 8.83169 25.084 8.93367L24.8806 9.32119C24.7178 9.58634 24.5551 9.87189 24.2703 10.1166C24.0058 10.3614 23.6396 10.5246 23.2938 10.6265C22.7241 10.7693 22.1749 10.8101 21.6052 10.8101C21.6256 10.9529 21.6459 11.0957 21.6866 11.2384C21.7476 11.4832 21.8087 11.7075 21.8697 11.9523C21.9918 12.3602 22.1749 12.7477 22.3986 13.0945C22.6428 13.0945 22.8869 13.0945 23.131 13.1353C23.4565 13.1761 23.8024 13.2169 24.1279 13.38C24.4127 13.5228 24.6568 13.6452 24.9213 13.7676C25.1858 13.8899 25.4502 13.9919 25.7147 14.0939C26.2436 14.2775 26.7929 14.3998 27.3422 14.3998C27.8915 14.3998 28.4001 14.2775 28.8477 14.0327C28.9901 13.9511 29.1732 13.9715 29.2952 14.0735C29.458 14.1959 29.6614 14.359 29.8852 14.4814C30.0683 14.5834 30.2311 14.665 30.4345 14.767C30.4752 14.7874 30.4955 14.7874 30.5362 14.8078C30.5362 14.8078 30.5566 14.8078 30.5566 14.8282C30.7803 14.9301 31.0245 15.0117 31.2686 15.0729C31.3296 15.0933 31.411 15.1137 31.472 15.1341C31.472 15.1137 31.4517 15.0933 31.4517 15.0525C31.35 14.767 31.2686 14.4814 31.2279 14.1959L31.1465 13.7676C31.1465 13.5636 31.1262 13.4208 31.1262 13.278C31.35 13.5228 31.5127 13.7676 31.6755 14.0327C31.7569 14.1551 31.8179 14.2979 31.8993 14.4202C31.9603 14.563 32.0213 14.6854 32.0824 14.8282C32.2044 15.0933 32.3265 15.3585 32.4485 15.6236L32.6316 16.0111C32.6927 16.1743 32.7537 16.3171 32.7944 16.4802C32.8758 16.7862 32.9368 17.0921 32.9571 17.3981C32.9775 17.704 32.9978 17.9896 32.9978 18.2955C32.9978 18.6014 32.9775 18.887 32.9571 19.1725C32.9368 19.3561 32.9165 19.5193 32.8961 19.7028L34.2795 19.7232C34.3405 19.5397 34.4016 19.3561 34.4626 19.1725C34.544 18.9074 34.605 18.6626 34.6864 18.3975C34.7474 18.1323 34.8084 17.8876 34.8491 17.6224C34.8695 17.5001 34.8898 17.3573 34.8898 17.2349L34.9305 16.827C34.9915 16.2559 35.1136 15.7052 35.2764 15.1749C35.4188 14.6446 35.6425 14.1143 36.0494 13.6452C36.0291 14.2163 35.9477 14.7466 35.846 15.2769C35.8256 15.3585 35.8053 15.4604 35.8053 15.542L41.6644 15.644C41.644 15.6236 41.644 15.6236 41.6237 15.6032C41.3592 15.3177 41.1558 14.9913 40.993 14.6446C40.8303 14.3182 40.7082 13.9715 40.6065 13.6248C40.5048 13.278 40.4437 12.9313 40.4234 12.5642C40.5861 12.8905 40.7489 13.2169 40.9116 13.5228C40.993 13.686 41.0744 13.8287 41.1761 13.9715C41.2575 14.1143 41.3592 14.2775 41.4609 14.4202C41.644 14.7058 41.8678 14.9709 42.1119 15.2157C42.173 15.2769 42.234 15.3381 42.295 15.3789C42.3561 15.44 42.4171 15.5012 42.4985 15.542L42.7222 15.7256L42.9867 15.9295C43.3326 16.2355 43.5563 16.5822 43.7191 16.9494C43.8615 17.3165 43.9429 17.6836 44.0039 18.0507C44.0446 18.4179 44.0649 18.785 44.0649 19.1521C44.0446 19.3969 44.0446 19.6416 44.0039 19.866L45.4483 19.8864C45.7128 18.8258 45.9569 17.7448 46.1604 16.6842L46.2417 16.2559L46.2621 16.0519L46.3028 15.8072C46.3638 15.4808 46.5266 15.1545 46.6893 14.8893C46.8317 14.6242 46.9538 14.3998 47.0352 14.1347C47.1165 13.8695 47.1572 13.6044 47.1776 13.3188C47.2183 12.7681 47.2183 12.1563 47.1979 11.5852C47.1776 11.0141 47.0962 10.443 46.9538 9.89229C46.7707 9.34159 46.5266 8.83169 46.14 8.42376Z" stroke="#C59B82" stroke-opacity="0.5" stroke-miterlimit="10"/>
<path d="M104.69 66.1038C105.117 66.5525 105.504 67.042 105.849 67.5112C106.195 68.0007 106.521 68.4902 106.765 69.0205C107.009 69.5304 107.233 70.0811 107.294 70.6318C106.846 70.1627 106.439 69.7139 106.073 69.2448C105.707 68.7757 105.341 68.3066 105.015 67.8171C104.69 67.3276 104.364 66.8381 104.059 66.3486C103.754 65.8387 103.49 65.3492 103.266 64.7985C103.815 65.2064 104.263 65.6551 104.69 66.1038ZM100.947 62.4937C101.211 63.1464 101.231 63.8399 101.048 64.4925C100.804 65.288 100.316 66.0222 99.8887 66.6953C99.6853 67.042 99.4818 67.3684 99.3394 67.6947C99.2173 68.0211 99.1767 68.3474 99.258 68.6329C99.2784 68.7757 99.3801 68.8777 99.4615 68.9797C99.5835 69.0613 99.7056 69.1632 99.8684 69.2244C100.051 69.2856 100.255 69.3264 100.458 69.3468C100.662 69.3672 100.926 69.3672 101.109 69.3672H101.13C101.455 69.3468 101.74 69.51 101.781 69.7547C101.781 69.8363 101.76 69.8975 101.72 69.9791C101.638 70.1015 101.557 70.285 101.476 70.4482C101.414 70.6114 101.374 70.7745 101.353 70.9377C101.353 71.1009 101.394 71.2641 101.476 71.4068C101.577 71.5496 101.72 71.672 101.923 71.774C102.33 71.9779 102.818 72.0391 103.266 71.9371C103.49 71.8963 103.713 71.8351 103.917 71.7536C104.019 71.7128 104.12 71.672 104.222 71.6108C104.324 71.57 104.425 71.5088 104.486 71.468C104.731 71.3048 105.097 71.3252 105.321 71.4884C105.382 71.5292 105.422 71.5904 105.443 71.6516C105.605 72.0391 105.951 72.4878 106.297 72.8753C106.663 73.2833 107.09 73.6504 107.599 73.9563C107.843 74.0991 108.128 74.2215 108.413 74.2623C108.698 74.3031 108.962 74.2827 109.186 74.1603C109.654 73.9155 109.817 73.4464 109.756 72.9977C109.694 72.5286 109.491 72.0799 109.267 71.6312L109.186 71.468L109.166 71.4272L109.145 71.4068L109.125 71.3456C109.104 71.264 109.084 71.1825 109.105 71.1213C109.125 70.9581 109.227 70.8153 109.389 70.693C109.471 70.6318 109.572 70.591 109.674 70.5502C109.735 70.5298 109.776 70.5298 109.837 70.5094L109.959 70.489C110.183 70.4686 110.427 70.4074 110.63 70.3054C110.732 70.2442 110.834 70.1831 110.935 70.0811C110.976 70.0403 111.017 69.9995 111.058 69.9383C111.098 69.8975 111.098 69.8567 111.139 69.8159C111.22 69.6324 111.2 69.4488 111.098 69.2448C110.895 68.8573 110.407 68.5106 109.979 68.225C109.735 68.0619 109.735 67.7967 109.959 67.6335C110.04 67.5723 110.162 67.5316 110.284 67.5112C110.325 67.5112 110.468 67.4704 110.549 67.4296C110.651 67.3888 110.752 67.348 110.813 67.2868C110.976 67.1848 111.098 67.0421 111.18 66.8993C111.261 66.7361 111.302 66.5525 111.302 66.369C111.281 66.1854 111.261 66.0222 111.159 65.8591C110.976 65.5327 110.59 65.2268 110.142 64.9616C109.694 64.6965 109.166 64.4925 108.616 64.2886C108.067 64.105 107.477 63.9418 106.887 63.7991C106.582 63.7175 106.297 63.6767 105.972 63.5951C105.646 63.5339 105.341 63.4523 105.015 63.3707C104.385 63.2076 103.774 63.024 103.184 62.7793C102.9 62.6569 102.594 62.5345 102.33 62.3713C102.208 62.3101 102.065 62.2286 101.943 62.147C101.74 62.249 101.516 62.3305 101.272 62.4121C101.191 62.4529 101.069 62.4733 100.947 62.4937Z" stroke="#C59B82" stroke-opacity="0.5" stroke-miterlimit="10"/>
<path opacity="0.5" d="M224.312 61.0456C224.617 60.2909 225.004 59.5363 225.614 59.0875C226.571 58.3941 227.873 57.9861 228.93 57.3947C229.683 56.9663 228.93 55.9873 228.178 56.4156C227.059 57.0479 225.655 57.4558 224.658 58.2717C223.844 58.9244 223.377 59.9442 223.01 60.9028C218.311 60.3725 215.646 60.4541 214.71 65.0228C213.733 69.8363 215.849 74.2011 220.996 74.7926C226.164 75.4045 229.378 71.672 230.354 66.8585C231.27 62.2286 229.073 61.6167 224.312 61.0456Z" stroke="#C59B82" stroke-opacity="0.5" stroke-miterlimit="10"/>
<path opacity="0.5" d="M223.783 58.5369C223.783 58.5369 223.173 56.0485 221.993 55.7426C221.993 55.7426 224.353 56.0281 224.78 57.721C224.78 57.721 228.259 54.784 218.779 52.7852C218.758 52.7852 219.43 63.228 223.783 58.5369Z" stroke="#C59B82" stroke-opacity="0.5" stroke-miterlimit="10"/>
<path opacity="0.5" d="M99.6242 81.7275L98.9936 84.277L102.391 83.8283L104.731 86.6634L107.213 85.7659C105.341 83.7671 105.28 82.2374 103.062 81.9315C103.591 81.1972 104.995 80.8301 105.849 80.6057C107.396 80.2182 109.206 80.5241 110.793 80.8505C111.444 80.9728 111.566 80.055 110.915 79.9122C108.942 79.5247 106.968 79.3208 105.056 79.7899C104.059 80.055 102.676 80.5853 102.106 81.4827C100.479 80.0142 98.7494 80.6669 96.5726 80.4221L99.6242 81.7275Z" stroke="#C59B82" stroke-opacity="0.5" stroke-miterlimit="10"/>
<path opacity="0.5" d="M107.457 86.5816L104.832 87.6422L102.208 84.6032L98.0171 85.0315L98.7088 82.0945L95.352 80.7075C92.3818 81.1562 89.8388 82.8287 88.5978 85.4802C86.0345 90.9668 90.7339 91.2931 95.9623 93.965C100.947 96.5145 105.361 100.023 107.945 94.4953C109.166 91.9662 108.86 89.0699 107.457 86.5816Z" stroke="#C59B82" stroke-opacity="0.5" stroke-miterlimit="10"/>
<path opacity="0.5" d="M78.8734 8.09713L78.2427 10.6467L81.6402 10.1979L83.9797 13.033L86.4617 12.1356C84.5901 10.1367 84.529 8.60704 82.3115 8.30109C82.8405 7.56683 84.2442 7.1997 85.0987 6.97534C86.6448 6.58782 88.4554 6.89376 90.0422 7.2201C90.6932 7.34247 90.8153 6.42465 90.1643 6.28187C88.1909 5.89435 86.2176 5.69039 84.3052 6.1595C83.3084 6.44504 81.925 6.99574 81.3757 7.87278C79.7482 6.40425 78.019 7.05693 75.8422 6.81217L78.8734 8.09713Z" stroke="#C59B82" stroke-opacity="0.5" stroke-miterlimit="10"/>
<path opacity="0.5" d="M86.7262 12.9512L84.1018 14.0118L81.4775 10.9728L77.2866 11.4011L77.9783 8.46409L74.6216 7.07715C71.6513 7.52586 69.1083 9.19835 67.8674 11.8498C65.304 17.3364 70.0035 17.6628 75.2319 20.3347C80.2161 22.8842 84.6308 26.3923 87.2144 20.865C88.4147 18.3358 88.1096 15.46 86.7262 12.9512Z" stroke="#C59B82" stroke-opacity="0.5" stroke-miterlimit="10"/>
<path opacity="0.5" d="M134.575 66.9606C134.575 66.9606 134.636 64.2072 133.721 63.5137C133.721 63.5137 135.653 64.5743 135.613 66.4507C135.613 66.4507 139.275 64.5947 131.666 59.4141C131.666 59.4141 129.754 70.326 134.575 66.9606Z" stroke="#C59B82" stroke-opacity="0.5" stroke-miterlimit="10"/>
<g opacity="0.5">
<path opacity="0.5" d="M129.184 70.0815C128.533 70.7749 127.455 70.7341 126.804 69.9795C126.153 69.2248 126.153 68.0418 126.804 67.3484C127.455 66.6549 128.533 66.6957 129.184 67.4503C129.855 68.205 129.855 69.388 129.184 70.0815Z" stroke="#C59B82" stroke-opacity="0.5" stroke-miterlimit="10"/>
<path opacity="0.5" d="M132.012 73.3246C131.361 74.0181 130.283 73.9773 129.632 73.2226C128.981 72.468 128.981 71.285 129.632 70.5915C130.283 69.8981 131.361 69.9388 132.012 70.6935C132.683 71.4482 132.683 72.6107 132.012 73.3246Z" stroke="#C59B82" stroke-opacity="0.5" stroke-miterlimit="10"/>
<path opacity="0.5" d="M134.779 76.4857C134.128 77.1792 133.049 77.1384 132.398 76.3838C131.747 75.6291 131.747 74.4461 132.398 73.7527C133.049 73.0592 134.128 73.1 134.779 73.8546C135.43 74.6093 135.43 75.7923 134.779 76.4857Z" stroke="#C59B82" stroke-opacity="0.5" stroke-miterlimit="10"/>
<path opacity="0.5" d="M131.076 77.5668C130.425 78.2603 129.347 78.2195 128.696 77.4648C128.045 76.7102 128.045 75.5272 128.696 74.8337C129.347 74.1402 130.425 74.181 131.076 74.9357C131.727 75.6903 131.727 76.8733 131.076 77.5668Z" stroke="#C59B82" stroke-opacity="0.5" stroke-miterlimit="10"/>
<path opacity="0.5" d="M128.187 74.2421C127.536 74.9356 126.458 74.8948 125.807 74.1401C125.156 73.3855 125.156 72.2025 125.807 71.509C126.458 70.8155 127.536 70.8563 128.187 71.611C128.859 72.386 128.838 73.5486 128.187 74.2421Z" stroke="#C59B82" stroke-opacity="0.5" stroke-miterlimit="10"/>
<path opacity="0.5" d="M127.414 78.6684C126.763 79.3618 125.685 79.321 125.034 78.5664C124.383 77.8117 124.383 76.6287 125.034 75.9353C125.685 75.2418 126.763 75.2826 127.414 76.0373C128.085 76.7919 128.085 77.9749 127.414 78.6684Z" stroke="#C59B82" stroke-opacity="0.5" stroke-miterlimit="10"/>
<path opacity="0.5" d="M124.81 75.6906C124.383 76.1393 123.691 76.1189 123.264 75.6294C122.837 75.1399 122.837 74.3853 123.264 73.9161C123.691 73.4674 124.383 73.4878 124.81 73.9773C125.258 74.4668 125.237 75.2419 124.81 75.6906Z" stroke="#C59B82" stroke-opacity="0.5" stroke-miterlimit="10"/>
<path opacity="0.5" d="M123.753 78.444C123.326 78.8927 122.634 78.8723 122.207 78.3828C121.78 77.8933 121.78 77.1387 122.207 76.6696C122.634 76.2208 123.326 76.2412 123.753 76.7308C124.18 77.2407 124.18 77.9953 123.753 78.444Z" stroke="#C59B82" stroke-opacity="0.5" stroke-miterlimit="10"/>
<path opacity="0.5" d="M131.991 69.1023C131.625 69.4694 131.056 69.449 130.71 69.0411C130.364 68.6332 130.364 68.0009 130.71 67.6134C131.076 67.2463 131.646 67.2667 131.991 67.6746C132.337 68.1029 132.337 68.7352 131.991 69.1023Z" stroke="#C59B82" stroke-opacity="0.5" stroke-miterlimit="10"/>
<path opacity="0.5" d="M125.258 80.8303C124.891 81.1975 124.322 81.1771 123.976 80.7692C123.63 80.3612 123.63 79.729 123.976 79.3414C124.342 78.9743 124.912 78.9947 125.258 79.4026C125.604 79.8309 125.604 80.4632 125.258 80.8303Z" stroke="#C59B82" stroke-opacity="0.5" stroke-miterlimit="10"/>
<path opacity="0.5" d="M123.081 80.8504C122.715 81.2175 122.145 81.1971 121.799 80.7892C121.453 80.3813 121.453 79.749 121.799 79.3614C122.165 78.9943 122.735 79.0147 123.081 79.4226C123.427 79.8306 123.427 80.4832 123.081 80.8504Z" stroke="#C59B82" stroke-opacity="0.5" stroke-miterlimit="10"/>
<path opacity="0.5" d="M134.779 72.3045C134.412 72.6716 133.843 72.6512 133.497 72.2433C133.151 71.8354 133.151 71.2031 133.497 70.8155C133.863 70.4484 134.433 70.4688 134.779 70.8767C135.124 71.3051 135.124 71.9373 134.779 72.3045Z" stroke="#C59B82" stroke-opacity="0.5" stroke-miterlimit="10"/>
</g>
<path opacity="0.5" d="M133.7 69.4695C135.389 66.818 140.21 69.3675 142.224 70.5913C142.652 70.8565 143.018 70.163 142.591 69.8978C140.149 68.3885 135.084 65.8798 133.049 69.0412C132.765 69.4695 133.416 69.8978 133.7 69.4695Z" stroke="#C59B82" stroke-opacity="0.5" stroke-miterlimit="10"/>
<path opacity="0.5" d="M111.993 37.0396H111.912C112.054 36.3258 112.461 34.1842 112.217 33.1032C111.912 31.7978 110.773 33.2052 110.773 33.2052C110.773 33.2052 111.037 35.1632 110.651 36.8969L110.407 36.8765C105.524 48.4819 92.036 46.0955 92.036 46.0955C91.446 46.3199 90.9984 46.1159 90.9984 46.1159C90.3678 46.4219 90.6119 47.1154 90.6119 47.1154L91.2426 47.5029C91.2222 47.8088 91.5477 47.9924 91.5477 47.9924C94.5993 50.0116 98.3833 50.2564 98.3833 50.2564C112.482 50.4603 112.807 41.6696 111.993 37.0396Z" stroke="#C59B82" stroke-opacity="0.5" stroke-miterlimit="10"/>
<path opacity="0.5" d="M109.064 37.8554L109.023 37.835C109.328 37.4882 110.203 36.448 110.386 35.8158C110.61 35.0407 109.552 35.5098 109.552 35.5098C109.552 35.5098 109.105 36.6112 108.352 37.4475L108.23 37.3659C101.964 42.2813 95.1486 37.5494 95.1486 37.5494C94.762 37.529 94.5586 37.2843 94.5586 37.2843C94.111 37.2843 94.0297 37.7126 94.0297 37.7126L94.2738 38.0797C94.1721 38.2429 94.2941 38.4265 94.2941 38.4265C95.3724 40.2825 97.4271 41.3839 97.4271 41.3839C105.219 45.1368 108.087 40.5273 109.064 37.8554Z" stroke="#C59B82" stroke-opacity="0.5" stroke-miterlimit="10"/>
<path opacity="0.5" d="M265.59 87.3156C265.59 87.3156 267.909 88.2539 266.14 89.9671C266.14 89.9671 263.271 92.3535 261.44 93.0266C261.44 93.0266 260.158 93.5773 259.243 92.2107C259.243 92.2107 256.842 88.3966 256.537 84.9089C256.537 84.9089 256.354 84.297 257.27 83.5831C257.27 83.5831 258.551 82.9101 259.406 83.0325C259.426 83.0121 264.248 86.3162 265.59 87.3156Z" stroke="#C59B82" stroke-opacity="0.5" stroke-miterlimit="10"/>
<path opacity="0.5" d="M258.043 92.435C258.043 92.435 255.723 89.6815 255.581 85.1943C255.581 85.1943 253.303 85.9082 252.509 85.3983C252.509 85.3983 250.597 92.4758 254.503 92.5574L258.043 92.435Z" stroke="#C59B82" stroke-opacity="0.5" stroke-miterlimit="10"/>
<path opacity="0.5" d="M251.166 90.783C251.166 90.783 250.292 89.1105 251.207 85.8267C251.207 85.8267 249.803 85.9695 248.806 85.5208C248.806 85.5208 246.691 84.6437 247.26 87.6828C247.26 87.6624 248.155 90.0079 251.166 90.783Z" stroke="#C59B82" stroke-opacity="0.5" stroke-miterlimit="10"/>
<path opacity="0.5" d="M267.014 87.1936C267.014 87.1936 264.573 85.5823 260.321 82.6452C260.321 82.6452 261.847 80.9523 261.562 80.0957C261.562 80.0957 269.557 80.8708 268.316 84.2157L267.014 87.1936Z" stroke="#C59B82" stroke-opacity="0.5" stroke-miterlimit="10"/>
<path opacity="0.5" d="M267.645 80.7686C267.645 80.7686 266.221 79.4428 262.478 79.1165C262.478 79.1165 263.108 77.9743 262.966 76.9545C262.966 76.9545 262.783 74.8537 265.733 76.363C265.733 76.3834 267.869 77.9335 267.645 80.7686Z" stroke="#C59B82" stroke-opacity="0.5" stroke-miterlimit="10"/>
<path opacity="0.5" d="M155.916 44.4023C155.224 42.1383 156.16 40.0987 156.16 40.0987C156.262 43.1174 157.93 44.7491 158.662 45.3405C160.31 45.7689 162.162 46.0136 164.135 46.0952C162.67 43.4437 163.931 40.7106 163.931 40.7106C164.033 44.0148 166.007 45.6669 166.597 46.0748C168.468 45.9728 170.238 45.6873 171.805 45.2793C170.503 42.6686 171.683 40.0783 171.683 40.0783C171.764 42.4035 172.761 43.8924 173.534 44.7287C176.585 43.5865 178.559 41.812 178.538 39.854C178.518 36.407 172.517 33.6535 165.111 33.6739C157.706 33.6943 151.725 36.509 151.725 39.9356C151.745 41.6692 153.353 43.2601 155.916 44.4023Z" stroke="#C59B82" stroke-opacity="0.5" stroke-miterlimit="10"/>
<path d="M124.708 45.5448C126.315 44.6882 127.943 43.8315 129.509 42.8933C127.597 44.423 125.644 45.9324 123.671 47.4213C122.999 47.9108 123.752 48.951 124.424 48.4411C126.315 47.0134 128.187 45.5652 130.018 44.1171C129.042 45.504 128.146 46.9522 127.028 48.2167C126.478 48.8286 127.495 49.6445 128.045 49.0326C129.347 47.5436 130.384 45.7896 131.544 44.2191C132.602 42.8117 133.883 41.5472 134.88 40.0991C134.941 40.0379 134.982 39.9767 135.002 39.9155C135.084 39.7931 135.165 39.6707 135.226 39.5484C137.118 40.4458 138.44 38.8957 138.44 38.8957L139.234 38.0186C138.4 37.8351 138.095 36.9784 138.095 36.9784C138.44 37.4068 139.417 37.4679 139.722 37.4883L141.004 36.081C140.983 36.081 140.983 36.081 140.963 36.081C140.129 35.8974 139.824 35.0408 139.824 35.0408C140.19 35.4895 141.248 35.5507 141.492 35.5507L142.753 34.1638C141.98 33.9394 141.696 33.1644 141.696 33.1644C142.021 33.5519 142.835 33.6539 143.221 33.6743L144.523 32.2465C143.832 31.9814 143.567 31.2675 143.567 31.2675C143.852 31.6143 144.523 31.7366 144.951 31.757L146.273 30.2885C145.663 30.003 145.439 29.3707 145.439 29.3707C145.683 29.6766 146.253 29.799 146.68 29.8602L148.043 28.3509C147.514 28.0449 147.31 27.4738 147.31 27.4738C147.534 27.7594 148.022 27.8818 148.409 27.9429L148.979 27.3107C149.914 26.1073 149.243 25.1691 149.162 25.0467C149.04 24.9855 147.941 24.4552 146.7 25.3934L134.84 35.7955C134.84 35.7955 133.293 37.0804 134.311 38.6713C132.663 39.0181 131.401 40.0787 130.12 41.0373C128.269 42.4038 126.092 43.4236 124.017 44.5454C123.223 44.9125 123.976 45.9324 124.708 45.5448Z" stroke="#C59B82" stroke-opacity="0.25" stroke-miterlimit="10"/>
<path d="M4.5163 99.6354C6.12348 98.7788 7.75099 97.9222 9.31748 96.9839C7.40514 98.5136 5.45213 100.023 3.47876 101.512C2.80741 102.001 3.56014 103.042 4.23149 102.532C6.12348 101.104 7.99512 99.6558 9.82607 98.2077C8.84956 99.5946 7.95443 101.043 6.83551 102.307C6.28623 102.919 7.30342 103.735 7.85271 103.123C9.15472 101.614 10.1719 99.8598 11.3519 98.2689C12.4098 96.8615 13.6914 95.597 14.6883 94.1489C14.7493 94.0877 14.79 94.0265 14.8103 93.9653C14.8917 93.8429 14.9731 93.7205 15.0341 93.5982C16.9261 94.4956 18.2485 92.9455 18.2485 92.9455L19.0419 92.0685C18.2078 91.8849 17.9026 91.0282 17.9026 91.0282C18.2485 91.4566 19.225 91.5178 19.5301 91.5381L20.8118 90.1308C20.7915 90.1308 20.7915 90.1308 20.7711 90.1308C19.937 89.9473 19.6319 89.0906 19.6319 89.0906C19.998 89.5393 21.0559 89.6005 21.3001 89.6005L22.5614 88.2136C21.7883 87.9892 21.5035 87.2142 21.5035 87.2142C21.829 87.6017 22.6428 87.7037 23.0293 87.7241L24.3313 86.2963C23.6396 86.0312 23.3751 85.3173 23.3751 85.3173C23.66 85.6641 24.3313 85.7864 24.7585 85.8068L26.0809 84.3383C25.4706 84.0528 25.2468 83.4205 25.2468 83.4205C25.4909 83.7264 26.0605 83.8488 26.4878 83.91L27.8508 82.4007C27.3219 82.0947 27.1184 81.5236 27.1184 81.5236C27.3422 81.8092 27.8305 81.9316 28.217 81.9927L28.7866 81.3605C29.7225 80.1571 29.0511 79.2189 28.9697 79.0965C28.8477 79.0353 27.7491 78.505 26.5081 79.4432L14.6476 89.8453C14.6476 89.8453 13.1015 91.1302 14.1186 92.7211C12.4708 93.0679 11.2095 94.1285 9.92779 95.0871C8.0765 96.4536 5.89969 97.4734 3.82461 98.5952C3.01085 99.0031 3.76358 100.023 4.5163 99.6354Z" stroke="#C59B82" stroke-opacity="0.25" stroke-miterlimit="10"/>
<path opacity="0.5" d="M206.817 41.404C203.46 45.6668 197.316 46.1359 192.901 42.383C188.487 38.6301 187.368 31.981 190.297 27.351L189.239 26.4536C185.883 31.6954 187.124 39.2012 192.148 43.4844C197.173 47.7472 204.111 47.1965 207.895 42.3422L206.817 41.404Z" stroke="#C59B82" stroke-opacity="0.5" stroke-miterlimit="10"/>
<path opacity="0.5" d="M206.43 41.098L204.355 39.3236C204.131 39.4867 203.867 39.5683 203.561 39.5479C203.155 39.5275 202.768 39.3032 202.524 38.9564C202.402 38.9768 202.28 38.9972 202.158 38.9972C201.425 38.9564 200.815 38.263 200.795 37.4675C200.795 37.3655 200.795 37.2839 200.815 37.2024C200.266 36.978 199.879 36.4069 199.859 35.7746C199.859 35.693 199.859 35.6115 199.879 35.5503L190.643 27.6978C187.856 32.1237 188.934 38.4465 193.145 42.0362C197.377 45.5852 203.216 45.1365 206.43 41.098ZM192.332 33.7758C192.047 33.5311 192.067 33.0008 192.352 32.5928C192.637 32.1849 193.105 32.0217 193.389 32.2665C193.674 32.5112 193.654 33.0415 193.369 33.4495C193.064 33.8778 192.596 34.0206 192.332 33.7758ZM198.353 35.9786C198.638 36.2233 198.618 36.7536 198.333 37.1616C198.048 37.5695 197.58 37.7327 197.296 37.4879C197.011 37.2432 197.031 36.7129 197.316 36.3049C197.621 35.8766 198.089 35.7338 198.353 35.9786ZM193.796 38.2426C193.512 37.9978 193.532 37.4675 193.817 37.0596C194.102 36.6517 194.569 36.4885 194.854 36.7332C195.139 36.978 195.119 37.5083 194.834 37.9162C194.529 38.3241 194.081 38.4669 193.796 38.2426ZM201.324 39.6907C201.608 39.2828 202.076 39.1196 202.361 39.3644C202.646 39.6091 202.626 40.1394 202.341 40.5473C202.056 40.9553 201.588 41.1184 201.303 40.8737C200.998 40.6289 201.018 40.0986 201.324 39.6907ZM197.011 41.9955C196.726 41.7507 196.746 41.2204 197.031 40.8125C197.316 40.4046 197.784 40.2618 198.069 40.4861C198.353 40.7309 198.333 41.2612 198.048 41.6691C197.743 42.0974 197.296 42.2402 197.011 41.9955Z" stroke="#C59B82" stroke-opacity="0.5" stroke-miterlimit="10"/>
<path opacity="0.5" d="M203.989 57.5989L202.341 57.2114C200.998 56.8851 199.554 57.6805 199.086 58.9859L196.706 66.4712C197.336 66.5732 197.947 66.7568 198.516 67.0219C198.821 66.7772 199.147 66.5528 199.513 66.3489C200.856 65.5942 202.341 65.2679 203.724 65.3699L205.596 60.5564C206.044 59.2306 205.331 57.9049 203.989 57.5989Z" stroke="#C59B82" stroke-opacity="0.5" stroke-miterlimit="10"/>
<path opacity="0.5" d="M199.452 67.2666C199.147 67.4297 198.882 67.6337 198.618 67.8377C196.97 67.0626 194.895 67.1034 193.084 68.1436C191.274 69.1634 190.155 70.9175 189.972 72.7327C189.687 72.8347 189.402 72.9775 189.117 73.1203C186.289 74.7316 185.15 78.0969 186.595 80.6668C187.205 81.7478 188.161 82.5025 189.28 82.89L207.712 72.4472C207.935 71.2846 207.793 70.0608 207.183 69.0002C205.759 66.4303 202.28 65.6553 199.452 67.2666Z" stroke="#C59B82" stroke-opacity="0.5" stroke-miterlimit="10"/>
<path opacity="0.5" d="M195.485 88.9884C196.624 90.2937 198.984 91.3747 200.998 90.2325L207.732 86.4184C209.746 85.2763 209.888 82.7879 209.522 81.0339L207.732 74.0176L190.663 83.6854L195.485 88.9884Z" stroke="#C59B82" stroke-opacity="0.5" stroke-miterlimit="10"/>
<g opacity="0.5">
<path opacity="0.5" d="M156.404 64.1051C151.562 66.3895 148.999 70.6319 150.586 73.6709L168.407 65.2473C166.536 62.3511 161.226 61.8208 156.404 64.1051Z" stroke="#C59B82" stroke-opacity="0.5" stroke-miterlimit="10"/>
<path opacity="0.5" d="M153.943 79.5042C155.835 82.3596 161.083 82.8695 165.885 80.5852C170.686 78.3212 173.229 74.1196 171.744 71.0806L153.943 79.5042Z" stroke="#C59B82" stroke-opacity="0.5" stroke-miterlimit="10"/>
<path opacity="0.5" d="M151.461 77.1584L170.869 67.9802C171.316 67.5722 171.438 66.9604 171.133 66.4301C170.747 65.7774 169.872 65.5122 169.14 65.859L150.525 74.6497C149.792 74.9964 149.528 75.7919 149.894 76.4446C150.22 76.9953 150.85 77.2604 151.461 77.1584Z" stroke="#C59B82" stroke-opacity="0.5" stroke-miterlimit="10"/>
</g>
<path opacity="0.5" d="M172.598 68.939C172.578 68.6534 173.656 66.8178 172.008 68.1843C170.36 69.5508 170.136 70.7746 168.753 70.7542C167.37 70.7338 166.719 70.02 165.417 71.5905C164.115 73.161 161.877 73.9156 161.144 73.9768C160.412 74.0176 158.011 74.4867 157.218 75.7513C156.425 77.0158 155.957 77.0158 154.187 77.485C152.396 77.9541 152.091 77.8113 150.83 78.4028C149.569 78.9943 150.81 78.7699 151.562 78.8719C152.295 78.9739 153.739 79.0963 153.739 79.0963L170.564 71.1417C170.604 71.1621 172.659 70.2443 172.598 68.939Z" stroke="#C59B82" stroke-opacity="0.5" stroke-miterlimit="10"/>
<g opacity="0.5">
<path opacity="0.5" d="M183.544 6.62892C180.126 8.24021 178.315 11.2384 179.434 13.4004L192.027 7.44476C190.725 5.38475 186.962 5.01762 183.544 6.62892Z" stroke="#C59B82" stroke-opacity="0.5" stroke-miterlimit="10"/>
<path opacity="0.5" d="M181.814 17.5202C183.156 19.5395 186.859 19.8862 190.257 18.2953C193.654 16.684 195.465 13.7266 194.386 11.585L181.814 17.5202Z" stroke="#C59B82" stroke-opacity="0.5" stroke-miterlimit="10"/>
<path opacity="0.5" d="M180.064 15.8682L193.796 9.38225C194.102 9.0967 194.203 8.64799 193.979 8.28085C193.715 7.81174 193.084 7.64857 192.576 7.87293L179.393 14.0938C178.884 14.3385 178.681 14.9096 178.945 15.3787C179.169 15.7458 179.617 15.9294 180.064 15.8682Z" stroke="#C59B82" stroke-opacity="0.5" stroke-miterlimit="10"/>
</g>
<path opacity="0.5" d="M194.997 10.0554C194.997 9.85146 195.749 8.54611 194.59 9.52512C193.43 10.5041 193.267 11.3608 192.291 11.3404C191.314 11.3404 190.867 10.8101 189.931 11.9319C189.016 13.0537 187.429 13.584 186.92 13.6248C186.412 13.6655 184.703 13.9919 184.153 14.8893C183.584 15.7867 183.258 15.7867 181.997 16.1131C180.736 16.4394 180.512 16.3374 179.617 16.7658C178.722 17.1941 179.617 17.0309 180.125 17.0921C180.654 17.1533 181.671 17.2553 181.671 17.2553L193.573 11.6259C193.593 11.6055 195.037 10.9733 194.997 10.0554Z" stroke="#C59B82" stroke-opacity="0.5" stroke-miterlimit="10"/>
</svg>
