<svg width="335" height="113" viewBox="0 0 335 113" fill="none" xmlns="http://www.w3.org/2000/svg">
<rect width="335" height="113" rx="11" fill="white"/>
<path d="M50.11 32.1C52.03 32.1 52.94 31.14 52.94 30.02C52.94 27.45 48.79 28.42 48.79 26.93C48.79 26.4 49.23 25.98 50.31 25.98C50.92 25.98 51.61 26.16 52.24 26.53L52.65 25.52C52.04 25.12 51.16 24.9 50.32 24.9C48.4 24.9 47.5 25.86 47.5 26.99C47.5 29.59 51.66 28.6 51.66 30.11C51.66 30.63 51.2 31.02 50.11 31.02C49.25 31.02 48.36 30.7 47.8 30.25L47.35 31.26C47.93 31.76 49.02 32.1 50.11 32.1ZM59.1291 29.36C59.1291 27.69 57.9891 26.6 56.4291 26.6C54.8391 26.6 53.6691 27.74 53.6691 29.33C53.6691 30.92 54.8291 32.07 56.6191 32.07C57.5391 32.07 58.2891 31.77 58.7691 31.2L58.0991 30.43C57.7191 30.82 57.2491 31.01 56.6491 31.01C55.7191 31.01 55.0691 30.51 54.9191 29.73H59.1091C59.1191 29.61 59.1291 29.46 59.1291 29.36ZM56.4291 27.6C57.2491 27.6 57.8391 28.13 57.9391 28.9H54.9091C55.0291 28.12 55.6191 27.6 56.4291 27.6ZM63.1898 30.82C62.9998 30.97 62.7498 31.04 62.4898 31.04C62.0098 31.04 61.7498 30.76 61.7498 30.24V27.7H63.1798V26.7H61.7498V25.48H60.4998V26.7H59.6198V27.7H60.4998V30.27C60.4998 31.45 61.1698 32.07 62.3398 32.07C62.7898 32.07 63.2398 31.95 63.5398 31.71L63.1898 30.82ZM67.3011 30.82C67.1111 30.97 66.8611 31.04 66.6011 31.04C66.1211 31.04 65.8611 30.76 65.8611 30.24V27.7H67.2911V26.7H65.8611V25.48H64.6111V26.7H63.7311V27.7H64.6111V30.27C64.6111 31.45 65.2811 32.07 66.4511 32.07C66.9011 32.07 67.3511 31.95 67.6511 31.71L67.3011 30.82ZM69.3094 25.78C69.7794 25.78 70.1094 25.44 70.1094 25C70.1094 24.59 69.7694 24.28 69.3094 24.28C68.8494 24.28 68.5094 24.61 68.5094 25.03C68.5094 25.45 68.8494 25.78 69.3094 25.78ZM68.6794 32H69.9294V26.66H68.6794V32ZM74.6 26.6C73.82 26.6 73.17 26.86 72.76 27.35V26.66H71.57V32H72.82V29.3C72.82 28.23 73.42 27.69 74.31 27.69C75.11 27.69 75.58 28.15 75.58 29.1V32H76.83V28.94C76.83 27.33 75.88 26.6 74.6 26.6ZM82.5745 26.66V27.37C82.1345 26.84 81.4745 26.6 80.7245 26.6C79.1945 26.6 78.0245 27.62 78.0245 29.17C78.0245 30.72 79.1945 31.76 80.7245 31.76C81.4445 31.76 82.0745 31.53 82.5145 31.05V31.33C82.5145 32.41 81.9945 32.95 80.8145 32.95C80.0745 32.95 79.3145 32.7 78.8445 32.31L78.2845 33.25C78.8945 33.75 79.8845 34.01 80.8845 34.01C82.7545 34.01 83.7645 33.13 83.7645 31.19V26.66H82.5745ZM80.9145 30.7C79.9645 30.7 79.2845 30.08 79.2845 29.17C79.2845 28.27 79.9645 27.66 80.9145 27.66C81.8545 27.66 82.5345 28.27 82.5345 29.17C82.5345 30.08 81.8545 30.7 80.9145 30.7ZM87.0579 32.07C88.5579 32.07 89.4779 31.42 89.4779 30.42C89.4779 28.33 86.1779 29.29 86.1779 28.21C86.1779 27.86 86.5379 27.61 87.2979 27.61C87.8079 27.61 88.3179 27.71 88.8279 28.01L89.3079 27.06C88.8279 26.77 88.0179 26.6 87.3079 26.6C85.8679 26.6 84.9579 27.26 84.9579 28.27C84.9579 30.4 88.2579 29.44 88.2579 30.46C88.2579 30.83 87.9279 31.05 87.1379 31.05C86.4679 31.05 85.7479 30.83 85.2779 30.52L84.7979 31.47C85.2779 31.81 86.1679 32.07 87.0579 32.07Z" fill="black"/>
<path d="M50.82 56H47.94V63H49.24V60.98H50.82C52.66 60.98 53.8 60.03 53.8 58.49C53.8 56.94 52.66 56 50.82 56ZM50.76 59.88H49.24V57.1H50.76C51.9 57.1 52.49 57.61 52.49 58.49C52.49 59.37 51.9 59.88 50.76 59.88ZM56.9694 57.6C56.1094 57.6 55.2794 57.82 54.7094 58.26L55.1994 59.17C55.5994 58.84 56.2194 58.64 56.8194 58.64C57.7094 58.64 58.1494 59.07 58.1494 59.8V59.88H56.7694C55.1494 59.88 54.5494 60.58 54.5494 61.47C54.5494 62.4 55.3194 63.07 56.5394 63.07C57.3394 63.07 57.9194 62.81 58.2194 62.35V63H59.3994V59.87C59.3994 58.33 58.5094 57.6 56.9694 57.6ZM56.7994 62.16C56.1594 62.16 55.7794 61.87 55.7794 61.42C55.7794 61.03 56.0094 60.71 56.8594 60.71H58.1494V61.33C57.9394 61.88 57.4094 62.16 56.7994 62.16ZM64.7059 57.66L63.0159 61.61L61.3359 57.66H60.0359L62.3659 63.02L62.2759 63.23C62.0359 63.76 61.7759 63.97 61.3359 63.97C60.9959 63.97 60.6559 63.83 60.4159 63.6L59.9159 64.52C60.2559 64.83 60.8159 65.01 61.3459 65.01C62.2359 65.01 62.9159 64.64 63.4059 63.43L65.9059 57.66H64.7059ZM73.4272 57.6C72.5772 57.6 71.8572 57.94 71.4272 58.49C71.0572 57.89 70.4072 57.6 69.6272 57.6C68.8972 57.6 68.2772 57.86 67.8772 58.34V57.66H66.6872V63H67.9372V60.29C67.9372 59.23 68.4972 58.69 69.3272 58.69C70.0872 58.69 70.5272 59.15 70.5272 60.1V63H71.7772V60.29C71.7772 59.23 72.3472 58.69 73.1672 58.69C73.9272 58.69 74.3672 59.15 74.3672 60.1V63H75.6172V59.94C75.6172 58.33 74.7172 57.6 73.4272 57.6ZM82.2834 60.36C82.2834 58.69 81.1434 57.6 79.5834 57.6C77.9934 57.6 76.8234 58.74 76.8234 60.33C76.8234 61.92 77.9834 63.07 79.7734 63.07C80.6934 63.07 81.4434 62.77 81.9234 62.2L81.2534 61.43C80.8734 61.82 80.4034 62.01 79.8034 62.01C78.8734 62.01 78.2234 61.51 78.0734 60.73H82.2634C82.2734 60.61 82.2834 60.46 82.2834 60.36ZM79.5834 58.6C80.4034 58.6 80.9934 59.13 81.0934 59.9H78.0634C78.1834 59.12 78.7734 58.6 79.5834 58.6ZM86.5141 57.6C85.7341 57.6 85.0841 57.86 84.6741 58.35V57.66H83.4841V63H84.7341V60.3C84.7341 59.23 85.3341 58.69 86.2241 58.69C87.0241 58.69 87.4941 59.15 87.4941 60.1V63H88.7441V59.94C88.7441 58.33 87.7941 57.6 86.5141 57.6ZM93.1898 61.82C92.9998 61.97 92.7498 62.04 92.4898 62.04C92.0098 62.04 91.7498 61.76 91.7498 61.24V58.7H93.1798V57.7H91.7498V56.48H90.4998V57.7H89.6198V58.7H90.4998V61.27C90.4998 62.45 91.1698 63.07 92.3398 63.07C92.7898 63.07 93.2398 62.95 93.5398 62.71L93.1898 61.82Z" fill="black"/>
<path d="M52.86 87V89.89H49.24V87H47.94V94H49.24V91H52.86V94H54.16V87H52.86ZM60.9357 91.36C60.9357 89.69 59.7957 88.6 58.2357 88.6C56.6457 88.6 55.4757 89.74 55.4757 91.33C55.4757 92.92 56.6357 94.07 58.4257 94.07C59.3457 94.07 60.0957 93.77 60.5757 93.2L59.9057 92.43C59.5257 92.82 59.0557 93.01 58.4557 93.01C57.5257 93.01 56.8757 92.51 56.7257 91.73H60.9157C60.9257 91.61 60.9357 91.46 60.9357 91.36ZM58.2357 89.6C59.0557 89.6 59.6457 90.13 59.7457 90.9H56.7157C56.8357 90.12 57.4257 89.6 58.2357 89.6ZM62.1364 94H63.3864V86.58H62.1364V94ZM67.987 88.6C67.257 88.6 66.637 88.85 66.217 89.36V88.66H65.027V95.94H66.277V93.35C66.707 93.84 67.307 94.07 67.987 94.07C69.547 94.07 70.697 92.99 70.697 91.33C70.697 89.68 69.547 88.6 67.987 88.6ZM67.847 93C66.947 93 66.257 92.35 66.257 91.33C66.257 90.31 66.947 89.66 67.847 89.66C68.747 89.66 69.427 90.31 69.427 91.33C69.427 92.35 68.747 93 67.847 93Z" fill="black"/>
<g clip-path="url(#clip0_118:3186)">
<path d="M36.6571 28.3547H26.6254C26.4379 28.3547 26.2825 28.194 26.2825 28.0003C26.2825 27.8065 26.4379 27.6459 26.6254 27.6459H36.6571C36.8446 27.6459 37.0001 27.8065 37.0001 28.0003C37.0001 28.194 36.8446 28.3547 36.6571 28.3547Z" fill="#383838"/>
<path d="M23.3744 28.3547H20.3429C20.1555 28.3547 20 28.194 20 28.0003C20 27.8065 20.1555 27.6459 20.3429 27.6459H23.3744C23.5619 27.6459 23.7173 27.8065 23.7173 28.0003C23.7173 28.194 23.5664 28.3547 23.3744 28.3547Z" fill="#383838"/>
<path d="M36.6571 22.3865H33.6256C33.4382 22.3865 33.2827 22.2259 33.2827 22.0321C33.2827 21.8384 33.4382 21.6777 33.6256 21.6777H36.6571C36.8446 21.6777 37 21.8384 37 22.0321C37 22.2306 36.8446 22.3865 36.6571 22.3865Z" fill="#383838"/>
<path d="M30.3747 22.3865H20.3429C20.1555 22.3865 20 22.2306 20 22.0321C20 21.8384 20.1555 21.6777 20.3429 21.6777H30.3747C30.5621 21.6777 30.7176 21.8384 30.7176 22.0321C30.7176 22.2306 30.5621 22.3865 30.3747 22.3865Z" fill="#383838"/>
<path d="M36.6571 34.3181H33.6256C33.4382 34.3181 33.2827 34.1574 33.2827 33.9637C33.2827 33.7699 33.4382 33.6093 33.6256 33.6093H36.6571C36.8446 33.6093 37 33.7699 37 33.9637C37 34.1574 36.8446 34.3181 36.6571 34.3181Z" fill="#383838"/>
<path d="M30.3747 34.3181H20.3429C20.1555 34.3181 20 34.1621 20 33.9637C20 33.7652 20.1555 33.6093 20.3429 33.6093H30.3747C30.5621 33.6093 30.7176 33.7699 30.7176 33.9637C30.7176 34.1574 30.5621 34.3181 30.3747 34.3181Z" fill="#383838"/>
<path d="M31.9978 24.0688C30.9142 24.0688 30.0317 23.1568 30.0317 22.0369C30.0317 20.917 30.9142 20.005 31.9978 20.005C33.0815 20.005 33.964 20.917 33.964 22.0369C33.9685 23.1568 33.0815 24.0688 31.9978 24.0688ZM31.9978 20.7091C31.2891 20.7091 30.7176 21.3045 30.7176 22.0322C30.7176 22.7646 31.2937 23.3553 31.9978 23.3553C32.7066 23.3553 33.2781 22.7599 33.2781 22.0322C33.2827 21.3045 32.7066 20.7091 31.9978 20.7091Z" fill="#383838"/>
<path d="M31.9978 36.0003C30.9142 36.0003 30.0317 35.0883 30.0317 33.9684C30.0317 32.8485 30.9142 31.9365 31.9978 31.9365C33.0815 31.9365 33.964 32.8485 33.964 33.9684C33.964 35.0883 33.0815 36.0003 31.9978 36.0003ZM31.9978 32.6406C31.2891 32.6406 30.7176 33.236 30.7176 33.9637C30.7176 34.6914 31.2937 35.2868 31.9978 35.2868C32.7066 35.2868 33.2781 34.6914 33.2781 33.9637C33.2781 33.236 32.7066 32.6406 31.9978 32.6406Z" fill="#383838"/>
<path d="M25.0021 30.0322C23.9185 30.0322 23.036 29.1202 23.036 28.0003C23.036 26.8804 23.9185 25.9684 25.0021 25.9684C26.0858 25.9684 26.9682 26.8804 26.9682 28.0003C26.9682 29.1202 26.0858 30.0322 25.0021 30.0322ZM25.0021 26.6725C24.2934 26.6725 23.7219 27.2679 23.7219 27.9956C23.7219 28.7233 24.298 29.3186 25.0021 29.3186C25.7108 29.3186 26.2824 28.7233 26.2824 27.9956C26.2824 27.2679 25.7108 26.6725 25.0021 26.6725Z" fill="#383838"/>
</g>
<path d="M37.0578 66.7904H22.7159C21.2221 66.7904 20 65.66 20 64.2783V56.5536C20 55.172 21.2221 54.0415 22.7159 54.0415H37.0578C38.5515 54.0415 39.7737 55.172 39.7737 56.5536V64.2783C39.7737 65.66 38.5515 66.7904 37.0578 66.7904Z" stroke="#232D3C" stroke-miterlimit="10"/>
<path d="M22.0074 57.1187H37.5308" stroke="#232D3C" stroke-miterlimit="10"/>
<path d="M23.7434 53.9619L35.2156 51.0228C35.5619 50.9349 35.924 51.1086 36.044 51.4205L37.0601 54.0415" stroke="#232D3C" stroke-miterlimit="10"/>
<path d="M29.5 98C29.05 98 28.6818 97.6211 28.6818 97.1579C28.6818 96.6947 29.05 96.3158 29.5 96.3158C29.95 96.3158 30.3182 96.6947 30.3182 97.1579C30.3182 97.6211 29.95 98 29.5 98ZM29.0991 93.7895C29.1809 92.2063 29.7373 91.2884 31.4227 89.8147C32.6664 88.7284 33.1818 88.0547 33.1818 86.6316C33.1818 84.5432 31.5291 82.8421 29.5 82.8421C27.4709 82.8421 25.8182 84.5432 25.8182 86.6316V87.0526H25V86.6316C25 84.08 27.0209 82 29.5 82C31.9791 82 34 84.08 34 86.6316C34 88.2147 33.5418 89.0737 31.9545 90.4547C30.4655 91.76 29.9909 92.4926 29.9173 93.7895H29.0991Z" fill="black"/>
<defs>
<clipPath id="clip0_118:3186">
<rect width="17" height="16" fill="white" transform="translate(20 20)"/>
</clipPath>
</defs>
</svg>
