<svg width="24" height="24" viewBox="0 0 24 24" fill="none" xmlns="http://www.w3.org/2000/svg">
<path d="M12.0056 0C10.8928 0 10.0047 0.881138 10.0047 1.96053C10.0047 3.03993 10.904 3.92106 12.0056 3.92106C13.1073 3.92106 14.0066 3.03993 14.0066 1.96053C14.0066 0.881138 13.1073 0 12.0056 0ZM12.0056 3.16108C11.3199 3.16108 10.7691 2.62139 10.7691 1.94952C10.7691 1.27765 11.3199 0.737953 12.0056 0.737953C12.6914 0.737953 13.2422 1.27765 13.2422 1.94952C13.2422 2.62139 12.6801 3.16108 12.0056 3.16108Z" fill="#C7C4C4"/>
<path d="M22.7185 21.5439H1.28149C3.79953 18.2176 5.20468 14.2415 5.20468 10.0891C5.20468 6.36631 8.25105 3.48058 11.9944 3.43652C15.7939 3.43652 18.7841 6.37732 18.7841 10.0891C18.8403 14.1974 20.2117 18.2176 22.7185 21.5439Z" fill="#C7C4C4"/>
<path d="M22.7185 24H1.2815C0.573302 24 0 23.4383 0 22.7444C0 22.0505 0.573302 21.4888 1.2815 21.4888H22.7185C23.4267 21.4888 24 22.0505 24 22.7444C23.955 23.4823 23.4267 24 22.7185 24Z" fill="#C7C4C4"/>
</svg>
