<svg width="30" height="30" viewBox="0 0 30 30" fill="none" xmlns="http://www.w3.org/2000/svg">
<path d="M15 29.3591C22.9302 29.3591 29.359 22.9303 29.359 15.0001C29.359 7.06984 22.9302 0.641113 15 0.641113C7.06975 0.641113 0.641022 7.06984 0.641022 15.0001C0.641022 22.9303 7.06975 29.3591 15 29.3591Z" stroke="#C49A81" stroke-miterlimit="10"/>
<path d="M23.4872 14.8846C23.2308 13.7307 22.3205 12.8717 21.2308 12.8717C20.9872 12.8717 20.7564 12.9102 20.5385 12.9871C20.5513 12.8974 20.5641 12.8076 20.5641 12.7179C20.5641 12.064 20.141 11.5256 19.6154 11.5256C19.2179 11.5256 18.8846 11.8333 18.7436 12.2563C17.8718 10.7563 16.3846 9.75635 14.6923 9.75635C13.2821 9.75635 11.9872 10.4358 11.0769 11.6025C10.9744 11.064 10.5897 10.6666 10.141 10.6666C9.61539 10.6666 9.19231 11.2051 9.19231 11.8589C9.19231 12.3076 9.38462 12.6922 9.67949 12.8974C9.02564 13.282 8.55128 14.0128 8.4359 14.8846H7.14103C6.84616 14.8846 6.61539 15.1794 6.61539 15.5512C6.61539 15.923 6.84616 16.2179 7.14103 16.2179H24.3462C24.641 16.2179 24.8718 15.923 24.8718 15.5512C24.8718 15.1794 24.641 14.8846 24.3462 14.8846H23.4872V14.8846ZM10.0513 14.8846C10.1795 14.6281 10.4359 14.4358 10.7308 14.4358C11.0256 14.4358 11.2821 14.6153 11.4103 14.8846H10.0513ZM12.1026 14.8846C11.9487 14.1794 11.3974 13.641 10.7308 13.641C10.0641 13.641 9.52564 14.1666 9.35898 14.8846H9.07693C9.24359 14.0384 9.92308 13.3974 10.7308 13.3974C11.5385 13.3974 12.218 14.0384 12.3846 14.8846H12.1026ZM14 14.8846C14.1282 14.6281 14.3846 14.4358 14.6795 14.4358C14.9744 14.4358 15.2308 14.6153 15.359 14.8846H14ZM16.0513 14.8846C15.8974 14.1794 15.3462 13.641 14.6795 13.641C14.0256 13.641 13.4744 14.1666 13.3205 14.8846H13.0385C13.0256 14.7948 13.0128 14.7051 12.9872 14.6153L13.0128 14.6281C13.1667 13.7435 13.8718 13.1153 14.6795 13.1153C15.5897 13.1153 16.3205 13.9102 16.3718 14.8974H16.0513V14.8846ZM17.0128 14.8846C16.9615 13.4487 15.9487 12.3076 14.6923 12.3076C13.8205 12.3076 13.0385 12.8846 12.641 13.7307C12.5641 13.6153 12.4872 13.4999 12.3974 13.3846C12.8846 12.4999 13.7564 11.9487 14.6923 11.9487C16.1538 11.9487 17.3462 13.2563 17.3974 14.8846H17.0128ZM18.0128 14.8846C17.9744 12.8205 16.5 11.1538 14.6795 11.1538C13.5385 11.1538 12.4615 11.8333 11.859 12.9358C11.6538 12.8076 11.4231 12.7051 11.1795 12.6538C11.9615 11.3461 13.2564 10.5512 14.6795 10.5512C16.8846 10.5512 18.6923 12.4615 18.8718 14.8846H18.0128ZM19.3718 13.923C19.3718 13.9102 19.359 13.8846 19.359 13.8589C19.3718 13.8589 19.3846 13.8717 19.3974 13.8717C19.3974 13.8974 19.3846 13.9102 19.3718 13.923ZM20.7564 14.8846C20.8846 14.7692 21.0513 14.7051 21.2308 14.7051C21.4103 14.7051 21.5769 14.7692 21.7051 14.8846H20.7564ZM22.5128 14.8846C22.2949 14.3076 21.7949 13.9102 21.2179 13.9102C20.641 13.9102 20.1538 14.3076 19.9231 14.8846H19.6282C19.8718 14.1794 20.4872 13.6666 21.2051 13.6666C21.9231 13.6666 22.5385 14.1794 22.7821 14.8846H22.5128Z" stroke="#C49A81" stroke-width="0.5" stroke-miterlimit="10"/>
<path d="M21.8333 20.077C22.2564 18.3847 23.7308 16.6924 23.7308 16.6924H7.64104C7.64104 16.6924 9.1154 18.3847 9.53847 20.077C9.64104 20.5001 9.93591 20.859 10.2821 20.859H15.0641H16.2949H21.0769C21.4359 20.859 21.7308 20.5001 21.8333 20.077Z" stroke="#C49A81" stroke-width="0.5" stroke-miterlimit="10"/>
</svg>
