<svg width="30" height="30" viewBox="0 0 30 30" fill="none" xmlns="http://www.w3.org/2000/svg">
<path d="M29.494 14.997C29.494 23.0035 23.0035 29.494 14.997 29.494C6.99053 29.494 0.5 23.0035 0.5 14.997C0.5 6.99053 6.99053 0.5 14.997 0.5C23.0035 0.5 29.494 6.99053 29.494 14.997Z" stroke="#C59B82"/>
<path d="M9.61394 14.5891C9.4039 14.3671 9.22386 14.139 9.04983 13.899C8.8818 13.6649 8.72576 13.4189 8.60574 13.1668C8.48572 12.9148 8.3837 12.6567 8.35369 12.3867C8.57573 12.6087 8.76177 12.8368 8.94181 13.0648C9.12184 13.2928 9.29588 13.5269 9.45791 13.7609C9.61994 13.995 9.77597 14.235 9.92 14.4751C10.064 14.7151 10.1961 14.9612 10.3041 15.2252C10.04 15.0272 9.81798 14.8112 9.61394 14.5891ZM11.4263 16.3475C11.3003 16.0354 11.2883 15.6933 11.3783 15.3753C11.4923 14.9852 11.7324 14.6371 11.9424 14.307C12.0444 14.139 12.1404 13.977 12.2065 13.821C12.2665 13.6649 12.2905 13.5089 12.2485 13.3709C12.2365 13.2988 12.1885 13.2508 12.1464 13.1968C12.0924 13.1548 12.0264 13.1128 11.9424 13.0828C11.8584 13.0528 11.7624 13.0348 11.6543 13.0228C11.5523 13.0108 11.4263 13.0108 11.3423 13.0168H11.3363C11.1803 13.0288 11.0362 12.9448 11.0242 12.8308C11.0182 12.7947 11.0302 12.7587 11.0482 12.7287C11.0902 12.6687 11.1322 12.5787 11.1623 12.5007C11.1923 12.4227 11.2163 12.3387 11.2223 12.2606C11.2223 12.1826 11.2043 12.1046 11.1623 12.0326C11.1142 11.9666 11.0422 11.9006 10.9462 11.8586C10.7542 11.7565 10.5081 11.7325 10.2981 11.7745C10.1901 11.7925 10.088 11.8286 9.98602 11.8646C9.93801 11.8826 9.884 11.9066 9.84199 11.9306C9.79398 11.9486 9.73997 11.9786 9.71596 11.9966C9.59594 12.0686 9.4159 12.0626 9.30788 11.9846C9.27787 11.9606 9.25387 11.9366 9.24187 11.9066C9.16385 11.7205 8.99582 11.5045 8.82779 11.3125C8.65375 11.1204 8.44971 10.9344 8.20366 10.7903C8.08364 10.7243 7.94561 10.6643 7.80758 10.6403C7.66955 10.6163 7.54353 10.6343 7.43551 10.6883C7.20146 10.8023 7.12945 11.0304 7.15945 11.2464C7.18346 11.4685 7.28548 11.6905 7.3935 11.9066L7.43551 11.9906L7.44751 12.0086L7.45351 12.0206L7.46551 12.0446C7.47751 12.0806 7.48352 12.1166 7.47752 12.1586C7.46551 12.2366 7.4175 12.3086 7.33949 12.3627C7.29748 12.3867 7.25547 12.4107 7.20146 12.4287C7.17746 12.4347 7.14745 12.4407 7.12344 12.4467L7.06943 12.4527C6.95541 12.4647 6.84739 12.4887 6.73937 12.5427C6.68536 12.5727 6.63735 12.6027 6.59534 12.6447C6.57133 12.6627 6.55333 12.6867 6.53533 12.7107C6.51732 12.7347 6.51132 12.7527 6.49932 12.7767C6.46331 12.8608 6.46931 12.9568 6.52332 13.0468C6.62534 13.2328 6.85939 13.4009 7.06343 13.5389C7.17746 13.6169 7.18346 13.7489 7.06943 13.827C7.02742 13.857 6.97341 13.881 6.9134 13.887C6.8954 13.887 6.82338 13.905 6.78138 13.923C6.73337 13.941 6.68536 13.959 6.64935 13.989C6.57133 14.037 6.50532 14.103 6.46931 14.181C6.42731 14.259 6.4153 14.3491 6.4093 14.4391C6.4153 14.5231 6.42731 14.6071 6.47531 14.6911C6.55933 14.8532 6.74537 15.0032 6.96141 15.1292C7.18346 15.2552 7.43551 15.3633 7.70556 15.4533C7.97561 15.5493 8.25767 15.6273 8.54573 15.6933C8.68976 15.7293 8.83379 15.7593 8.98382 15.7893C9.13985 15.8254 9.28988 15.8554 9.44591 15.8974C9.75197 15.9754 10.046 16.0714 10.3341 16.1854C10.4781 16.2454 10.6161 16.3054 10.7482 16.3775C10.8082 16.4135 10.8742 16.4495 10.9342 16.4855C11.0302 16.4375 11.1382 16.3955 11.2583 16.3595C11.3123 16.3655 11.3723 16.3535 11.4263 16.3475Z" fill="#C59B82"/>
<path d="M16.0412 15.237C16.1312 15.063 16.2273 14.8949 16.3353 14.7389C16.4433 14.5829 16.5513 14.4328 16.6774 14.3068C16.8034 14.1748 16.9414 14.0548 17.0974 13.9767C17.0134 14.1628 16.9174 14.3248 16.8214 14.4868C16.7254 14.6489 16.6233 14.8049 16.5153 14.9549C16.4073 15.105 16.2993 15.255 16.1853 15.399C16.0712 15.5431 15.9512 15.6811 15.8132 15.8011C15.8732 15.5911 15.9512 15.411 16.0412 15.237ZM15.3811 16.7373C15.5431 16.5933 15.7472 16.5093 15.9632 16.4913C16.2273 16.4732 16.4913 16.5393 16.7374 16.5933C16.8634 16.6173 16.9834 16.6413 17.0914 16.6473C17.1995 16.6473 17.3015 16.6293 17.3735 16.5753C17.4155 16.5513 17.4335 16.5153 17.4575 16.4732C17.4695 16.4312 17.4815 16.3832 17.4815 16.3232C17.4815 16.2632 17.4695 16.2032 17.4515 16.1312C17.4335 16.0652 17.4095 15.9871 17.3855 15.9391V15.9331C17.3435 15.8371 17.3615 15.7351 17.4275 15.6991C17.4515 15.6871 17.4755 15.6871 17.4995 15.6931C17.5475 15.7051 17.6075 15.7111 17.6616 15.7111C17.7156 15.7111 17.7696 15.7051 17.8176 15.6931C17.8656 15.6751 17.9076 15.6451 17.9436 15.6031C17.9736 15.5611 17.9976 15.5011 18.0036 15.429C18.0216 15.291 17.9796 15.135 17.9076 15.015C17.8716 14.9549 17.8296 14.8949 17.7816 14.8469C17.7576 14.8229 17.7336 14.7929 17.7096 14.7749C17.6856 14.7509 17.6556 14.7269 17.6375 14.7149C17.5655 14.6609 17.5295 14.5469 17.5535 14.4628C17.5595 14.4388 17.5715 14.4208 17.5895 14.4088C17.6856 14.3188 17.7756 14.1688 17.8596 14.0248C17.9376 13.8747 18.0036 13.7067 18.0336 13.5267C18.0456 13.4366 18.0516 13.3406 18.0336 13.2566C18.0156 13.1666 17.9796 13.0946 17.9196 13.0406C17.7996 12.9265 17.6436 12.9325 17.5175 12.9986C17.3855 13.0646 17.2775 13.1726 17.1695 13.2926L17.1274 13.3346L17.1154 13.3466L17.1094 13.3526L17.0974 13.3646C17.0794 13.3826 17.0554 13.3946 17.0314 13.3946C16.9834 13.4066 16.9294 13.3946 16.8754 13.3586C16.8514 13.3406 16.8274 13.3166 16.8034 13.2926C16.7914 13.2806 16.7854 13.2626 16.7734 13.2506L16.7614 13.2026C16.7314 13.1366 16.6894 13.0766 16.6293 13.0226C16.5993 12.9986 16.5693 12.9745 16.5333 12.9565C16.5153 12.9505 16.4973 12.9385 16.4793 12.9325C16.4613 12.9265 16.4493 12.9265 16.4313 12.9265C16.3713 12.9205 16.3173 12.9505 16.2693 13.0046C16.1793 13.1066 16.1312 13.2866 16.0892 13.4486C16.0652 13.5387 15.9872 13.5687 15.9152 13.5207C15.8852 13.5027 15.8612 13.4726 15.8432 13.4366C15.8372 13.4246 15.8132 13.3826 15.7892 13.3646C15.7652 13.3406 15.7472 13.3166 15.7172 13.2986C15.6692 13.2626 15.6151 13.2386 15.5611 13.2326C15.5071 13.2266 15.4471 13.2386 15.3931 13.2566C15.3451 13.2806 15.2911 13.3046 15.2551 13.3526C15.1771 13.4426 15.129 13.5867 15.099 13.7487C15.075 13.9107 15.063 14.0908 15.069 14.2768C15.075 14.4628 15.087 14.6489 15.111 14.8409C15.123 14.9369 15.135 15.033 15.1531 15.129C15.1651 15.231 15.1831 15.333 15.1891 15.435C15.2071 15.6391 15.2191 15.8431 15.2131 16.0412C15.2071 16.1432 15.2011 16.2392 15.1891 16.3352C15.1831 16.3832 15.1711 16.4252 15.1651 16.4732C15.2131 16.5213 15.2671 16.5753 15.3151 16.6413C15.3451 16.6713 15.3631 16.7013 15.3811 16.7373Z" fill="#C59B82"/>
<path d="M20.3021 11.7021C20.2961 11.5041 20.3021 11.312 20.3201 11.126C20.3381 10.94 20.3681 10.7539 20.4161 10.5799C20.4641 10.4058 20.5241 10.2378 20.6262 10.0878C20.6382 10.2918 20.6322 10.4839 20.6262 10.6699C20.6202 10.8619 20.6022 11.048 20.5782 11.228C20.5541 11.414 20.5301 11.5941 20.5001 11.7741C20.4641 11.9542 20.4281 12.1342 20.3681 12.3022C20.3261 12.0982 20.3081 11.9001 20.3021 11.7021ZM20.4401 13.3404C20.5121 13.1364 20.6502 12.9624 20.8302 12.8423C21.0522 12.7043 21.3163 12.6323 21.5624 12.5603C21.6824 12.5243 21.8024 12.4883 21.8984 12.4342C21.9944 12.3862 22.0725 12.3142 22.1145 12.2362C22.1385 12.1942 22.1385 12.1522 22.1385 12.1102C22.1325 12.0622 22.1145 12.0202 22.0905 11.9662C22.0605 11.9181 22.0244 11.8641 21.9764 11.8101C21.9344 11.7621 21.8684 11.7081 21.8264 11.6721H21.8204C21.7364 11.6061 21.7064 11.5101 21.7484 11.4501C21.7604 11.432 21.7844 11.42 21.8084 11.408C21.8564 11.396 21.9164 11.372 21.9644 11.348C22.0124 11.324 22.0604 11.294 22.0965 11.258C22.1325 11.222 22.1565 11.174 22.1625 11.12C22.1685 11.066 22.1565 11.006 22.1325 10.94C22.0785 10.8079 21.9764 10.6939 21.8504 10.6219C21.7904 10.5859 21.7244 10.5559 21.6584 10.5319C21.6224 10.5199 21.5924 10.5079 21.5563 10.5019C21.5263 10.4899 21.4843 10.4839 21.4663 10.4779C21.3763 10.4659 21.2923 10.3818 21.2743 10.2978C21.2683 10.2738 21.2683 10.2498 21.2743 10.2318C21.3163 10.1058 21.3283 9.93175 21.3283 9.76372C21.3283 9.59568 21.3043 9.41565 21.2443 9.24161C21.2143 9.15759 21.1723 9.06758 21.1123 9.00156C21.0582 8.92955 20.9862 8.88754 20.9082 8.86354C20.7462 8.82153 20.6142 8.89954 20.5361 9.01957C20.4521 9.13959 20.4101 9.28962 20.3681 9.44565L20.3561 9.50566L20.3501 9.51767V9.52367L20.3441 9.54167C20.3321 9.56568 20.3201 9.58368 20.3021 9.60168C20.2661 9.63169 20.2121 9.64969 20.1461 9.64369C20.1161 9.63769 20.0861 9.63169 20.05 9.61969C20.032 9.61369 20.02 9.60168 20.002 9.59568L19.972 9.57768C19.912 9.53567 19.846 9.49966 19.774 9.48166C19.738 9.47566 19.696 9.46966 19.66 9.46966C19.642 9.46966 19.624 9.46966 19.6 9.47566C19.582 9.48166 19.57 9.48766 19.552 9.48766C19.4979 9.51167 19.4619 9.56568 19.4439 9.63169C19.4139 9.76372 19.4559 9.94975 19.4979 10.1058C19.5219 10.1958 19.4679 10.2618 19.3779 10.2498C19.3419 10.2438 19.3059 10.2318 19.2759 10.2138C19.2639 10.2078 19.2219 10.1838 19.1979 10.1718C19.1679 10.1598 19.1379 10.1478 19.1079 10.1478C19.0478 10.1358 18.9878 10.1418 18.9398 10.1658C18.8858 10.1898 18.8438 10.2258 18.8018 10.2678C18.7718 10.3098 18.7358 10.3578 18.7298 10.4178C18.6998 10.5319 18.7298 10.6879 18.7838 10.8379C18.8378 10.994 18.9158 11.156 19.0058 11.312C19.0959 11.4741 19.2039 11.6301 19.3119 11.7861C19.3659 11.8641 19.4259 11.9422 19.4859 12.0202C19.5459 12.1042 19.606 12.1822 19.666 12.2722C19.78 12.4403 19.888 12.6143 19.978 12.7943C20.02 12.8843 20.0621 12.9744 20.0981 13.0644C20.1161 13.1064 20.1281 13.1544 20.1401 13.1964C20.2061 13.2144 20.2781 13.2384 20.3501 13.2744C20.3741 13.2984 20.4101 13.3164 20.4401 13.3404Z" fill="#C59B82"/>
<path d="M22.6486 21.4482C23.1107 19.5818 24.743 17.7095 24.743 17.7095H6.95544C6.95544 17.7095 8.58777 19.5818 9.04986 21.4482C9.16389 21.9103 9.48795 22.3124 9.87203 22.3124H15.1651H16.5274H21.8204C22.2105 22.3124 22.5346 21.9163 22.6486 21.4482Z" fill="#C59B82"/>
<path d="M14.6778 17.0236C14.8559 16.5276 14.4109 15.9141 13.6841 15.6532C12.9573 15.3924 12.2237 15.583 12.0457 16.079C11.8677 16.575 12.3126 17.1885 13.0394 17.4494C13.7663 17.7103 14.4998 17.5196 14.6778 17.0236Z" fill="#C59B82"/>
<path d="M16.1289 10.9342C16.362 10.198 16.1436 9.47218 15.6412 9.31314C15.1387 9.1541 14.5425 9.62202 14.3095 10.3583C14.0764 11.0945 14.2947 11.8203 14.7972 11.9794C15.2996 12.1384 15.8958 11.6705 16.1289 10.9342Z" fill="#C59B82"/>
<path d="M22.5924 16.1491C22.8255 15.4128 22.6071 14.687 22.1047 14.528C21.6023 14.3689 21.006 14.8369 20.773 15.5731C20.5399 16.3094 20.7583 17.0352 21.2607 17.1942C21.7631 17.3533 22.3593 16.8853 22.5924 16.1491Z" fill="#C59B82"/>
</svg>
