<svg width="30" height="30" viewBox="0 0 30 30" fill="none" xmlns="http://www.w3.org/2000/svg">
<path d="M14.997 29.994C23.2796 29.994 29.994 23.2796 29.994 14.997C29.994 6.71439 23.2796 0 14.997 0C6.71439 0 0 6.71439 0 14.997C0 23.2796 6.71439 29.994 14.997 29.994Z" fill="#C59B82"/>
<path d="M9.61393 14.5889C9.40389 14.3668 9.22385 14.1388 9.04981 13.8987C8.88178 13.6647 8.72575 13.4186 8.60573 13.1666C8.4857 12.9145 8.38368 12.6565 8.35368 12.3864C8.57572 12.6085 8.76176 12.8365 8.94179 13.0646C9.12183 13.2926 9.29586 13.5266 9.4579 13.7607C9.61993 13.9947 9.77596 14.2348 9.91999 14.4748C10.064 14.7149 10.196 14.9609 10.3041 15.225C10.04 15.0269 9.81797 14.8109 9.61393 14.5889ZM11.4263 16.3472C11.3003 16.0352 11.2883 15.6931 11.3783 15.375C11.4923 14.9849 11.7323 14.6369 11.9424 14.3068C12.0444 14.1388 12.1404 13.9767 12.2064 13.8207C12.2665 13.6647 12.2905 13.5086 12.2485 13.3706C12.2365 13.2986 12.1884 13.2506 12.1464 13.1966C12.0924 13.1546 12.0264 13.1126 11.9424 13.0826C11.8584 13.0526 11.7624 13.0346 11.6543 13.0225C11.5523 13.0105 11.4263 13.0105 11.3423 13.0165H11.3363C11.1802 13.0285 11.0362 12.9445 11.0242 12.8305C11.0182 12.7945 11.0302 12.7585 11.0482 12.7285C11.0902 12.6685 11.1322 12.5785 11.1622 12.5004C11.1922 12.4224 11.2162 12.3384 11.2222 12.2604C11.2222 12.1824 11.2042 12.1044 11.1622 12.0323C11.1142 11.9663 11.0422 11.9003 10.9462 11.8583C10.7542 11.7563 10.5081 11.7323 10.2981 11.7743C10.19 11.7923 10.088 11.8283 9.986 11.8643C9.93799 11.8823 9.88398 11.9063 9.84197 11.9303C9.79396 11.9483 9.73995 11.9783 9.71595 11.9963C9.59592 12.0684 9.41589 12.0624 9.30787 11.9843C9.27786 11.9603 9.25385 11.9363 9.24185 11.9063C9.16384 11.7203 8.9958 11.5042 8.82777 11.3122C8.65373 11.1202 8.44969 10.9341 8.20364 10.7901C8.08362 10.7241 7.94559 10.6641 7.80757 10.6401C7.66954 10.6161 7.54351 10.6341 7.43549 10.6881C7.20144 10.8021 7.12943 11.0301 7.15944 11.2462C7.18344 11.4682 7.28546 11.6903 7.39348 11.9063L7.43549 11.9903L7.44749 12.0083L7.4535 12.0203L7.4655 12.0444C7.4775 12.0804 7.4835 12.1164 7.4775 12.1584C7.4655 12.2364 7.41749 12.3084 7.33947 12.3624C7.29746 12.3864 7.25546 12.4104 7.20144 12.4284C7.17744 12.4344 7.14743 12.4404 7.12343 12.4464L7.06942 12.4524C6.9554 12.4644 6.84737 12.4884 6.73935 12.5425C6.68534 12.5725 6.63733 12.6025 6.59532 12.6445C6.57132 12.6625 6.55332 12.6865 6.53531 12.7105C6.51731 12.7345 6.51131 12.7525 6.4993 12.7765C6.4633 12.8605 6.4693 12.9565 6.52331 13.0466C6.62533 13.2326 6.85938 13.4006 7.06342 13.5387C7.17744 13.6167 7.18344 13.7487 7.06942 13.8267C7.02741 13.8567 6.9734 13.8807 6.91339 13.8867C6.89538 13.8867 6.82337 13.9047 6.78136 13.9227C6.73335 13.9407 6.68534 13.9587 6.64933 13.9887C6.57132 14.0368 6.50531 14.1028 6.4693 14.1808C6.42729 14.2588 6.41529 14.3488 6.40929 14.4388C6.41529 14.5228 6.42729 14.6069 6.4753 14.6909C6.55932 14.8529 6.74535 15.0029 6.9614 15.129C7.18344 15.255 7.43549 15.363 7.70555 15.453C7.9756 15.5491 8.25766 15.6271 8.54571 15.6931C8.68974 15.7291 8.83377 15.7591 8.9838 15.7891C9.13983 15.8251 9.28986 15.8551 9.44589 15.8971C9.75195 15.9751 10.046 16.0712 10.3341 16.1852C10.4781 16.2452 10.6161 16.3052 10.7482 16.3772C10.8082 16.4132 10.8742 16.4492 10.9342 16.4852C11.0302 16.4372 11.1382 16.3952 11.2583 16.3592C11.3123 16.3652 11.3723 16.3532 11.4263 16.3472Z" fill="#F6F6F6"/>
<path d="M16.0412 15.237C16.1312 15.063 16.2273 14.8949 16.3353 14.7389C16.4433 14.5829 16.5513 14.4328 16.6773 14.3068C16.8034 14.1748 16.9414 14.0548 17.0974 13.9767C17.0134 14.1628 16.9174 14.3248 16.8214 14.4868C16.7254 14.6489 16.6233 14.8049 16.5153 14.9549C16.4073 15.105 16.2993 15.255 16.1852 15.399C16.0712 15.5431 15.9512 15.6811 15.8132 15.8011C15.8732 15.5911 15.9512 15.411 16.0412 15.237ZM15.3811 16.7373C15.5431 16.5933 15.7472 16.5093 15.9632 16.4913C16.2273 16.4732 16.4913 16.5393 16.7374 16.5933C16.8634 16.6173 16.9834 16.6413 17.0914 16.6473C17.1994 16.6473 17.3015 16.6293 17.3735 16.5753C17.4155 16.5513 17.4335 16.5153 17.4575 16.4732C17.4695 16.4312 17.4815 16.3832 17.4815 16.3232C17.4815 16.2632 17.4695 16.2032 17.4515 16.1312C17.4335 16.0652 17.4095 15.9871 17.3855 15.9391V15.9331C17.3435 15.8371 17.3615 15.7351 17.4275 15.6991C17.4515 15.6871 17.4755 15.6871 17.4995 15.6931C17.5475 15.7051 17.6075 15.7111 17.6615 15.7111C17.7156 15.7111 17.7696 15.7051 17.8176 15.6931C17.8656 15.6751 17.9076 15.6451 17.9436 15.6031C17.9736 15.5611 17.9976 15.5011 18.0036 15.429C18.0216 15.291 17.9796 15.135 17.9076 15.015C17.8716 14.9549 17.8296 14.8949 17.7816 14.8469C17.7576 14.8229 17.7336 14.7929 17.7095 14.7749C17.6855 14.7509 17.6555 14.7269 17.6375 14.7149C17.5655 14.6609 17.5295 14.5469 17.5535 14.4628C17.5595 14.4388 17.5715 14.4208 17.5895 14.4088C17.6855 14.3188 17.7756 14.1688 17.8596 14.0248C17.9376 13.8747 18.0036 13.7067 18.0336 13.5267C18.0456 13.4366 18.0516 13.3406 18.0336 13.2566C18.0156 13.1666 17.9796 13.0946 17.9196 13.0406C17.7996 12.9265 17.6435 12.9325 17.5175 12.9986C17.3855 13.0646 17.2775 13.1726 17.1694 13.2926L17.1274 13.3346L17.1154 13.3466L17.1094 13.3526L17.0974 13.3646C17.0794 13.3826 17.0554 13.3946 17.0314 13.3946C16.9834 13.4066 16.9294 13.3946 16.8754 13.3586C16.8514 13.3406 16.8274 13.3166 16.8034 13.2926C16.7914 13.2806 16.7854 13.2626 16.7734 13.2506L16.7614 13.2026C16.7314 13.1366 16.6893 13.0766 16.6293 13.0226C16.5993 12.9986 16.5693 12.9745 16.5333 12.9565C16.5153 12.9505 16.4973 12.9385 16.4793 12.9325C16.4613 12.9265 16.4493 12.9265 16.4313 12.9265C16.3713 12.9205 16.3173 12.9505 16.2693 13.0046C16.1792 13.1066 16.1312 13.2866 16.0892 13.4486C16.0652 13.5387 15.9872 13.5687 15.9152 13.5207C15.8852 13.5027 15.8612 13.4726 15.8432 13.4366C15.8372 13.4246 15.8132 13.3826 15.7892 13.3646C15.7652 13.3406 15.7472 13.3166 15.7171 13.2986C15.6691 13.2626 15.6151 13.2386 15.5611 13.2326C15.5071 13.2266 15.4471 13.2386 15.3931 13.2566C15.3451 13.2806 15.2911 13.3046 15.2551 13.3526C15.177 13.4426 15.129 13.5867 15.099 13.7487C15.075 13.9107 15.063 14.0908 15.069 14.2768C15.075 14.4628 15.087 14.6489 15.111 14.8409C15.123 14.9369 15.135 15.033 15.153 15.129C15.165 15.231 15.183 15.333 15.189 15.435C15.207 15.6391 15.219 15.8431 15.213 16.0412C15.207 16.1432 15.201 16.2392 15.189 16.3352C15.183 16.3832 15.171 16.4252 15.165 16.4732C15.213 16.5213 15.2671 16.5753 15.3151 16.6413C15.3451 16.6713 15.3631 16.7013 15.3811 16.7373Z" fill="#F6F6F6"/>
<path d="M20.3021 11.7023C20.2961 11.5043 20.3021 11.3123 20.3201 11.1262C20.3381 10.9402 20.3681 10.7542 20.4161 10.5801C20.4641 10.4061 20.5241 10.2381 20.6261 10.088C20.6381 10.2921 20.6321 10.4841 20.6261 10.6701C20.6201 10.8622 20.6021 11.0482 20.5781 11.2283C20.5541 11.4143 20.5301 11.5943 20.5001 11.7744C20.4641 11.9544 20.4281 12.1344 20.3681 12.3025C20.3261 12.0984 20.3081 11.9004 20.3021 11.7023ZM20.4401 13.3407C20.5121 13.1366 20.6501 12.9626 20.8302 12.8426C21.0522 12.7045 21.3163 12.6325 21.5623 12.5605C21.6823 12.5245 21.8024 12.4885 21.8984 12.4345C21.9944 12.3865 22.0724 12.3145 22.1144 12.2365C22.1384 12.1944 22.1384 12.1524 22.1384 12.1104C22.1324 12.0624 22.1144 12.0204 22.0904 11.9664C22.0604 11.9184 22.0244 11.8644 21.9764 11.8104C21.9344 11.7624 21.8684 11.7083 21.8264 11.6723H21.8204C21.7364 11.6063 21.7063 11.5103 21.7484 11.4503C21.7604 11.4323 21.7844 11.4203 21.8084 11.4083C21.8564 11.3963 21.9164 11.3723 21.9644 11.3483C22.0124 11.3243 22.0604 11.2943 22.0964 11.2583C22.1324 11.2223 22.1564 11.1742 22.1624 11.1202C22.1684 11.0662 22.1564 11.0062 22.1324 10.9402C22.0784 10.8082 21.9764 10.6941 21.8504 10.6221C21.7904 10.5861 21.7244 10.5561 21.6583 10.5321C21.6223 10.5201 21.5923 10.5081 21.5563 10.5021C21.5263 10.4901 21.4843 10.4841 21.4663 10.4781C21.3763 10.4661 21.2923 10.3821 21.2743 10.2981C21.2683 10.2741 21.2683 10.2501 21.2743 10.2321C21.3163 10.106 21.3283 9.93199 21.3283 9.76396C21.3283 9.59593 21.3043 9.41589 21.2443 9.24186C21.2143 9.15784 21.1722 9.06782 21.1122 9.00181C21.0582 8.92979 20.9862 8.88779 20.9082 8.86378C20.7462 8.82177 20.6141 8.89979 20.5361 9.01981C20.4521 9.13984 20.4101 9.28987 20.3681 9.4459L20.3561 9.50591L20.3501 9.51791V9.52391L20.3441 9.54192C20.3321 9.56592 20.3201 9.58392 20.3021 9.60193C20.2661 9.63193 20.2121 9.64994 20.146 9.64394C20.116 9.63793 20.086 9.63193 20.05 9.61993C20.032 9.61393 20.02 9.60193 20.002 9.59593L19.972 9.57792C19.912 9.53591 19.846 9.49991 19.774 9.4819C19.738 9.4759 19.6959 9.4699 19.6599 9.4699C19.6419 9.4699 19.6239 9.4699 19.5999 9.4759C19.5819 9.4819 19.5699 9.48791 19.5519 9.48791C19.4979 9.51191 19.4619 9.56592 19.4439 9.63193C19.4139 9.76396 19.4559 9.95 19.4979 10.106C19.5219 10.196 19.4679 10.2621 19.3779 10.2501C19.3419 10.2441 19.3059 10.2321 19.2759 10.2141C19.2639 10.208 19.2219 10.184 19.1978 10.172C19.1678 10.16 19.1378 10.148 19.1078 10.148C19.0478 10.136 18.9878 10.142 18.9398 10.166C18.8858 10.19 18.8438 10.2261 18.8018 10.2681C18.7718 10.3101 18.7358 10.3581 18.7298 10.4181C18.6997 10.5321 18.7298 10.6881 18.7838 10.8382C18.8378 10.9942 18.9158 11.1562 19.0058 11.3123C19.0958 11.4743 19.2038 11.6303 19.3119 11.7864C19.3659 11.8644 19.4259 11.9424 19.4859 12.0204C19.5459 12.1044 19.6059 12.1824 19.6659 12.2725C19.78 12.4405 19.888 12.6145 19.978 12.7946C20.02 12.8846 20.062 12.9746 20.098 13.0646C20.116 13.1066 20.128 13.1546 20.14 13.1966C20.2061 13.2147 20.2781 13.2387 20.3501 13.2747C20.3741 13.2987 20.4101 13.3167 20.4401 13.3407Z" fill="#F6F6F6"/>
<path d="M22.6485 21.4482C23.1106 19.5818 24.7429 17.7095 24.7429 17.7095H6.95539C6.95539 17.7095 8.58772 19.5818 9.04981 21.4482C9.16383 21.9103 9.4879 22.3124 9.87197 22.3124H15.165H16.5273H21.8204C22.2104 22.3124 22.5345 21.9163 22.6485 21.4482Z" fill="#F6F6F6"/>
<path d="M14.6778 17.0234C14.8558 16.5274 14.4109 15.9138 13.6841 15.653C12.9572 15.3921 12.2237 15.5827 12.0457 16.0787C11.8677 16.5747 12.3126 17.1883 13.0394 17.4491C13.7662 17.71 14.4998 17.5194 14.6778 17.0234Z" fill="#F6F6F6"/>
<path d="M16.1289 10.9342C16.3619 10.198 16.1436 9.47218 15.6411 9.31314C15.1387 9.1541 14.5425 9.62202 14.3094 10.3583C14.0764 11.0945 14.2947 11.8203 14.7971 11.9794C15.2996 12.1384 15.8958 11.6705 16.1289 10.9342Z" fill="#F6F6F6"/>
<path d="M22.5924 16.1491C22.8255 15.4128 22.6071 14.687 22.1047 14.528C21.6023 14.3689 21.006 14.8369 20.773 15.5731C20.5399 16.3094 20.7583 17.0352 21.2607 17.1942C21.7631 17.3533 22.3594 16.8853 22.5924 16.1491Z" fill="#F6F6F6"/>
</svg>
