<svg width="30" height="30" viewBox="0 0 30 30" fill="none" xmlns="http://www.w3.org/2000/svg">
<path d="M15 29.3591C22.9302 29.3591 29.359 22.9303 29.359 15.0001C29.359 7.06984 22.9302 0.641113 15 0.641113C7.06975 0.641113 0.641022 7.06984 0.641022 15.0001C0.641022 22.9303 7.06975 29.3591 15 29.3591Z" stroke="#C49A81" stroke-miterlimit="10"/>
<path d="M15.0128 22.3334C13.3846 22.3334 11.7564 21.7821 10.4359 20.7949C10.3462 20.9744 10.2821 21.1667 10.2821 21.3462C10.2821 22.4488 12.218 23.218 14.9872 23.218C17.7564 23.218 19.6923 22.4488 19.6923 21.3462C19.6923 21.1667 19.641 21.0001 19.5513 20.8206C18.2436 21.7821 16.6282 22.3334 15.0128 22.3334Z" stroke="#C49A81" stroke-width="0.5" stroke-miterlimit="10"/>
<path d="M22.3974 14.8462C22.0513 14.9359 21.4744 15.0257 20.4872 15.1026C19.0256 15.2308 17.0769 15.2949 15 15.2949C12.9231 15.2949 10.9744 15.2308 9.51282 15.1026C8.53846 15.0257 7.96154 14.9359 7.61539 14.8462C7.89744 18.3975 10.4615 21.9359 15.0128 21.9359C19.5641 21.9488 22.1282 18.3975 22.3974 14.8462ZM17.5385 20.6795C17.5385 20.6795 20.6539 16.3718 19.7051 15.9744H21.3718C21.3718 15.9744 21.4615 19.0129 17.5385 20.6795Z" stroke="#C49A81" stroke-width="0.5" stroke-miterlimit="10"/>
<path d="M17.5385 13.1538C17.7564 10.423 22.2308 11.7948 21.3077 8.25636C21.1667 7.7179 20.5128 7.94867 20.6667 8.49995C21.0769 10.0512 19.5256 10.2435 18.7308 10.5897C17.7821 11.0128 17 11.7307 16.8718 13.1538C16.8205 13.7307 17.4872 13.7307 17.5385 13.1538Z" stroke="#C49A81" stroke-width="0.5" stroke-miterlimit="10"/>
<path d="M19.4231 13.5C19.718 12.141 21.0513 12.1154 21.8974 11.782C22.8077 11.4231 23.3333 10.5769 23.2051 9.26921C23.1538 8.7051 22.4872 8.69228 22.5385 9.26921C22.6923 10.8461 21.6154 10.9615 20.718 11.2436C19.8462 11.5256 19.0513 12.0256 18.7821 13.2564C18.7436 13.4487 18.7949 13.6025 18.8846 13.7051C19.0256 13.7179 19.1795 13.7179 19.3205 13.7307C19.359 13.6795 19.3974 13.6025 19.4231 13.5Z" stroke="#C49A81" stroke-width="0.5" stroke-miterlimit="10"/>
<path d="M15 14.0127C11.0513 14.0127 8.4359 14.2435 7.61539 14.4614C8.4359 14.6794 11.0385 14.9101 15 14.9101C18.9487 14.9101 21.5641 14.6794 22.3846 14.4614C21.5641 14.2435 18.9487 14.0127 15 14.0127Z" stroke="#C49A81" stroke-width="0.5" stroke-miterlimit="10"/>
</svg>
