<svg width="32" height="32" viewBox="0 0 32 32" fill="none" xmlns="http://www.w3.org/2000/svg">
<path d="M6.87017 16.7494C6.87017 16.8075 6.8847 16.8802 6.89923 16.9383L7.1898 19.7423C17.8685 23.4181 24.9295 19.7423 24.9295 19.7423V15.7614C24.915 15.776 24.9005 15.805 24.9005 15.8196C24.9441 15.3837 24.8714 14.9478 24.639 14.4829C23.9706 13.1317 22.5032 12.3762 20.5128 12.3762C19.1471 12.3762 17.6506 12.754 16.7934 13.3206C15.5003 14.1487 13.568 15.4128 11.2143 15.4128C10.9237 15.4128 10.6186 15.3982 10.328 15.3546C9.99387 15.311 9.67424 15.282 9.36913 15.282C7.13169 15.282 6.87017 16.6041 6.85564 16.6622L6.84111 16.7058L6.87017 16.7494ZM19.6846 13.1462C19.8299 13.524 20.0043 13.9018 20.1641 14.265C19.7282 14.4248 19.4522 14.7008 19.4522 15.035C19.4522 15.529 20.0188 15.8777 20.8469 15.9358C20.8615 15.9794 20.8615 16.0084 20.8905 16.052C21.2102 16.6186 21.4426 17.2289 21.6896 17.8391C21.2392 17.9989 20.7743 18.1151 20.3529 18.2168C20.3529 18.2023 20.3529 18.1878 20.3529 18.1587C19.8735 16.5169 19.1906 14.9478 18.6095 13.3351C18.9291 13.248 19.2923 13.1898 19.6846 13.1462ZM21.0649 14.759C21.6751 14.759 22.0092 14.9624 22.0383 15.0495C22.0092 15.1076 21.6751 15.3111 21.0649 15.3111C20.4547 15.3111 20.1205 15.1076 20.0914 15.0205C20.135 14.9624 20.4692 14.759 21.0649 14.759ZM20.6145 13.0881C20.876 13.0881 21.1956 13.1172 21.5298 13.1753C21.5443 13.2189 21.5443 13.2625 21.5734 13.3061C21.7768 13.6402 21.9511 13.9889 22.1255 14.3376C21.8494 14.2069 21.4862 14.1197 21.0649 14.1197C21.0503 14.1197 21.0503 14.1197 21.0358 14.1197C21.0358 14.0616 21.0067 14.0035 20.9922 13.9453C20.8615 13.6548 20.7452 13.3787 20.6145 13.0881ZM23.3895 16.9964C23.128 17.1853 22.8374 17.3596 22.5178 17.5194C22.2998 16.9673 22.0819 16.4007 21.8058 15.8777C22.2126 15.776 22.5032 15.5726 22.634 15.3256C22.8664 15.8777 23.1134 16.4298 23.3895 16.9964ZM16.1105 14.5846C16.5464 15.9067 17.0549 17.1998 17.5198 18.5074C17.2147 18.5219 16.8951 18.5365 16.5319 18.551C16.1396 17.3741 15.7618 16.1828 15.3841 15.0059C15.6456 14.8607 15.8781 14.7299 16.1105 14.5846ZM14.5705 15.3837C14.9192 16.4443 15.2533 17.5049 15.602 18.5655C15.3841 18.5655 15.1516 18.5655 14.9192 18.5655C14.7739 18.5655 14.6286 18.5655 14.4833 18.5655C14.2218 17.6211 13.9167 16.6768 13.6116 15.7324C13.9457 15.6307 14.2654 15.5145 14.5705 15.3837ZM12.7544 15.9503C13.0304 16.8075 13.3065 17.6647 13.568 18.5365C13.1321 18.5219 12.7108 18.4929 12.3185 18.4783C12.1151 17.6793 11.839 16.9092 11.6792 16.0956C12.0424 16.0666 12.4057 16.023 12.7544 15.9503ZM8.72986 16.052C8.84609 16.6768 8.96232 17.316 9.09308 17.9408C8.17777 17.6357 7.65473 17.2434 7.59661 16.7494C7.6402 16.6332 7.85813 16.2118 8.72986 16.052ZM10.7784 16.0956V16.1101C10.9092 16.8947 11.1562 17.6357 11.3741 18.3912C10.8801 18.3331 10.4443 18.2749 10.052 18.1878C9.89217 17.4613 9.76141 16.7349 9.63065 15.9939C9.83406 16.0084 10.052 16.023 10.2699 16.052C10.4297 16.0811 10.6041 16.0811 10.7784 16.0956ZM17.1857 13.9163C17.3309 13.8146 17.5198 13.7274 17.7523 13.6257C18.3334 15.2093 18.9872 16.7639 19.4667 18.3766C19.4522 18.3766 19.4376 18.3766 19.4086 18.3912C19.4086 18.3912 19.0308 18.4202 18.4206 18.4638C17.9121 17.0109 17.3455 15.5871 16.866 14.1197C16.9968 14.047 17.0985 13.9744 17.1857 13.9163ZM24.0578 16.2409C24.0433 16.2554 24.0433 16.27 24.0288 16.2845C23.6074 15.3692 23.2006 14.4393 22.7212 13.5385C23.2442 13.8 23.7091 14.1778 24.0142 14.788C24.2757 15.3401 24.2903 15.805 24.0578 16.2409Z" fill="#C49A81"/>
<path d="M16 31C24.2843 31 31 24.2843 31 16C31 7.71573 24.2843 1 16 1C7.71573 1 1 7.71573 1 16C1 24.2843 7.71573 31 16 31Z" stroke="#C49A81" stroke-miterlimit="10"/>
</svg>
