<svg width="30" height="30" viewBox="0 0 30 30" fill="none" xmlns="http://www.w3.org/2000/svg">
<path d="M15 30C23.2843 30 30 23.2843 30 15C30 6.71573 23.2843 0 15 0C6.71573 0 0 6.71573 0 15C0 23.2843 6.71573 30 15 30Z" fill="#C59B82"/>
<path d="M5.87018 15.7494C5.87018 15.8075 5.88471 15.8802 5.89924 15.9383L6.18982 18.7423C16.8685 22.4181 23.9296 18.7423 23.9296 18.7423V14.7614C23.915 14.776 23.9005 14.805 23.9005 14.8196C23.9441 14.3837 23.8714 13.9478 23.639 13.4829C22.9707 12.1317 21.5032 11.3762 19.5128 11.3762C18.1471 11.3762 16.6506 11.754 15.7934 12.3206C14.5003 13.1487 12.568 14.4128 10.2143 14.4128C9.92374 14.4128 9.61863 14.3982 9.32805 14.3546C8.99389 14.311 8.67425 14.282 8.36915 14.282C6.1317 14.282 5.87018 15.6041 5.85565 15.6622L5.84113 15.7058L5.87018 15.7494ZM18.6846 12.1462C18.8299 12.524 19.0043 12.9018 19.1641 13.265C18.7282 13.4248 18.4522 13.7008 18.4522 14.035C18.4522 14.529 19.0188 14.8777 19.8469 14.9358C19.8615 14.9794 19.8615 15.0084 19.8905 15.052C20.2102 15.6186 20.4426 16.2289 20.6896 16.8391C20.2392 16.9989 19.7743 17.1151 19.353 17.2168C19.353 17.2023 19.353 17.1878 19.353 17.1587C18.8735 15.5169 18.1907 13.9478 17.6095 12.3351C17.9291 12.248 18.2924 12.1898 18.6846 12.1462ZM20.0649 13.759C20.6751 13.759 21.0093 13.9624 21.0383 14.0495C21.0093 14.1076 20.6751 14.3111 20.0649 14.3111C19.4547 14.3111 19.1205 14.1076 19.0914 14.0205C19.135 13.9624 19.4692 13.759 20.0649 13.759ZM19.6145 12.0881C19.876 12.0881 20.1956 12.1172 20.5298 12.1753C20.5443 12.2189 20.5443 12.2625 20.5734 12.3061C20.7768 12.6402 20.9511 12.9889 21.1255 13.3376C20.8494 13.2069 20.4862 13.1197 20.0649 13.1197C20.0504 13.1197 20.0504 13.1197 20.0358 13.1197C20.0358 13.0616 20.0068 13.0035 19.9922 12.9453C19.8615 12.6548 19.7452 12.3787 19.6145 12.0881ZM22.3895 15.9964C22.128 16.1853 21.8374 16.3596 21.5178 16.5194C21.2998 15.9673 21.0819 15.4007 20.8059 14.8777C21.2127 14.776 21.5032 14.5726 21.634 14.3256C21.8665 14.8777 22.1134 15.4298 22.3895 15.9964ZM15.1105 13.5846C15.5464 14.9067 16.0549 16.1998 16.5198 17.5074C16.2147 17.5219 15.8951 17.5365 15.5319 17.551C15.1396 16.3741 14.7618 15.1828 14.3841 14.0059C14.6456 13.8607 14.8781 13.7299 15.1105 13.5846ZM13.5705 14.3837C13.9192 15.4443 14.2533 16.5049 14.602 17.5655C14.3841 17.5655 14.1516 17.5655 13.9192 17.5655C13.7739 17.5655 13.6286 17.5655 13.4833 17.5655C13.2218 16.6211 12.9167 15.6768 12.6116 14.7324C12.9457 14.6307 13.2654 14.5145 13.5705 14.3837ZM11.7544 14.9503C12.0304 15.8075 12.3065 16.6647 12.568 17.5365C12.1321 17.5219 11.7108 17.4929 11.3185 17.4783C11.1151 16.6793 10.8391 15.9092 10.6792 15.0956C11.0425 15.0666 11.4057 15.023 11.7544 14.9503ZM7.72988 15.052C7.84611 15.6768 7.96234 16.316 8.0931 16.9408C7.17778 16.6357 6.65474 16.2434 6.59663 15.7494C6.64021 15.6332 6.85815 15.2118 7.72988 15.052ZM9.77845 15.0956V15.1101C9.90921 15.8947 10.1562 16.6357 10.3741 17.3912C9.88015 17.3331 9.44428 17.2749 9.052 17.1878C8.89219 16.4613 8.76143 15.7349 8.63067 14.9939C8.83407 15.0084 9.052 15.023 9.26994 15.052C9.42975 15.0811 9.6041 15.0811 9.77845 15.0956ZM16.1857 12.9163C16.331 12.8146 16.5198 12.7274 16.7523 12.6257C17.3335 14.2093 17.9873 15.7639 18.4667 17.3766C18.4522 17.3766 18.4376 17.3766 18.4086 17.3912C18.4086 17.3912 18.0308 17.4202 17.4206 17.4638C16.9121 16.0109 16.3455 14.5871 15.866 13.1197C15.9968 13.047 16.0985 12.9744 16.1857 12.9163ZM23.0578 15.2409C23.0433 15.2554 23.0433 15.27 23.0288 15.2845C22.6074 14.3692 22.2006 13.4393 21.7212 12.5385C22.2442 12.8 22.7091 13.1778 23.0142 13.788C23.2758 14.3401 23.2903 14.805 23.0578 15.2409Z" fill="white"/>
</svg>
